<svg xmlns="http://www.w3.org/2000/svg" width="500" height="300" opacity="0.07" preserveAspectRatio="none" viewBox="0 0 500 300"><g mask="url(&quot;#a&quot;)" fill="none"><path d="m-41.64 210.86 63.41-7.26m-63.41 7.26 25.28 81.96m-25.28-81.96 66.23 78.27m-40.95 3.69 40.95-3.69m-40.95 3.69-27.3 61.43m27.3-61.43 58.02 44.91M21.77 203.6l64.41 10.5m-61.59 75.03 17.07 48.6m0 0L79 341.65m7.18-127.55 3.69 58.66m-3.69-58.66 81.03 15.67M79 341.65l63.13-.06m-63.13.06 10.87-68.89M79 341.65l-54.41-52.52m142.62-59.36 48.87-13.95m-48.87 13.95-4.71 60.15m4.71-60.15 47.73 49.33m-52.44 10.82 52.44-10.82m-52.44 10.82-20.37 51.67m0 0-52.26-68.83m52.26 68.83 72.81-62.49m-3.72-136.21 67.01 24.4m-67.01-24.4 4.86 72.93m-4.86-72.93 70.18-42.56m-65.32 115.49-1.14 63.28m1.14-63.28 62.4 11.65m-62.4-11.65 62.15-48.53m-62.15 48.53 60.27 61.73m-61.41 1.55 61.41-1.55m-61.41 1.55 63.54-51.63m2.92-127.14 46.97 41.84m-46.97-41.84-3.17 66.96m3.17-66.96 72.99-12.65m-72.99 12.65L349.64 35m-68.24 65.33 109.73 42.9m-112.9 24.06 50.14-25.12m-50.14 25.12.25 60.18m0 0-2.13 50.08m2.13-50.08 67.88-14.59m-67.88 14.59 49.89-85.3m-52.02 135.38 80.27 17.06m-80.27-17.06 52.4 76.86m-52.4-76.86 70.01-64.67m12.03-234.36 34.15-23.6m-34.15 23.6L349.64 35m8.75-56.48 44.41 41.35m-44.41-41.35L458-20.05m-99.61-1.43-4 109.16m4-109.16 57.77 110.69M349.64 35l4.75 52.68M349.64 35l53.16-15.13M349.64 35l66.52 54.21m-61.77-1.53-26.02 54.49m26.02-54.49 61.77 1.53m-61.77-1.53 36.74 55.55m-36.74-55.55 48.41-67.81m-56.44 193.01 62.96-4.19m-62.96 4.19-17.99-70.71m17.99 70.71-68.13-45.59m68.13 45.59 10.26 81.73m-10.26-81.73 44.77-69.65m-34.51 151.38 44.61-12.43m-44.61 12.43 34.98 51.13m-34.98-51.13-27.87 59.8m0 0 62.85-8.67m-62.85 8.67 72.48-72.23m-8.69-327.26 10.26 64.95m-10.26-64.95L458-20.05m-65.46-25.03L349.64 35m42.9-80.08 88.35 60.98m-64.73 73.31 48.69.82m-48.69-.82-25.03 54.02m0 0-62.76-1.06m62.76 1.06 62.98 5.79m-62.98-5.79 18.19 65.46m0 0 58.7-3.59m-58.7 3.59-8.09 73.49m0 0 62.04-2m-62.04 2-9.63 63.56m0 0 63.45 3.15m-63.45-3.15 71.67-65.56m-71.67 65.56-115.25-68.19M458-20.05l22.89 35.95M458-20.05l61.08-15.76M458-20.05l-55.2 39.92m78.09-3.97 55.17 22.12m-71.21 52.01 58.04-6.46m-58.04 6.46-10.74 58.99m10.74-58.99 16.04-74.13m-16.04 74.13 56.74 58.62m-56.74-58.62 71.21-52.01m-81.95 111 13.91 56.08m-13.91-56.08 67.48-.37m-53.57 56.45 50.42 23.6m-50.42-23.6-4.75 75.08m0 0-8.22 68.71m8.22-68.71 73.36 2.61m-17.55-318.6L480.89 15.9m38.19-51.71 16.98 73.83m-16.98-73.83 3.81 119.38m-3.81-119.38-126.54-9.27m126.54 9.27L402.8 19.87m133.26 18.15-13.17 45.55m13.17-45.55L458-20.05m78.06 58.07-14.47 110.63m0 0 1.3-65.08m-1.3 65.08-53.57 56.45m53.57-56.45-3.15 80.05m0 0 18.19 54.09m-18.19-54.09-55.17 51.48m73.36 2.61-68.61-77.69" stroke="#132e65" stroke-width="1.5"/><circle r="5" cx="-41.64" cy="210.86" fill="#132e65"/><circle r="5" cx="-16.36" cy="292.82" fill="#132e65"/><circle r="5" cx="-43.66" cy="354.25" fill="#132e65"/><circle r="5" cx="21.77" cy="203.6" fill="#132e65"/><circle r="5" cx="24.59" cy="289.13" fill="#132e65"/><circle r="5" cx="41.66" cy="337.73" fill="#132e65"/><circle r="5" cx="86.18" cy="214.1" fill="#132e65"/><circle r="5" cx="89.87" cy="272.76" fill="#132e65"/><circle r="5" cx="79" cy="341.65" fill="#132e65"/><circle r="5" cx="167.21" cy="229.77" fill="#132e65"/><circle r="5" cx="162.5" cy="289.92" fill="#132e65"/><circle r="5" cx="142.13" cy="341.59" fill="#132e65"/><circle r="5" cx="211.22" cy="142.89" fill="#132e65"/><circle r="5" cx="216.08" cy="215.82" fill="#132e65"/><circle r="5" cx="214.94" cy="279.1" fill="#132e65"/><circle r="5" cx="281.4" cy="100.33" fill="#132e65"/><circle r="5" cx="278.23" cy="167.29" fill="#132e65"/><circle r="5" cx="278.48" cy="227.47" fill="#132e65"/><circle r="5" cx="276.35" cy="277.55" fill="#132e65"/><circle r="5" cx="358.39" cy="-21.48" fill="#132e65"/><circle r="5" cx="349.64" cy="35" fill="#132e65"/><circle r="5" cx="354.39" cy="87.68" fill="#132e65"/><circle r="5" cx="328.37" cy="142.17" fill="#132e65"/><circle r="5" cx="346.36" cy="212.88" fill="#132e65"/><circle r="5" cx="356.62" cy="294.61" fill="#132e65"/><circle r="5" cx="328.75" cy="354.41" fill="#132e65"/><circle r="5" cx="392.54" cy="-45.08" fill="#132e65"/><circle r="5" cx="402.8" cy="19.87" fill="#132e65"/><circle r="5" cx="416.16" cy="89.21" fill="#132e65"/><circle r="5" cx="391.13" cy="143.23" fill="#132e65"/><circle r="5" cx="409.32" cy="208.69" fill="#132e65"/><circle r="5" cx="401.23" cy="282.18" fill="#132e65"/><circle r="5" cx="391.6" cy="345.74" fill="#132e65"/><circle r="5" cx="458" cy="-20.05" fill="#132e65"/><circle r="5" cx="480.89" cy="15.9" fill="#132e65"/><circle r="5" cx="464.85" cy="90.03" fill="#132e65"/><circle r="5" cx="454.11" cy="149.02" fill="#132e65"/><circle r="5" cx="468.02" cy="205.1" fill="#132e65"/><circle r="5" cx="463.27" cy="280.18" fill="#132e65"/><circle r="5" cx="455.05" cy="348.89" fill="#132e65"/><circle r="5" cx="519.08" cy="-35.81" fill="#132e65"/><circle r="5" cx="536.06" cy="38.02" fill="#132e65"/><circle r="5" cx="522.89" cy="83.57" fill="#132e65"/><circle r="5" cx="521.59" cy="148.65" fill="#132e65"/><circle r="5" cx="518.44" cy="228.7" fill="#132e65"/><circle r="5" cx="536.63" cy="282.79" fill="#132e65"/><path d="m-46.65 287.86 18.7 47.25m-18.7-47.25 69.56-13.72m-69.56 13.72 91.66 60.51m-91.66-60.51 135.95 1.86m-135.95-1.86 127 50.55m0 0-35.34 9.96m35.34-9.96 8.95-48.69m-8.95 48.69-57.44-64.27m57.44 64.27 90.8 13.31m-90.8-13.31-108.3-3.3m108.3 3.3 90.74-64.26m45.55 81.06-45.49-3.49m45.49 3.49 53.41-5.72m-53.41 5.72-3.24-79.14m191.71 13.13.66 49.56m-.66-49.56 51.6-19.45m-51.6 19.45-64.15 5.1m64.15-5.1-1.69-77.38m1.69 77.38-67.45 44.29m67.45-44.29 78.35 47.97m-77.69 1.59-68.11-5.27m68.11 5.27 77.69-1.59m-77.69 1.59-64.81-44.46m64.81 44.46 50.94-69.01m67.75-181.11 14.04-47m-14.04 47-46.48-45.7m46.48 45.7-63.43 68.98m78.98 122.83-13.57 68.39m13.57-68.39-3.15-75.91m3.15 75.91-56.55 56.72m56.55-56.72-83.3-10.7m83.3 10.7-72.31-71.1m72.31 71.1-134.9 8.75m121.33 59.64-42.98-11.67m-511.41-2.06 72.96 13.26m-72.96-13.26 50.86-60.97m-50.86 60.97L89.3 289.72m-66.39-15.58 66.39 15.58m-66.39-15.58 22.1 74.23m0 0 44.29-58.65m0 0 81.79-15.57M89.3 289.72l81.85 62m-.06-77.57 42.31 1.92m-42.31-1.92.06 77.57m-.06-77.57 45.38-63.9m-45.38 63.9 45.55 81.06m-45.49-3.49 42.25-75.65m3.07-65.82-3.07 65.82m3.07-65.82 69.29-4.37m0 0 70.38 1.74m-70.38-1.74 66.19-46.01m-81.9 189.62 67.61-16m-67.61 16 70.91-55.19m-70.91 55.19-56.65-73.42m56.65 73.42-98.9 2.23m98.9-2.23-98.96-75.34m180.86-114.28 4.19 47.75m-4.19-47.75 55.52-10.46m-55.52 10.46 51.47 51.95m-51.47-51.95 52.94-74.68m-52.94 74.68 109.08-2.25m-104.89 50 47.28 4.2m-47.28-4.2 51.33-58.21m-51.33 58.21-15.18 86.68m0 0-3.3 39.19M407.2-39.84l48.67 16.66M407.2-39.84l70.78 82.78m-73.09 42.25 2.58 64.22m-2.58-64.22 73.09-42.25m-73.09 42.25 56.14 72.43m-56.14-72.43 119.57 3.45m-119.57-3.45 50.98-108.37m-48.4 172.59 53.56 8.21m-53.56-8.21-4.05 62.41m0 0 64.28-2.47M455.87-23.18l68.07 1.38m-68.07-1.38 22.11 66.12m-22.11-66.12 82.63 64.82m-60.52 1.3 60.52-1.3m-60.52 1.3 45.96-64.74m-62.91 179.42 6.67 51.73m-6.67-51.73-57.61 54.2m64.28-2.47-10.99 60.4m0 0 26.75 67.42m-26.75-67.42-53.29-57.93M523.94-21.8l14.56 63.44M523.94-21.8l.52 110.44m12.4 115.9-69.16 4.81m69.16-4.81-75.83-46.92m75.83 46.92-80.15 65.21" stroke="hsl(228.5, 77.2%, 51.5%)" stroke-width="1.5"/><circle r="25" cx="-46.65" cy="287.86" fill="url(&quot;#b&quot;)"/><circle r="25" cx="80.35" cy="338.41" fill="url(&quot;#b&quot;)"/><circle r="25" cx="216.64" cy="355.21" fill="url(&quot;#b&quot;)"/><circle r="25" cx="405.11" cy="289.2" fill="url(&quot;#b&quot;)"/><circle r="25" cx="405.77" cy="338.76" fill="url(&quot;#b&quot;)"/><circle r="25" cx="524.46" cy="88.64" fill="url(&quot;#b&quot;)"/><circle r="25" cx="540.01" cy="280.45" fill="url(&quot;#b&quot;)"/><circle r="25" cx="526.44" cy="348.84" fill="url(&quot;#b&quot;)"/><circle r="5" cx="-27.95" cy="335.11" fill="#8b9ad9"/><circle r="5" cx="22.91" cy="274.14" fill="#8b9ad9"/><circle r="5" cx="45.01" cy="348.37" fill="#8b9ad9"/><circle r="5" cx="89.3" cy="289.72" fill="#8b9ad9"/><circle r="5" cx="171.09" cy="274.15" fill="#8b9ad9"/><circle r="5" cx="171.15" cy="351.72" fill="#8b9ad9"/><circle r="5" cx="216.47" cy="210.25" fill="#8b9ad9"/><circle r="5" cx="213.4" cy="276.07" fill="#8b9ad9"/><circle r="5" cx="285.76" cy="205.88" fill="#8b9ad9"/><circle r="5" cx="270.05" cy="349.49" fill="#8b9ad9"/><circle r="5" cx="351.95" cy="159.87" fill="#8b9ad9"/><circle r="5" cx="356.14" cy="207.62" fill="#8b9ad9"/><circle r="5" cx="340.96" cy="294.3" fill="#8b9ad9"/><circle r="5" cx="337.66" cy="333.49" fill="#8b9ad9"/><circle r="5" cx="407.2" cy="-39.84" fill="#8b9ad9"/><circle r="5" cx="404.89" cy="85.19" fill="#8b9ad9"/><circle r="5" cx="407.47" cy="149.41" fill="#8b9ad9"/><circle r="5" cx="403.42" cy="211.82" fill="#8b9ad9"/><circle r="5" cx="455.87" cy="-23.18" fill="#8b9ad9"/><circle r="5" cx="477.98" cy="42.94" fill="#8b9ad9"/><circle r="5" cx="461.03" cy="157.62" fill="#8b9ad9"/><circle r="5" cx="467.7" cy="209.35" fill="#8b9ad9"/><circle r="5" cx="456.71" cy="269.75" fill="#8b9ad9"/><circle r="5" cx="483.46" cy="337.17" fill="#8b9ad9"/><circle r="5" cx="523.94" cy="-21.8" fill="#8b9ad9"/><circle r="5" cx="538.5" cy="41.64" fill="#8b9ad9"/><circle r="5" cx="536.86" cy="204.54" fill="#8b9ad9"/></g><defs><radialGradient id="b"><stop stop-color="#fff" offset=".1"/><stop stop-color="#1735b3" offset=".2"/><stop stop-color="rgba(23, 53, 179, 0)" offset="1"/></radialGradient><mask id="a"><path fill="#fff" d="M0 0h500v300H0z"/></mask></defs></svg>