<svg xmlns="http://www.w3.org/2000/svg" viewBox="0 0 800 800" opacity=".1"><defs><linearGradient x1="50%" y1="0%" x2="50%" y2="100%" id="a"><stop stop-color="hsl(265, 55%, 30%)" offset="45%"/><stop stop-color="hsl(265, 55%, 60%)" offset="100%"/></linearGradient></defs><g stroke="url(#a)" fill="none"><path d="M864.373-681.95c253.823 469.787 694.444 1541.98 479.144 2030.623s-1120.181 530.93-1512.584 314.866-300.865-909.534-370.951-1351.972c-70.087-442.439-104.044-518.008 34.536-771.732S-160.22-860.104 125.167-906.31s485.383-245.43 739.206 224.358 694.444 1541.98 479.144 2030.624"/><path d="M858.342-667.9c250.527 463.687 685.425 1521.955 472.921 2004.253S225.63 1860.387-161.677 1647.129-458.634 749.407-527.81 312.715s-102.693-511.28 34.087-761.71c136.78-250.428 340.779-394.744 622.46-440.35 281.68-45.604 479.079-242.241 729.605 221.445s685.425 1521.955 472.921 2004.253"/><path d="M852.312-653.848c247.23 457.585 676.406 1501.929 466.698 1977.88S227.924 1841.172-154.287 1630.72c-382.21-210.451-293.05-885.909-361.315-1316.855-68.266-430.947-101.342-504.553 33.639-751.687 134.98-247.134 336.294-389.55 614.268-434.556s472.777-239.055 720.007 218.53 676.406 1501.93 466.698 1977.881"/><path d="M846.28-639.797c243.934 451.485 667.388 1481.903 460.476 1951.509S230.22 1821.956-146.896 1614.31-436.038 740.213-503.394 315.012c-67.356-425.2-99.99-497.825 33.19-741.664 133.181-243.839 331.811-384.357 606.079-428.762s466.472-235.868 710.406 215.617 667.387 1481.903 460.475 1951.509"/><path d="M840.25-625.746c240.637 445.384 658.368 1461.878 454.253 1925.137s-1061.99 503.349-1434.009 298.51c-372.018-204.84-285.235-862.286-351.68-1281.74-66.446-419.455-98.64-491.099 32.742-731.642 131.381-240.544 327.327-379.163 597.888-422.968s460.169-232.68 700.806 212.703 658.368 1461.878 454.253 1925.137"/><path d="M834.22-611.694c237.34 439.282 649.349 1441.851 448.03 1898.765S234.806 1783.524-132.116 1581.49-413.444 731.017-478.979 317.308c-65.535-413.708-97.288-484.37 32.293-721.62C-317.104-641.56-123.843-778.28 143.012-821.485s453.865-229.493 691.206 209.79c237.34 439.282 649.35 1441.851 448.03 1898.765"/><path d="M828.188-597.643c234.045 433.181 640.331 1421.826 441.808 1872.394s-1032.894 489.558-1394.72 290.33-277.42-838.66-342.046-1246.623-95.937-477.644 31.845-711.597c127.782-233.954 318.359-368.775 581.507-411.38 263.149-42.605 447.562-226.305 681.606 206.876 234.045 433.181 640.331 1421.826 441.808 1872.394"/><path d="M822.157-583.592c230.748 427.08 631.313 1401.8 435.585 1846.022-195.727 444.222-1018.346 482.663-1375.076 286.242-356.73-196.422-273.513-826.85-337.228-1229.066s-94.586-470.916 31.396-701.574c125.982-230.659 313.875-363.58 573.318-405.586 259.442-42.005 441.257-223.118 672.005 203.962s631.313 1401.8 435.585 1846.022"/><path d="M816.127-569.54c227.451 420.978 622.293 1381.774 429.362 1819.65-192.931 437.875-1003.799 475.768-1355.433 282.152s-269.605-815.037-332.41-1211.507-93.234-464.19 30.948-691.552 309.39-358.387 565.127-399.792 434.954-219.93 662.406 201.049c227.451 420.978 622.293 1381.774 429.362 1819.65"/><path d="M810.096-555.49c224.155 414.879 613.275 1361.75 423.14 1793.28-190.136 431.529-989.251 468.872-1335.79 278.062-346.537-190.81-265.697-803.224-327.592-1193.949s-91.883-457.461 30.5-681.53C-277.265-583.693-94.74-712.818 157.29-753.623c252.03-40.804 428.65-216.743 652.806 198.135 224.155 414.878 613.275 1361.749 423.14 1793.278"/><path d="M804.065-541.438C1024.924-132.66 1408.32 800.285 1220.982 1225.47c-187.34 425.183-974.703 461.977-1316.145 273.974-341.441-188.004-261.79-791.413-322.775-1176.391-60.984-384.98-90.532-450.734 30.05-671.507 120.585-220.774 300.425-348 548.748-388.206 248.324-40.204 422.347-213.555 643.206 195.221S1408.32 800.285 1220.982 1225.47"/><path d="M798.034-527.387c217.563 402.676 595.237 1321.698 410.694 1740.535-184.543 418.838-960.155 455.083-1296.5 269.885-336.346-185.197-257.884-779.6-317.958-1158.833s-89.18-444.007 29.602-661.484 295.94-342.805 540.557-382.41c244.617-39.604 416.043-210.368 633.605 192.307 217.563 402.676 595.237 1321.698 410.694 1740.535"/><path d="M792.003-513.335c214.266 396.574 586.219 1301.672 404.472 1714.163S250.868 1649.015-80.382 1466.624s-253.976-767.789-313.14-1141.275-87.83-437.28 29.154-651.462 291.455-337.61 532.366-376.615c240.91-39.005 409.74-207.181 624.005 189.393 214.266 396.574 586.219 1301.672 404.472 1714.163"/><path d="M785.972-499.284c210.97 390.473 577.2 1281.646 398.25 1687.791-178.951 406.146-931.06 441.292-1257.213 261.707-326.153-179.586-250.07-755.976-308.323-1123.717s-86.478-430.552 28.705-641.44c115.184-210.887 286.972-332.416 524.176-370.82 237.205-38.405 403.436-203.994 614.405 186.48 210.97 390.472 577.2 1281.645 398.25 1687.79"/><path d="M779.942-485.232c207.673 384.371 568.18 1261.62 392.026 1661.42-176.155 399.798-916.512 434.396-1237.569 257.616S-311.762 689.64-369.106 327.646C-426.449-34.35-454.233-96.18-340.849-303.771s282.487-327.223 515.985-365.027c233.499-37.805 397.132-200.806 604.806 183.566 207.673 384.371 568.18 1261.62 392.026 1661.42"/><path d="M773.91-471.181c204.378 378.27 559.163 1241.594 385.805 1635.048C986.356 1557.32 257.75 1591.368-58.21 1417.395-374.171 1243.42-300.465 685.043-356.898 328.794s-83.776-417.097 27.808-621.395c111.584-204.297 278.004-322.028 507.796-359.232s390.828-197.62 595.205 180.652c204.377 378.27 559.162 1241.594 385.804 1635.048"/><path d="M767.88-457.13c201.08 372.17 550.144 1221.57 379.581 1608.676-170.562 387.108-887.416 420.607-1198.28 249.44-310.866-171.168-238.348-720.54-293.87-1071.044-55.524-350.503-82.425-410.37 27.359-611.372s273.52-316.834 499.605-353.438C408.36-671.473 566.8-829.3 767.88-457.13s550.144 1221.569 379.581 1608.676"/><path d="M761.85-443.079C959.632-77.01 1302.973 758.464 1135.207 1139.226 967.44 1519.987 262.339 1552.937-43.43 1384.576S-277.87 675.848-332.482 331.09s-81.073-403.642 26.911-601.35C-197.586-467.967-36.535-581.9 185.844-617.904S564.065-809.147 761.85-443.08c197.783 366.07 541.124 1201.544 373.358 1582.306"/><path d="M755.818-429.027C950.306-69.06 1287.924 752.49 1122.954 1126.905c-164.97 374.416-858.32 406.816-1158.993 241.261S-266.57 671.251-320.274 332.239C-373.976-6.77-399.996-64.676-293.81-259.088s264.552-306.446 483.225-341.85c218.672-35.404 371.917-188.057 566.404 171.91C950.306-69.06 1287.924 752.49 1122.954 1126.906"/><path d="M749.788-414.976C940.978-61.11 1272.875 746.516 1110.7 1114.584c-162.174 368.07-843.773 399.922-1139.35 237.172-295.576-162.749-226.624-685.103-279.417-1018.368s-78.37-390.188 26.014-581.305c104.386-191.116 260.068-301.252 475.035-336.056 214.966-34.804 365.613-184.87 556.805 168.997C940.978-61.11 1272.875 746.516 1110.7 1114.584"/><path d="M743.757-400.925c187.895 347.765 514.068 1141.466 354.69 1503.19C939.07 1463.987 269.222 1495.29-21.258 1335.346s-222.717-673.291-274.6-1000.81c-51.882-327.52-77.02-383.46 25.566-571.283 102.585-187.821 255.584-296.058 466.844-330.262s359.31-181.682 547.205 166.083 514.068 1141.466 354.69 1503.19"/><path d="M737.726-386.873c184.598 341.664 505.05 1121.44 348.468 1476.817s-814.677 386.13-1100.061 228.993-218.81-661.479-269.783-983.252c-50.972-321.773-75.668-376.733 25.117-561.26s251.1-290.864 458.654-324.468 353.006-178.494 537.605 163.17c184.598 341.664 505.05 1121.44 348.468 1476.817"/><path d="M731.695-372.822C912.997-37.26 1227.726 728.592 1073.94 1077.624c-153.786 349.03-800.129 379.235-1080.417 224.904S-221.38 652.86-271.442 336.833s-74.317-370.005 24.669-551.237S-.157-500.074 203.69-533.078s346.702-175.307 528.004 160.256 496.031 1101.414 342.245 1450.446"/><path d="M725.664-358.77C903.67-29.31 1212.677 722.617 1061.687 1065.302S276.105 1437.643.914 1286.118c-275.192-151.525-210.996-637.855-260.148-948.136C-308.385 27.7-332.2-25.296-235.014-203.233-137.826-381.169 7.12-483.709 207.26-516.113s340.399-172.12 518.404 157.342C903.67-29.309 1212.677 722.618 1061.687 1065.303"/><path d="M719.633-344.72c174.71 323.361 477.994 1061.364 329.8 1397.703C901.24 1389.322 278.4 1418.428 8.304 1269.708-261.79 1120.99-198.784 643.666-247.026 339.13c-48.24-304.535-71.614-356.55 23.772-531.192 95.386-174.641 237.648-275.282 434.083-307.086S544.924-668.08 719.633-344.719c174.71 323.36 477.994 1061.363 329.8 1397.702"/><path d="M713.603-330.668c171.412 317.26 468.974 1041.337 323.577 1371.33-145.398 329.993-756.486 358.55-1021.485 212.637s-203.181-614.23-250.513-913.02c-47.33-298.79-70.263-349.824 23.323-521.17S21.67-450.979 214.398-482.183c192.729-31.203 327.792-165.745 499.205 151.515 171.412 317.26 468.974 1041.337 323.577 1371.33"/><path d="M707.572-316.617C875.688-5.458 1167.528 704.695 1024.927 1028.342c-142.602 323.647-741.939 351.655-1001.842 208.547s-199.274-602.418-245.694-895.462C-269.03 48.384-291.522-1.669-199.735-169.72s228.68-264.894 417.703-295.498 321.487-162.557 489.604 148.601 459.956 1021.312 317.355 1344.959"/><path d="M701.54-302.566C866.362 2.492 1152.479 698.72 1012.674 1016.021s-727.39 344.76-982.197 204.459c-254.808-140.302-195.367-590.607-240.878-877.904s-67.56-336.369 22.426-501.125c89.988-164.756 224.197-259.7 409.513-289.704 185.316-30.003 315.184-159.37 480.004 145.687s450.937 1001.286 311.132 1318.587"/><path d="M695.51-288.514c161.524 298.956 441.92 981.26 304.91 1292.214-137.01 310.955-712.843 337.864-962.554 200.37-249.71-137.496-191.459-578.795-236.06-860.347-44.6-281.551-66.21-329.641 21.978-491.102s219.713-254.506 401.322-283.91c181.61-29.403 308.88-156.182 470.404 142.774s441.919 981.26 304.91 1292.215"/><path d="M689.48-274.463c158.227 292.855 432.9 961.235 298.686 1265.844-134.213 304.609-698.295 330.969-942.91 196.28-244.614-134.69-187.551-566.983-231.241-842.788s-64.86-322.914 21.528-481.08S50.772-385.519 228.675-414.323c177.904-28.803 302.577-152.995 460.804 139.86 158.228 292.855 432.9 961.235 298.687 1265.844"/><path d="M683.448-260.412C838.38 26.342 1107.33 680.798 975.913 979.06c-131.417 298.263-683.747 324.074-923.266 192.19-239.519-131.882-183.644-555.169-226.424-825.229s-63.508-316.186 21.08-471.057c84.588-154.87 210.745-244.118 384.942-272.322 174.197-28.203 296.273-149.807 451.203 136.946C838.38 26.342 1107.33 680.798 975.913 979.06"/><path d="M677.418-246.36C829.052 34.292 1092.28 674.823 963.659 966.74c-128.619 291.917-669.199 317.178-903.621 188.1S-119.7 611.483-161.57 347.17s-62.157-309.46 20.632-461.035C-58.15-265.44 65.323-352.789 235.814-380.393c170.49-27.603 289.97-146.62 441.604 134.033C829.052 34.292 1092.28 674.823 963.659 966.74"/><path d="M671.387-232.309C819.725 42.242 1077.23 668.848 951.406 954.42s-654.652 310.284-883.978 184.013c-229.327-126.271-175.83-531.546-216.79-790.114s-60.804-302.732 20.184-451.012 201.777-233.73 368.561-260.733S523.05-506.86 671.387-232.31 1077.23 668.848 951.406 954.42"/><path d="M665.356-218.258C810.398 50.192 1062.181 662.874 939.152 942.1S299.05 1245.487 74.818 1122.022C-149.412 998.557-97.104 602.29-137.153 349.467s-59.454-296.005 19.734-440.99c79.19-144.985 197.293-228.536 360.371-254.94 163.078-26.402 277.362-140.245 422.404 128.205S1062.181 662.874 939.152 942.1"/><path d="M659.325-204.206C801.071 58.143 1047.131 656.9 926.9 929.778c-120.233 272.88-625.556 296.493-844.69 175.834S-85.806 597.691-124.945 350.615-183.048 61.338-105.66-80.352 87.15-303.694 246.52-329.497c159.372-25.803 271.06-137.059 412.804 125.29C801.071 58.144 1047.131 656.9 926.9 929.779"/><path d="M653.295-190.155c138.448 256.248 378.787 841.08 261.35 1107.613S303.638 1207.056 89.6 1089.203s-164.108-496.11-202.337-737.44C-150.967 110.434-169.49 69.215-93.9-69.18c75.59-138.396 188.326-218.149 343.99-243.352s264.755-133.871 403.204 122.377c138.448 256.248 378.787 841.08 261.35 1107.613"/><path d="M647.264-176.104C782.416 74.043 1017.032 644.951 902.392 905.138c-114.64 260.186-596.46 282.702-805.402 167.655s-160.2-484.297-197.52-719.88C-137.847 117.327-155.93 77.09-82.14-58.01s183.841-212.954 335.8-237.557c151.96-24.603 258.451-130.684 393.604 119.463s369.768 821.055 255.128 1081.242"/><path d="M641.233-162.052c131.856 244.045 360.75 801.028 248.905 1054.87-111.844 253.84-581.912 275.807-785.757 163.566C-99.465 944.143-51.913 583.899-88.321 354.06c-36.409-229.838-54.049-269.095 17.94-400.9s179.358-207.76 327.61-231.763 252.148-127.496 384.004 116.55c131.856 244.045 360.75 801.028 248.905 1054.87"/><path d="M635.202-148.001C763.762 89.943 986.933 633.002 877.885 880.497s-567.364 268.912-766.114 159.477S-40.615 579.301-76.113 355.21-128.811 92.842-58.621-35.668s174.873-202.566 319.42-225.97C405.345-285.04 506.642-385.945 635.202-148 763.762 89.943 986.933 633.002 877.885 880.497"/><path d="M629.171-133.95C754.434 97.894 971.884 627.027 865.631 868.176c-106.251 241.15-552.816 262.017-746.47 155.389C-74.491 916.935-29.316 574.704-63.904 356.358c-34.588-218.347-51.347-255.64 17.044-380.855 68.39-125.215 170.389-197.372 311.229-220.175s239.54-121.121 364.803 110.722C754.434 97.894 971.884 627.027 865.631 868.176"/><path d="M623.14-119.898c121.967 225.742 333.694 740.951 230.238 975.754s-538.269 255.122-726.826 151.299S-18.019 570.106-51.697 357.506s-49.995-248.913 16.595-370.832c66.59-121.92 165.906-192.178 303.04-214.381C405.07-249.91 501.173-345.641 623.14-119.898c121.967 225.742 333.694 740.951 230.238 975.754"/><path d="M617.11-105.847c118.67 219.64 324.674 720.926 224.015 949.382-100.66 228.457-523.721 248.227-707.183 147.21C-49.518 889.728-6.72 565.51-39.489 358.655S-88.133 116.469-23.342-2.155 138.079-189.14 271.507-210.742c133.427-21.602 226.932-114.746 345.603 104.895 118.67 219.64 324.674 720.926 224.015 949.382"/><path d="M611.079-91.796c115.374 213.54 315.656 700.9 217.792 923.011s-509.173 241.332-687.538 143.12C-37.032 876.126 4.576 560.912-27.281 359.804S-74.574 124.345-11.583 9.016s156.938-181.79 286.659-202.793c129.721-21.002 220.629-111.559 336.003 101.981s315.656 700.9 217.792 923.011"/><path d="M605.048-77.745c112.078 207.44 306.637 680.875 211.57 896.64S321.992 1053.33 148.723 957.926C-24.545 862.521 15.874 556.314-15.073 360.951-46.02 165.59-61.015 132.221.177 20.187S152.63-156.41 278.645-176.812 492.97-285.183 605.048-77.745c112.078 207.44 306.637 680.875 211.57 896.64"/><path d="M599.017-63.693c108.781 201.337 297.619 660.848 205.347 870.267-92.271 209.419-480.077 227.541-648.25 134.943C-12.06 848.917 27.172 551.717-2.865 362.1c-30.037-189.616-44.59-222.003 14.801-330.742s147.97-171.403 270.278-191.205S490.236-265.03 599.017-63.693s297.619 660.848 205.347 870.267"/><path d="M592.986-49.642c105.485 195.237 288.6 640.823 199.125 843.896S326.58 1014.9 163.504 925.107 38.47 547.119 9.344 363.249c-29.128-183.87-43.24-215.276 14.352-320.72S167.18-123.68 285.784-142.881c118.602-19.203 201.717-101.997 307.202 93.24 105.485 195.236 288.6 640.822 199.125 843.895"/><path d="M586.955-35.59c102.189 189.135 279.582 620.797 192.902 817.523-86.679 196.727-450.982 213.751-608.962 126.764-157.98-86.986-121.127-366.175-149.344-544.3S-20.337 155.848 35.455 53.7C91.247-48.45 174.457-107.314 289.353-125.917s195.414-98.809 297.602 90.326c102.189 189.136 279.582 620.798 192.902 817.524"/><path d="M580.925-21.54c98.892 183.035 270.562 600.772 186.679 791.153S331.17 976.468 178.285 892.288 61.065 537.924 33.76 365.545C6.453 193.167-6.778 163.725 47.215 64.871S181.733-90.95 292.922-108.952c111.19-18.002 189.11-95.622 288.003 87.413 98.892 183.034 270.562 600.771 186.679 791.152"/><path d="M574.894-7.488c95.595 176.933 261.543 580.746 180.456 764.78-81.087 184.035-421.886 199.96-569.674 118.586S72.363 533.327 45.967 366.694 6.782 171.6 58.974 76.042C111.167-19.517 189.008-74.585 296.491-91.987s182.807-92.434 278.403 84.5c95.595 176.932 261.543 580.745 180.456 764.78"/><path d="M568.863 6.563c92.3 170.832 252.525 560.72 174.234 738.409s-407.339 193.065-550.03 114.497C50.373 780.9 83.66 528.729 58.174 367.842 32.69 206.956 20.341 179.476 70.734 87.212S196.284-58.22 300.06-75.021c103.777-16.801 176.503-89.247 268.802 81.585s252.525 560.72 174.234 738.409"/><path d="M562.832 20.615c89.003 164.73 243.506 540.694 168.011 712.037-75.494 171.342-392.79 186.17-530.386 110.407S94.959 524.132 70.383 368.991 33.9 187.35 82.493 98.384C131.086 9.415 203.56-41.855 303.63-58.056c100.07-16.202 170.2-86.06 259.202 78.67S806.338 561.31 730.843 732.653"/><path d="M556.801 34.666C642.508 193.296 791.29 555.335 718.59 720.33c-72.699 164.998-378.243 179.276-510.743 106.32S106.257 519.535 82.591 370.14 47.46 195.228 94.253 109.555 210.835-25.49 307.199-41.091c96.364-15.602 163.896-82.873 249.602 75.757S791.29 555.335 718.59 720.33"/><path d="M550.77 48.717c82.41 152.529 225.47 500.643 155.566 659.294-69.902 158.65-363.695 172.38-491.098 102.229S117.555 514.937 94.799 371.288s-33.78-168.184 11.213-250.562S218.11-9.124 310.768-24.126 468.36-103.811 550.77 48.717 776.24 549.36 706.336 708.011"/><path d="M544.74 62.769c79.113 146.427 216.45 480.617 149.343 632.921s-349.147 165.485-471.455 98.14c-122.307-67.344-93.776-283.49-115.62-421.394-21.846-137.903-32.43-161.457 10.764-240.54C160.966 52.815 225.386 7.24 314.338-7.16c88.951-14.402 151.288-76.498 230.402 69.93 79.113 146.427 216.45 480.617 149.343 632.921"/><path d="M538.709 76.82c75.817 140.326 207.431 460.591 143.12 606.55-64.31 145.958-334.599 158.59-451.81 94.05-117.211-64.538-89.869-271.678-110.804-403.835s-31.078-154.73 10.316-230.517S232.661 23.605 317.907 9.804c85.245-13.802 144.985-73.31 220.802 67.016s207.431 460.59 143.12 606.55"/><path d="M532.678 90.871c72.52 134.225 198.412 440.566 136.898 580.178S349.524 822.744 237.41 761.011s-85.961-259.867-105.986-386.278c-20.024-126.41-29.727-148.002 9.868-220.494 39.594-72.493 98.646-114.269 180.185-127.47 81.54-13.202 138.681-70.123 211.202 64.102S731.09 531.437 669.576 671.05"/><path d="M526.647 104.922c69.225 128.124 189.394 420.54 130.676 553.807-58.719 133.266-305.504 144.799-412.523 85.872-107.02-58.926-82.054-248.054-101.169-368.72-19.114-120.664-28.375-141.274 9.42-210.472 37.794-69.197 94.162-109.074 171.995-121.675 77.832-12.602 132.377-66.936 201.601 61.188 69.225 128.124 189.394 420.54 130.676 553.807"/><path d="M520.616 118.974c65.928 122.023 180.375 400.514 124.453 527.435S354.113 784.312 252.19 728.192s-78.146-236.243-96.35-351.162c-18.205-114.919-27.025-134.547 8.97-200.45S254.488 72.7 328.615 60.7c74.125-12.002 126.073-63.75 192.001 58.274S700.991 519.488 645.07 646.409"/><path d="M514.586 133.025c62.631 115.922 171.356 380.489 118.23 501.063S356.407 765.097 259.58 711.782s-74.24-224.43-91.534-333.603-25.673-127.82 8.522-190.428c34.195-62.607 85.195-98.686 155.615-110.087s119.77-60.56 182.402 55.361c62.631 115.922 171.356 380.489 118.23 501.063"/><path d="M508.555 147.076C567.89 256.897 670.892 507.54 620.562 621.768s-261.86 124.113-353.59 73.605c-91.731-50.509-70.333-212.619-86.717-316.046-16.383-103.427-24.322-121.092 8.074-180.405 32.395-59.312 80.71-93.492 147.424-104.293s113.467-57.373 172.802 52.447C567.89 256.897 670.892 507.54 620.562 621.768"/><path d="M502.524 161.128c56.039 103.72 153.319 340.437 105.785 448.32s-247.313 117.217-333.947 69.515-66.425-200.806-81.898-298.487c-15.474-97.681-22.971-114.366 7.624-170.383 30.596-56.017 76.227-88.298 139.235-98.499 63.007-10.201 107.162-54.186 163.2 49.534 56.04 103.72 153.32 340.437 105.786 448.32"/><path d="M496.493 175.179c52.743 97.618 144.3 320.411 99.562 421.948-44.737 101.536-232.764 110.323-314.303 65.426s-62.517-188.994-77.08-280.929c-14.564-91.935-21.62-107.638 7.176-160.36s71.743-83.104 131.044-92.705c59.3-9.601 100.859-50.998 153.601 46.62s144.3 320.411 99.562 421.948"/><path d="M490.462 189.23c49.446 91.517 135.281 300.386 93.34 395.576s-218.217 103.428-294.66 61.338c-76.441-42.09-58.61-177.182-72.262-263.371-13.654-86.19-20.269-100.91 6.727-150.338 26.997-49.426 67.26-77.91 122.854-86.91 55.595-9.002 94.555-47.812 144.001 43.705s135.281 300.386 93.34 395.576"/><path d="M484.431 203.282c46.15 85.416 126.263 280.36 87.117 369.204s-203.669 96.533-275.015 57.248c-71.346-39.284-54.702-165.37-67.445-245.813s-18.918-94.183 6.279-140.315 62.775-72.716 114.663-81.117c51.889-8.4 88.252-44.623 134.401 40.793s126.263 280.36 87.117 369.204"/><path d="M478.4 217.333c42.854 79.315 117.244 260.334 80.895 342.833-36.35 82.498-189.121 89.637-255.371 53.159s-50.796-153.558-62.628-228.255-17.566-87.456 5.83-130.293c23.397-42.836 58.291-67.522 106.474-75.323 48.182-7.8 81.947-41.436 124.8 37.879 42.854 79.315 117.244 260.334 80.895 342.833"/><path d="M472.37 231.384c39.557 73.214 108.225 240.309 74.672 316.461-33.554 76.152-174.574 82.742-235.728 49.07s-46.888-141.745-57.81-210.697c-10.923-68.951-16.215-80.728 5.382-120.27 21.597-39.541 53.807-62.328 98.283-69.529s75.644-38.248 115.2 34.965c39.558 73.214 108.226 240.309 74.673 316.461"/><path d="M466.339 245.436c36.26 67.112 99.206 220.282 68.45 290.089-30.758 69.806-160.027 75.847-216.084 44.98s-42.981-129.933-52.993-193.138-14.864-74.001 4.933-110.248 49.324-57.134 90.093-63.735 69.34-35.061 105.601 32.052c36.26 67.112 99.206 220.282 68.45 290.089"/><path d="M460.308 259.487c32.964 61.011 90.188 200.257 62.227 263.717s-145.478 68.952-196.44 40.892-39.073-118.121-48.175-175.58-13.513-67.275 4.485-100.226c17.997-32.951 44.84-51.94 81.902-57.94 37.064-6.001 63.037-31.875 96.001 29.137s90.188 200.257 62.227 263.717"/><path d="M454.277 273.538c29.668 54.91 81.17 180.232 56.004 237.346-25.165 57.114-130.93 62.057-176.795 36.802-45.866-25.254-35.166-106.309-43.358-158.022-8.192-51.714-12.161-60.547 4.036-90.203 16.198-29.656 40.356-46.746 73.713-52.146 33.357-5.401 56.733-28.687 86.4 26.223s81.17 180.232 56.004 237.346"/><path d="M448.247 287.59c26.37 48.809 72.15 160.205 49.78 210.973-22.368 50.769-116.382 55.162-157.15 32.714-40.77-22.448-31.26-94.497-38.541-140.465-7.282-45.967-10.81-53.819 3.588-80.18 14.398-26.36 35.871-41.552 65.522-46.352 29.65-4.801 50.43-25.5 76.8 23.31 26.372 48.809 72.15 160.205 49.782 210.973"/><path d="M442.216 301.64c23.075 42.709 63.131 140.18 43.558 184.603-19.573 44.422-101.834 48.266-137.507 28.624s-27.352-82.685-33.723-122.906c-6.372-40.222-9.459-47.092 3.14-70.158s31.387-36.358 57.331-40.558 44.126-22.312 67.2 20.396c23.076 42.708 63.132 140.18 43.56 184.602"/><path d="M436.185 315.692c19.778 36.607 54.112 120.154 37.336 158.23-16.777 38.077-87.287 41.372-117.864 24.536-30.577-16.837-23.444-70.873-28.905-105.349s-8.108-40.364 2.69-60.135c10.8-19.77 26.905-31.164 49.142-34.764s37.823-19.125 57.6 17.482c19.78 36.607 54.113 120.154 37.337 158.23"/><path d="M430.154 329.743c16.482 30.506 45.094 100.129 31.113 131.86-13.98 31.73-72.739 34.475-98.22 20.445s-19.536-59.06-24.087-87.79-6.756-33.637 2.242-50.113c9-16.475 22.42-25.97 40.952-28.97s31.518-15.937 48 14.568c16.482 30.506 45.094 100.129 31.113 131.86"/><path d="M424.123 343.795c13.186 24.404 36.075 80.103 24.89 105.487-11.184 25.384-58.19 27.58-78.575 16.356s-15.63-47.248-19.27-70.232c-3.641-22.984-5.405-26.91 1.794-40.09s17.936-20.776 32.76-23.176c14.826-2.4 25.216-12.75 38.401 11.655 13.186 24.404 36.075 80.103 24.89 105.487"/><path d="M418.092 357.846c9.89 18.303 27.057 60.077 18.668 79.115s-43.643 20.686-58.931 12.268c-15.289-8.418-11.722-35.437-14.453-52.674s-4.054-20.183 1.345-30.068c5.4-9.885 13.452-15.582 24.571-17.382s18.911-9.562 28.8 8.741c9.89 18.303 27.057 60.077 18.668 79.115"/><path d="M412.062 371.897c6.592 12.203 18.037 40.052 12.445 52.744s-29.096 13.79-39.288 8.178-7.815-23.624-9.635-35.116-2.703-13.455.897-20.045 8.968-10.388 16.38-11.588c7.413-1.2 12.608-6.375 19.2 5.827 6.593 12.203 18.038 40.052 12.446 52.744"/><path d="M406.03 385.949c3.297 6.1 9.02 20.025 6.223 26.371s-14.547 6.896-19.643 4.09c-5.097-2.806-3.908-11.813-4.818-17.558-.91-5.746-1.351-6.728.448-10.023 1.8-3.295 4.484-5.194 8.19-5.794 3.707-.6 6.304-3.187 9.6 2.914 3.297 6.1 9.02 20.025 6.223 26.371"/></g></svg>