<svg xmlns="http://www.w3.org/2000/svg" viewBox="0 0 1422 800" opacity=".1"><g stroke="hsl(231, 100%, 64%)" fill="none"><path opacity=".05" d="m0 0 20 20m0-20 20 20M60 0 40 20M80 0 60 20m40-20L80 20m20-20 20 20m0-20 20 20m0-20 20 20m0-20 20 20m0-20 20 20m0-20 20 20m20-20-20 20m40-20-20 20m40-20-20 20m20-20 20 20m0-20 20 20m0-20 20 20m0-20 20 20m20-20-20 20m20-20 20 20m0-20 20 20m0-20 20 20m20-20-20 20m20-20 20 20m0-20 20 20m0-20 20 20m0-20 20 20m20-20-20 20m20-20 20 20m0-20 20 20m20-20-20 20m20-20 20 20m0-20 20 20m0-20 20 20m20-20-20 20m40-20-20 20m20-20 20 20m20-20-20 20m40-20-20 20m20-20 20 20m20-20-20 20m20-20 20 20m20-20-20 20m20-20 20 20m20-20-20 20m40-20-20 20m20-20 20 20m0-20 20 20m0-20 20 20m20-20-20 20m20-20 20 20m0-20 20 20m20-20-20 20m20-20 20 20m0-20 20 20m20-20-20 20m40-20-20 20m40-20-20 20m40-20-20 20m20-20 20 20m0-20 20 20m0-20 20 20m20-20-20 20m40-20-20 20m20-20 20 20m0-20 20 20m20-20-20 20m40-20-20 20m40-20-20 20m20-20 20 20m0-20 20 20m20-20-20 20"/><path opacity=".07" d="M20 20 0 40m20-20 20 20m0-20 20 20m0-20 20 20m0-20 20 20m20-20-20 20m40-20-20 20m20-20 20 20m20-20-20 20m20-20 20 20m20-20-20 20m20-20 20 20m20-20-20 20m20-20 20 20m0-20 20 20m20-20-20 20m20-20 20 20m20-20-20 20m20-20 20 20m0-20 20 20m20-20-20 20m20-20 20 20m0-20 20 20m0-20 20 20m20-20-20 20m20-20 20 20m0-20 20 20m0-20 20 20m0-20 20 20m20-20-20 20m40-20-20 20m40-20-20 20m20-20 20 20m20-20-20 20m20-20 20 20m20-20-20 20m20-20 20 20m0-20 20 20m20-20-20 20m40-20-20 20m40-20-20 20m20-20 20 20m20-20-20 20m20-20 20 20m0-20 20 20m20-20-20 20m20-20 20 20m0-20 20 20m0-20 20 20m0-20 20 20m0-20 20 20m20-20-20 20m20-20 20 20m0-20 20 20m20-20-20 20m40-20-20 20m20-20 20 20m0-20 20 20m0-20 20 20m0-20 20 20m20-20-20 20m40-20-20 20m20-20 20 20m20-20-20 20m20-20 20 20m0-20 20 20m20-20-20 20m20-20 20 20m0-20 20 20m0-20 20 20m0-20 20 20m0-20 20 20"/><path opacity=".1" d="m0 40 20 20m0-20 20 20m20-20L40 60m20-20 20 20m0-20 20 20m20-20-20 20m40-20-20 20m40-20-20 20m20-20 20 20m0-20 20 20m0-20 20 20m0-20 20 20m0-20 20 20m20-20-20 20m40-20-20 20m40-20-20 20m40-20-20 20m20-20 20 20m0-20 20 20m0-20 20 20m0-20 20 20m20-20-20 20m20-20 20 20m20-20-20 20m40-20-20 20m40-20-20 20m20-20 20 20m20-20-20 20m20-20 20 20m20-20-20 20m20-20 20 20m0-20 20 20m0-20 20 20m0-20 20 20m20-20-20 20m20-20 20 20m20-20-20 20m20-20 20 20m0-20 20 20m20-20-20 20m20-20 20 20m0-20 20 20m0-20 20 20m0-20 20 20m20-20-20 20m20-20 20 20m0-20 20 20m0-20 20 20m20-20-20 20m20-20 20 20m20-20-20 20m40-20-20 20m20-20 20 20m0-20 20 20m0-20 20 20m0-20 20 20m20-20-20 20m20-20 20 20m20-20-20 20m40-20-20 20m20-20 20 20m0-20 20 20m0-20 20 20m20-20-20 20m20-20 20 20m0-20 20 20m0-20 20 20m20-20-20 20m40-20-20 20m40-20-20 20m20-20 20 20m0-20 20 20"/><path opacity=".12" d="M20 60 0 80m20-20 20 20m20-20L40 80m40-20L60 80m40-20L80 80m40-20-20 20m20-20 20 20m20-20-20 20m40-20-20 20m40-20-20 20m20-20 20 20m20-20-20 20m20-20 20 20m0-20 20 20m0-20 20 20m20-20-20 20m20-20 20 20m20-20-20 20m20-20 20 20m20-20-20 20m20-20 20 20m20-20-20 20m20-20 20 20m0-20 20 20m20-20-20 20m20-20 20 20m0-20 20 20m0-20 20 20m0-20 20 20m0-20 20 20m0-20 20 20m0-20 20 20m20-20-20 20m40-20-20 20m20-20 20 20m0-20 20 20m20-20-20 20m40-20-20 20m20-20 20 20m20-20-20 20m20-20 20 20m0-20 20 20m20-20-20 20m40-20-20 20m20-20 20 20m20-20-20 20m20-20 20 20m0-20 20 20m0-20 20 20m0-20 20 20m0-20 20 20m0-20 20 20m20-20-20 20m40-20-20 20m20-20 20 20m0-20 20 20m20-20-20 20m40-20-20 20m40-20-20 20m40-20-20 20m40-20-20 20m20-20 20 20m20-20-20 20m20-20 20 20m0-20 20 20m20-20-20 20m20-20 20 20m20-20-20 20m20-20 20 20m20-20-20 20m20-20 20 20m20-20-20 20"/><path opacity=".15" d="m0 80 20 20m0-20 20 20m0-20 20 20m20-20-20 20m20-20 20 20m0-20 20 20m20-20-20 20m40-20-20 20m20-20 20 20m20-20-20 20m40-20-20 20m20-20 20 20m0-20 20 20m20-20-20 20m20-20 20 20m20-20-20 20m20-20 20 20m0-20 20 20m20-20-20 20m20-20 20 20m20-20-20 20m20-20 20 20m0-20 20 20m0-20 20 20m0-20 20 20m20-20-20 20m20-20 20 20m20-20-20 20m20-20 20 20m20-20-20 20m40-20-20 20m40-20-20 20m20-20 20 20m20-20-20 20m40-20-20 20m20-20 20 20m0-20 20 20m0-20 20 20m0-20 20 20m0-20 20 20m0-20 20 20m20-20-20 20m40-20-20 20m20-20 20 20m0-20 20 20m0-20 20 20m0-20 20 20m0-20 20 20m0-20 20 20m0-20 20 20m20-20-20 20m40-20-20 20m20-20 20 20m20-20-20 20m20-20 20 20m0-20 20 20m20-20-20 20m20-20 20 20m20-20-20 20m20-20 20 20m0-20 20 20m20-20-20 20m40-20-20 20m20-20 20 20m0-20 20 20m0-20 20 20m0-20 20 20m20-20-20 20m40-20-20 20m20-20 20 20m0-20 20 20m0-20 20 20"/><path opacity=".17" d="M20 100 0 120m20-20 20 20m20-20-20 20m40-20-20 20m20-20 20 20m20-20-20 20m20-20 20 20m20-20-20 20m40-20-20 20m20-20 20 20m20-20-20 20m20-20 20 20m20-20-20 20m40-20-20 20m40-20-20 20m20-20 20 20m20-20-20 20m40-20-20 20m20-20 20 20m20-20-20 20m20-20 20 20m0-20 20 20m0-20 20 20m20-20-20 20m20-20 20 20m0-20 20 20m0-20 20 20m0-20 20 20m0-20 20 20m0-20 20 20m0-20 20 20m0-20 20 20m0-20 20 20m20-20-20 20m20-20 20 20m0-20 20 20m0-20 20 20m20-20-20 20m20-20 20 20m20-20-20 20m40-20-20 20m20-20 20 20m20-20-20 20m40-20-20 20m20-20 20 20m0-20 20 20m0-20 20 20m0-20 20 20m0-20 20 20m20-20-20 20m40-20-20 20m20-20 20 20m0-20 20 20m0-20 20 20m0-20 20 20m20-20-20 20m40-20-20 20m20-20 20 20m0-20 20 20m0-20 20 20m0-20 20 20m0-20 20 20m20-20-20 20m20-20 20 20m20-20-20 20m20-20 20 20m0-20 20 20m0-20 20 20m0-20 20 20m0-20 20 20m0-20 20 20m20-20-20 20"/><path opacity=".19" d="m0 120 20 20m0-20 20 20m0-20 20 20m0-20 20 20m20-20-20 20m20-20 20 20m0-20 20 20m20-20-20 20m20-20 20 20m20-20-20 20m20-20 20 20m0-20 20 20m0-20 20 20m20-20-20 20m20-20 20 20m20-20-20 20m20-20 20 20m0-20 20 20m20-20-20 20m40-20-20 20m40-20-20 20m20-20 20 20m0-20 20 20m0-20 20 20m20-20-20 20m40-20-20 20m20-20 20 20m20-20-20 20m40-20-20 20m40-20-20 20m40-20-20 20m40-20-20 20m20-20 20 20m20-20-20 20m20-20 20 20m20-20-20 20m20-20 20 20m0-20 20 20m0-20 20 20m20-20-20 20m20-20 20 20m0-20 20 20m20-20-20 20m20-20 20 20m20-20-20 20m20-20 20 20m20-20-20 20m20-20 20 20m20-20-20 20m20-20 20 20m0-20 20 20m20-20-20 20m20-20 20 20m20-20-20 20m40-20-20 20m20-20 20 20m20-20-20 20m40-20-20 20m20-20 20 20m0-20 20 20m0-20 20 20m0-20 20 20m0-20 20 20m20-20-20 20m20-20 20 20m0-20 20 20m0-20 20 20m0-20 20 20m0-20 20 20m20-20-20 20m40-20-20 20m20-20 20 20"/><path opacity=".22" d="M20 140 0 160m40-20-20 20m20-20 20 20m0-20 20 20m0-20 20 20m0-20 20 20m20-20-20 20m40-20-20 20m40-20-20 20m20-20 20 20m20-20-20 20m20-20 20 20m20-20-20 20m20-20 20 20m20-20-20 20m20-20 20 20m0-20 20 20m20-20-20 20m20-20 20 20m0-20 20 20m20-20-20 20m20-20 20 20m0-20 20 20m0-20 20 20m20-20-20 20m40-20-20 20m20-20 20 20m20-20-20 20m40-20-20 20m40-20-20 20m20-20 20 20m0-20 20 20m20-20-20 20m20-20 20 20m20-20-20 20m40-20-20 20m20-20 20 20m20-20-20 20m40-20-20 20m20-20 20 20m20-20-20 20m20-20 20 20m0-20 20 20m0-20 20 20m0-20 20 20m0-20 20 20m0-20 20 20m20-20-20 20m20-20 20 20m20-20-20 20m20-20 20 20m0-20 20 20m0-20 20 20m0-20 20 20m0-20 20 20m0-20 20 20m20-20-20 20m40-20-20 20m40-20-20 20m40-20-20 20m40-20-20 20m20-20 20 20m20-20-20 20m20-20 20 20m0-20 20 20m0-20 20 20m0-20 20 20m0-20 20 20m0-20 20 20m0-20 20 20m20-20-20 20m20-20 20 20"/><path opacity=".24" d="m0 160 20 20m20-20-20 20m20-20 20 20m0-20 20 20m0-20 20 20m20-20-20 20m20-20 20 20m20-20-20 20m20-20 20 20m0-20 20 20m20-20-20 20m20-20 20 20m0-20 20 20m0-20 20 20m20-20-20 20m20-20 20 20m0-20 20 20m20-20-20 20m20-20 20 20m20-20-20 20m20-20 20 20m0-20 20 20m20-20-20 20m40-20-20 20m40-20-20 20m20-20 20 20m20-20-20 20m20-20 20 20m0-20 20 20m20-20-20 20m40-20-20 20m40-20-20 20m40-20-20 20m40-20-20 20m20-20 20 20m0-20 20 20m20-20-20 20m20-20 20 20m0-20 20 20m0-20 20 20m0-20 20 20m20-20-20 20m40-20-20 20m20-20 20 20m20-20-20 20m20-20 20 20m20-20-20 20m20-20 20 20m20-20-20 20m20-20 20 20m20-20-20 20m40-20-20 20m20-20 20 20m20-20-20 20m40-20-20 20m20-20 20 20m20-20-20 20m40-20-20 20m20-20 20 20m20-20-20 20m20-20 20 20m0-20 20 20m20-20-20 20m20-20 20 20m20-20-20 20m20-20 20 20m0-20 20 20m0-20 20 20m0-20 20 20m0-20 20 20m0-20 20 20m0-20 20 20"/><path opacity=".26" d="m0 180 20 20m0-20 20 20m20-20-20 20m20-20 20 20m0-20 20 20m0-20 20 20m0-20 20 20m0-20 20 20m0-20 20 20m0-20 20 20m0-20 20 20m0-20 20 20m20-20-20 20m20-20 20 20m20-20-20 20m20-20 20 20m0-20 20 20m0-20 20 20m20-20-20 20m20-20 20 20m0-20 20 20m20-20-20 20m40-20-20 20m40-20-20 20m40-20-20 20m20-20 20 20m20-20-20 20m40-20-20 20m20-20 20 20m0-20 20 20m20-20-20 20m20-20 20 20m0-20 20 20m20-20-20 20m20-20 20 20m20-20-20 20m20-20 20 20m20-20-20 20m40-20-20 20m40-20-20 20m20-20 20 20m0-20 20 20m0-20 20 20m0-20 20 20m20-20-20 20m20-20 20 20m0-20 20 20m20-20-20 20m40-20-20 20m40-20-20 20m20-20 20 20m20-20-20 20m20-20 20 20m0-20 20 20m0-20 20 20m0-20 20 20m0-20 20 20m0-20 20 20m0-20 20 20m0-20 20 20m20-20-20 20m20-20 20 20m0-20 20 20m0-20 20 20m0-20 20 20m0-20 20 20m0-20 20 20m20-20-20 20m40-20-20 20m40-20-20 20m40-20-20 20m40-20-20 20"/><path opacity=".29" d="M20 200 0 220m40-20-20 20m40-20-20 20m20-20 20 20m0-20 20 20m0-20 20 20m20-20-20 20m20-20 20 20m20-20-20 20m20-20 20 20m20-20-20 20m20-20 20 20m20-20-20 20m40-20-20 20m20-20 20 20m0-20 20 20m0-20 20 20m0-20 20 20m0-20 20 20m0-20 20 20m0-20 20 20m0-20 20 20m0-20 20 20m0-20 20 20m0-20 20 20m0-20 20 20m0-20 20 20m20-20-20 20m20-20 20 20m20-20-20 20m20-20 20 20m0-20 20 20m0-20 20 20m0-20 20 20m0-20 20 20m0-20 20 20m0-20 20 20m0-20 20 20m0-20 20 20m0-20 20 20m0-20 20 20m0-20 20 20m0-20 20 20m0-20 20 20m0-20 20 20m0-20 20 20m20-20-20 20m20-20 20 20m20-20-20 20m20-20 20 20m0-20 20 20m0-20 20 20m0-20 20 20m0-20 20 20m0-20 20 20m20-20-20 20m20-20 20 20m0-20 20 20m0-20 20 20m0-20 20 20m0-20 20 20m20-20-20 20m40-20-20 20m20-20 20 20m0-20 20 20m20-20-20 20m20-20 20 20m0-20 20 20m0-20 20 20m0-20 20 20m0-20 20 20m20-20-20 20"/><path opacity=".31" d="M20 220 0 240m40-20-20 20m20-20 20 20m0-20 20 20m0-20 20 20m20-20-20 20m40-20-20 20m20-20 20 20m20-20-20 20m20-20 20 20m0-20 20 20m20-20-20 20m20-20 20 20m20-20-20 20m20-20 20 20m20-20-20 20m20-20 20 20m20-20-20 20m40-20-20 20m20-20 20 20m0-20 20 20m0-20 20 20m20-20-20 20m20-20 20 20m20-20-20 20m40-20-20 20m20-20 20 20m20-20-20 20m20-20 20 20m0-20 20 20m0-20 20 20m20-20-20 20m20-20 20 20m0-20 20 20m0-20 20 20m0-20 20 20m20-20-20 20m20-20 20 20m20-20-20 20m40-20-20 20m40-20-20 20m20-20 20 20m20-20-20 20m20-20 20 20m20-20-20 20m40-20-20 20m40-20-20 20m40-20-20 20m40-20-20 20m40-20-20 20m40-20-20 20m40-20-20 20m40-20-20 20m40-20-20 20m20-20 20 20m20-20-20 20m40-20-20 20m20-20 20 20m0-20 20 20m20-20-20 20m40-20-20 20m40-20-20 20m40-20-20 20m40-20-20 20m20-20 20 20m0-20 20 20m0-20 20 20m20-20-20 20m40-20-20 20m40-20-20 20m40-20-20 20m40-20-20 20"/><path opacity=".33" d="m0 240 20 20m0-20 20 20m0-20 20 20m20-20-20 20m20-20 20 20m20-20-20 20m20-20 20 20m20-20-20 20m40-20-20 20m20-20 20 20m0-20 20 20m20-20-20 20m40-20-20 20m20-20 20 20m20-20-20 20m20-20 20 20m0-20 20 20m0-20 20 20m0-20 20 20m0-20 20 20m0-20 20 20m20-20-20 20m40-20-20 20m20-20 20 20m20-20-20 20m20-20 20 20m0-20 20 20m0-20 20 20m20-20-20 20m40-20-20 20m40-20-20 20m40-20-20 20m40-20-20 20m20-20 20 20m20-20-20 20m40-20-20 20m20-20 20 20m0-20 20 20m0-20 20 20m0-20 20 20m20-20-20 20m40-20-20 20m20-20 20 20m20-20-20 20m40-20-20 20m40-20-20 20m20-20 20 20m0-20 20 20m20-20-20 20m20-20 20 20m0-20 20 20m0-20 20 20m20-20-20 20m20-20 20 20m0-20 20 20m0-20 20 20m0-20 20 20m20-20-20 20m40-20-20 20m20-20 20 20m0-20 20 20m20-20-20 20m20-20 20 20m0-20 20 20m20-20-20 20m20-20 20 20m0-20 20 20m20-20-20 20m20-20 20 20m0-20 20 20m0-20 20 20m0-20 20 20"/><path opacity=".36" d="m0 260 20 20m0-20 20 20m20-20-20 20m20-20 20 20m20-20-20 20m20-20 20 20m20-20-20 20m40-20-20 20m40-20-20 20m20-20 20 20m20-20-20 20m40-20-20 20m40-20-20 20m20-20 20 20m0-20 20 20m20-20-20 20m40-20-20 20m20-20 20 20m0-20 20 20m20-20-20 20m20-20 20 20m0-20 20 20m0-20 20 20m0-20 20 20m20-20-20 20m40-20-20 20m20-20 20 20m0-20 20 20m20-20-20 20m20-20 20 20m0-20 20 20m20-20-20 20m20-20 20 20m20-20-20 20m20-20 20 20m0-20 20 20m20-20-20 20m20-20 20 20m0-20 20 20m0-20 20 20m0-20 20 20m0-20 20 20m20-20-20 20m20-20 20 20m20-20-20 20m40-20-20 20m20-20 20 20m0-20 20 20m0-20 20 20m0-20 20 20m20-20-20 20m40-20-20 20m20-20 20 20m20-20-20 20m20-20 20 20m20-20-20 20m40-20-20 20m20-20 20 20m0-20 20 20m20-20-20 20m20-20 20 20m0-20 20 20m0-20 20 20m0-20 20 20m20-20-20 20m20-20 20 20m20-20-20 20m40-20-20 20m20-20 20 20m20-20-20 20m20-20 20 20m0-20 20 20"/><path opacity=".38" d="m0 280 20 20m0-20 20 20m0-20 20 20m20-20-20 20m20-20 20 20m20-20-20 20m40-20-20 20m40-20-20 20m40-20-20 20m40-20-20 20m20-20 20 20m0-20 20 20m0-20 20 20m0-20 20 20m0-20 20 20m0-20 20 20m0-20 20 20m0-20 20 20m0-20 20 20m0-20 20 20m0-20 20 20m0-20 20 20m20-20-20 20m20-20 20 20m20-20-20 20m20-20 20 20m0-20 20 20m0-20 20 20m20-20-20 20m20-20 20 20m20-20-20 20m40-20-20 20m40-20-20 20m40-20-20 20m40-20-20 20m20-20 20 20m0-20 20 20m0-20 20 20m0-20 20 20m20-20-20 20m40-20-20 20m20-20 20 20m20-20-20 20m20-20 20 20m20-20-20 20m20-20 20 20m0-20 20 20m20-20-20 20m40-20-20 20m40-20-20 20m20-20 20 20m20-20-20 20m20-20 20 20m0-20 20 20m0-20 20 20m0-20 20 20m20-20-20 20m20-20 20 20m0-20 20 20m0-20 20 20m0-20 20 20m20-20-20 20m40-20-20 20m40-20-20 20m40-20-20 20m40-20-20 20m20-20 20 20m20-20-20 20m40-20-20 20m40-20-20 20m40-20-20 20m40-20-20 20"/><path opacity=".41" d="m0 300 20 20m20-20-20 20m20-20 20 20m20-20-20 20m20-20 20 20m0-20 20 20m0-20 20 20m20-20-20 20m20-20 20 20m0-20 20 20m0-20 20 20m0-20 20 20m0-20 20 20m0-20 20 20m0-20 20 20m20-20-20 20m40-20-20 20m40-20-20 20m20-20 20 20m0-20 20 20m0-20 20 20m0-20 20 20m0-20 20 20m0-20 20 20m0-20 20 20m20-20-20 20m40-20-20 20m40-20-20 20m40-20-20 20m20-20 20 20m0-20 20 20m0-20 20 20m20-20-20 20m20-20 20 20m0-20 20 20m20-20-20 20m20-20 20 20m0-20 20 20m0-20 20 20m0-20 20 20m0-20 20 20m20-20-20 20m20-20 20 20m0-20 20 20m0-20 20 20m0-20 20 20m20-20-20 20m40-20-20 20m40-20-20 20m40-20-20 20m20-20 20 20m0-20 20 20m0-20 20 20m20-20-20 20m40-20-20 20m20-20 20 20m0-20 20 20m20-20-20 20m20-20 20 20m0-20 20 20m0-20 20 20m0-20 20 20m0-20 20 20m0-20 20 20m0-20 20 20m0-20 20 20m20-20-20 20m40-20-20 20m20-20 20 20m20-20-20 20m20-20 20 20m20-20-20 20"/><path opacity=".43" d="m0 320 20 20m20-20-20 20m20-20 20 20m20-20-20 20m20-20 20 20m20-20-20 20m20-20 20 20m0-20 20 20m20-20-20 20m40-20-20 20m20-20 20 20m0-20 20 20m0-20 20 20m0-20 20 20m0-20 20 20m20-20-20 20m20-20 20 20m0-20 20 20m0-20 20 20m20-20-20 20m20-20 20 20m0-20 20 20m20-20-20 20m20-20 20 20m0-20 20 20m0-20 20 20m0-20 20 20m0-20 20 20m0-20 20 20m20-20-20 20m40-20-20 20m20-20 20 20m0-20 20 20m0-20 20 20m20-20-20 20m20-20 20 20m20-20-20 20m40-20-20 20m40-20-20 20m40-20-20 20m40-20-20 20m20-20 20 20m20-20-20 20m20-20 20 20m20-20-20 20m20-20 20 20m20-20-20 20m20-20 20 20m0-20 20 20m0-20 20 20m20-20-20 20m20-20 20 20m0-20 20 20m0-20 20 20m20-20-20 20m20-20 20 20m0-20 20 20m20-20-20 20m20-20 20 20m0-20 20 20m0-20 20 20m0-20 20 20m0-20 20 20m20-20-20 20m20-20 20 20m20-20-20 20m20-20 20 20m0-20 20 20m20-20-20 20m20-20 20 20m20-20-20 20m40-20-20 20"/><path opacity=".45" d="m0 340 20 20m0-20 20 20m20-20-20 20m40-20-20 20m20-20 20 20m0-20 20 20m20-20-20 20m20-20 20 20m0-20 20 20m20-20-20 20m40-20-20 20m20-20 20 20m20-20-20 20m20-20 20 20m0-20 20 20m0-20 20 20m0-20 20 20m0-20 20 20m0-20 20 20m0-20 20 20m20-20-20 20m40-20-20 20m20-20 20 20m20-20-20 20m20-20 20 20m0-20 20 20m20-20-20 20m20-20 20 20m20-20-20 20m40-20-20 20m20-20 20 20m20-20-20 20m40-20-20 20m20-20 20 20m0-20 20 20m0-20 20 20m0-20 20 20m20-20-20 20m40-20-20 20m20-20 20 20m0-20 20 20m0-20 20 20m20-20-20 20m20-20 20 20m20-20-20 20m40-20-20 20m20-20 20 20m20-20-20 20m40-20-20 20m20-20 20 20m0-20 20 20m0-20 20 20m20-20-20 20m20-20 20 20m0-20 20 20m0-20 20 20m0-20 20 20m0-20 20 20m20-20-20 20m40-20-20 20m40-20-20 20m40-20-20 20m20-20 20 20m0-20 20 20m0-20 20 20m20-20-20 20m20-20 20 20m20-20-20 20m40-20-20 20m20-20 20 20m0-20 20 20m20-20-20 20"/><path opacity=".48" d="M20 360 0 380m40-20-20 20m40-20-20 20m20-20 20 20m20-20-20 20m20-20 20 20m20-20-20 20m40-20-20 20m20-20 20 20m0-20 20 20m20-20-20 20m40-20-20 20m20-20 20 20m20-20-20 20m40-20-20 20m20-20 20 20m20-20-20 20m40-20-20 20m20-20 20 20m0-20 20 20m0-20 20 20m20-20-20 20m20-20 20 20m20-20-20 20m40-20-20 20m20-20 20 20m0-20 20 20m20-20-20 20m20-20 20 20m20-20-20 20m20-20 20 20m20-20-20 20m20-20 20 20m20-20-20 20m40-20-20 20m20-20 20 20m20-20-20 20m40-20-20 20m20-20 20 20m20-20-20 20m20-20 20 20m0-20 20 20m0-20 20 20m20-20-20 20m20-20 20 20m0-20 20 20m20-20-20 20m40-20-20 20m40-20-20 20m40-20-20 20m20-20 20 20m0-20 20 20m0-20 20 20m20-20-20 20m40-20-20 20m20-20 20 20m0-20 20 20m0-20 20 20m0-20 20 20m0-20 20 20m0-20 20 20m0-20 20 20m0-20 20 20m0-20 20 20m0-20 20 20m20-20-20 20m40-20-20 20m40-20-20 20m40-20-20 20m40-20-20 20m40-20-20 20m40-20-20 20"/><path opacity=".5" d="M20 380 0 400m20-20 20 20m0-20 20 20m20-20-20 20m20-20 20 20m20-20-20 20m40-20-20 20m20-20 20 20m20-20-20 20m20-20 20 20m0-20 20 20m20-20-20 20m40-20-20 20m40-20-20 20m40-20-20 20m20-20 20 20m0-20 20 20m0-20 20 20m0-20 20 20m20-20-20 20m20-20 20 20m0-20 20 20m0-20 20 20m0-20 20 20m0-20 20 20m20-20-20 20m20-20 20 20m0-20 20 20m0-20 20 20m0-20 20 20m0-20 20 20m0-20 20 20m20-20-20 20m20-20 20 20m0-20 20 20m0-20 20 20m0-20 20 20m0-20 20 20m0-20 20 20m20-20-20 20m40-20-20 20m40-20-20 20m20-20 20 20m0-20 20 20m0-20 20 20m0-20 20 20m0-20 20 20m0-20 20 20m0-20 20 20m20-20-20 20m20-20 20 20m0-20 20 20m0-20 20 20m20-20-20 20m40-20-20 20m20-20 20 20m0-20 20 20m0-20 20 20m0-20 20 20m20-20-20 20m40-20-20 20m40-20-20 20m20-20 20 20m20-20-20 20m40-20-20 20m20-20 20 20m20-20-20 20m40-20-20 20m40-20-20 20m20-20 20 20m0-20 20 20m0-20 20 20"/><path opacity=".53" d="M20 400 0 420m20-20 20 20m20-20-20 20m40-20-20 20m20-20 20 20m0-20 20 20m0-20 20 20m0-20 20 20m0-20 20 20m0-20 20 20m0-20 20 20m20-20-20 20m20-20 20 20m0-20 20 20m20-20-20 20m20-20 20 20m0-20 20 20m0-20 20 20m20-20-20 20m20-20 20 20m20-20-20 20m20-20 20 20m20-20-20 20m20-20 20 20m0-20 20 20m20-20-20 20m20-20 20 20m20-20-20 20m20-20 20 20m20-20-20 20m40-20-20 20m20-20 20 20m0-20 20 20m20-20-20 20m40-20-20 20m40-20-20 20m20-20 20 20m20-20-20 20m20-20 20 20m0-20 20 20m0-20 20 20m20-20-20 20m20-20 20 20m20-20-20 20m20-20 20 20m0-20 20 20m0-20 20 20m20-20-20 20m20-20 20 20m0-20 20 20m0-20 20 20m0-20 20 20m20-20-20 20m20-20 20 20m20-20-20 20m20-20 20 20m20-20-20 20m20-20 20 20m20-20-20 20m20-20 20 20m20-20-20 20m40-20-20 20m40-20-20 20m20-20 20 20m20-20-20 20m20-20 20 20m0-20 20 20m20-20-20 20m20-20 20 20m0-20 20 20m0-20 20 20m0-20 20 20"/><path opacity=".55" d="M20 420 0 440m40-20-20 20m40-20-20 20m20-20 20 20m0-20 20 20m0-20 20 20m0-20 20 20m0-20 20 20m20-20-20 20m20-20 20 20m0-20 20 20m0-20 20 20m0-20 20 20m0-20 20 20m20-20-20 20m20-20 20 20m0-20 20 20m20-20-20 20m40-20-20 20m40-20-20 20m40-20-20 20m20-20 20 20m0-20 20 20m0-20 20 20m0-20 20 20m0-20 20 20m0-20 20 20m0-20 20 20m0-20 20 20m20-20-20 20m20-20 20 20m0-20 20 20m0-20 20 20m20-20-20 20m40-20-20 20m20-20 20 20m0-20 20 20m0-20 20 20m20-20-20 20m20-20 20 20m20-20-20 20m20-20 20 20m0-20 20 20m20-20-20 20m20-20 20 20m20-20-20 20m20-20 20 20m20-20-20 20m40-20-20 20m40-20-20 20m20-20 20 20m20-20-20 20m20-20 20 20m20-20-20 20m40-20-20 20m40-20-20 20m20-20 20 20m0-20 20 20m0-20 20 20m20-20-20 20m20-20 20 20m20-20-20 20m40-20-20 20m20-20 20 20m20-20-20 20m40-20-20 20m20-20 20 20m0-20 20 20m20-20-20 20m40-20-20 20m20-20 20 20m0-20 20 20"/><path opacity=".57" d="m0 440 20 20m0-20 20 20m0-20 20 20m20-20-20 20m40-20-20 20m20-20 20 20m20-20-20 20m20-20 20 20m20-20-20 20m20-20 20 20m20-20-20 20m40-20-20 20m40-20-20 20m20-20 20 20m20-20-20 20m20-20 20 20m20-20-20 20m40-20-20 20m40-20-20 20m20-20 20 20m0-20 20 20m0-20 20 20m20-20-20 20m20-20 20 20m0-20 20 20m20-20-20 20m20-20 20 20m0-20 20 20m0-20 20 20m0-20 20 20m0-20 20 20m20-20-20 20m40-20-20 20m40-20-20 20m20-20 20 20m20-20-20 20m40-20-20 20m40-20-20 20m20-20 20 20m0-20 20 20m20-20-20 20m20-20 20 20m20-20-20 20m20-20 20 20m20-20-20 20m20-20 20 20m0-20 20 20m0-20 20 20m0-20 20 20m20-20-20 20m20-20 20 20m0-20 20 20m0-20 20 20m0-20 20 20m0-20 20 20m20-20-20 20m40-20-20 20m40-20-20 20m20-20 20 20m0-20 20 20m0-20 20 20m20-20-20 20m40-20-20 20m40-20-20 20m20-20 20 20m0-20 20 20m0-20 20 20m0-20 20 20m0-20 20 20m0-20 20 20m0-20 20 20m20-20-20 20"/><path opacity=".6" d="m0 460 20 20m0-20 20 20m0-20 20 20m0-20 20 20m20-20-20 20m20-20 20 20m0-20 20 20m0-20 20 20m0-20 20 20m0-20 20 20m0-20 20 20m20-20-20 20m20-20 20 20m0-20 20 20m20-20-20 20m40-20-20 20m20-20 20 20m0-20 20 20m0-20 20 20m0-20 20 20m20-20-20 20m20-20 20 20m0-20 20 20m20-20-20 20m40-20-20 20m20-20 20 20m20-20-20 20m20-20 20 20m0-20 20 20m20-20-20 20m20-20 20 20m20-20-20 20m40-20-20 20m20-20 20 20m0-20 20 20m20-20-20 20m40-20-20 20m40-20-20 20m20-20 20 20m0-20 20 20m0-20 20 20m0-20 20 20m0-20 20 20m20-20-20 20m20-20 20 20m20-20-20 20m20-20 20 20m0-20 20 20m0-20 20 20m0-20 20 20m0-20 20 20m20-20-20 20m20-20 20 20m0-20 20 20m0-20 20 20m0-20 20 20m0-20 20 20m20-20-20 20m40-20-20 20m20-20 20 20m0-20 20 20m0-20 20 20m20-20-20 20m20-20 20 20m20-20-20 20m20-20 20 20m0-20 20 20m20-20-20 20m20-20 20 20m0-20 20 20m0-20 20 20m0-20 20 20"/><path opacity=".62" d="M20 480 0 500m20-20 20 20m0-20 20 20m0-20 20 20m0-20 20 20m0-20 20 20m0-20 20 20m0-20 20 20m0-20 20 20m0-20 20 20m0-20 20 20m20-20-20 20m40-20-20 20m20-20 20 20m0-20 20 20m0-20 20 20m20-20-20 20m20-20 20 20m0-20 20 20m0-20 20 20m20-20-20 20m40-20-20 20m40-20-20 20m20-20 20 20m20-20-20 20m20-20 20 20m0-20 20 20m0-20 20 20m0-20 20 20m0-20 20 20m0-20 20 20m20-20-20 20m40-20-20 20m40-20-20 20m40-20-20 20m20-20 20 20m0-20 20 20m20-20-20 20m20-20 20 20m0-20 20 20m20-20-20 20m20-20 20 20m0-20 20 20m0-20 20 20m0-20 20 20m0-20 20 20m20-20-20 20m40-20-20 20m20-20 20 20m20-20-20 20m20-20 20 20m20-20-20 20m20-20 20 20m0-20 20 20m0-20 20 20m0-20 20 20m20-20-20 20m20-20 20 20m0-20 20 20m0-20 20 20m20-20-20 20m20-20 20 20m0-20 20 20m0-20 20 20m20-20-20 20m40-20-20 20m20-20 20 20m20-20-20 20m20-20 20 20m20-20-20 20m20-20 20 20m0-20 20 20"/><path opacity=".64" d="m0 500 20 20m20-20-20 20m40-20-20 20m40-20-20 20m20-20 20 20m20-20-20 20m20-20 20 20m0-20 20 20m20-20-20 20m20-20 20 20m20-20-20 20m20-20 20 20m0-20 20 20m20-20-20 20m40-20-20 20m20-20 20 20m0-20 20 20m0-20 20 20m0-20 20 20m20-20-20 20m20-20 20 20m20-20-20 20m40-20-20 20m20-20 20 20m0-20 20 20m0-20 20 20m0-20 20 20m20-20-20 20m20-20 20 20m0-20 20 20m20-20-20 20m20-20 20 20m0-20 20 20m0-20 20 20m0-20 20 20m0-20 20 20m20-20-20 20m20-20 20 20m0-20 20 20m20-20-20 20m20-20 20 20m20-20-20 20m20-20 20 20m0-20 20 20m20-20-20 20m20-20 20 20m20-20-20 20m20-20 20 20m20-20-20 20m20-20 20 20m20-20-20 20m40-20-20 20m20-20 20 20m0-20 20 20m20-20-20 20m40-20-20 20m20-20 20 20m0-20 20 20m0-20 20 20m0-20 20 20m20-20-20 20m20-20 20 20m0-20 20 20m0-20 20 20m0-20 20 20m0-20 20 20m0-20 20 20m0-20 20 20m20-20-20 20m20-20 20 20m0-20 20 20m0-20 20 20"/><path opacity=".67" d="m0 520 20 20m0-20 20 20m0-20 20 20m0-20 20 20m20-20-20 20m40-20-20 20m20-20 20 20m0-20 20 20m0-20 20 20m0-20 20 20m20-20-20 20m40-20-20 20m40-20-20 20m20-20 20 20m0-20 20 20m0-20 20 20m0-20 20 20m0-20 20 20m0-20 20 20m0-20 20 20m20-20-20 20m20-20 20 20m0-20 20 20m0-20 20 20m0-20 20 20m20-20-20 20m20-20 20 20m20-20-20 20m20-20 20 20m20-20-20 20m20-20 20 20m0-20 20 20m20-20-20 20m40-20-20 20m20-20 20 20m0-20 20 20m20-20-20 20m40-20-20 20m20-20 20 20m0-20 20 20m20-20-20 20m20-20 20 20m0-20 20 20m0-20 20 20m20-20-20 20m40-20-20 20m40-20-20 20m20-20 20 20m0-20 20 20m20-20-20 20m20-20 20 20m0-20 20 20m20-20-20 20m20-20 20 20m20-20-20 20m20-20 20 20m20-20-20 20m20-20 20 20m0-20 20 20m20-20-20 20m40-20-20 20m20-20 20 20m0-20 20 20m0-20 20 20m0-20 20 20m0-20 20 20m20-20-20 20m40-20-20 20m40-20-20 20m20-20 20 20m0-20 20 20m20-20-20 20"/><path opacity=".69" d="M20 540 0 560m40-20-20 20m40-20-20 20m20-20 20 20m0-20 20 20m20-20-20 20m20-20 20 20m0-20 20 20m0-20 20 20m0-20 20 20m20-20-20 20m20-20 20 20m0-20 20 20m0-20 20 20m0-20 20 20m20-20-20 20m40-20-20 20m20-20 20 20m0-20 20 20m0-20 20 20m20-20-20 20m40-20-20 20m20-20 20 20m0-20 20 20m0-20 20 20m0-20 20 20m0-20 20 20m0-20 20 20m0-20 20 20m20-20-20 20m20-20 20 20m20-20-20 20m20-20 20 20m20-20-20 20m20-20 20 20m0-20 20 20m0-20 20 20m0-20 20 20m20-20-20 20m40-20-20 20m40-20-20 20m40-20-20 20m40-20-20 20m40-20-20 20m20-20 20 20m20-20-20 20m20-20 20 20m0-20 20 20m20-20-20 20m20-20 20 20m0-20 20 20m0-20 20 20m20-20-20 20m20-20 20 20m0-20 20 20m20-20-20 20m20-20 20 20m20-20-20 20m20-20 20 20m20-20-20 20m20-20 20 20m20-20-20 20m40-20-20 20m20-20 20 20m0-20 20 20m0-20 20 20m20-20-20 20m40-20-20 20m40-20-20 20m40-20-20 20m40-20-20 20m40-20-20 20"/><path opacity=".71" d="m0 560 20 20m0-20 20 20m20-20-20 20m20-20 20 20m0-20 20 20m20-20-20 20m20-20 20 20m20-20-20 20m20-20 20 20m20-20-20 20m20-20 20 20m20-20-20 20m40-20-20 20m20-20 20 20m0-20 20 20m20-20-20 20m20-20 20 20m0-20 20 20m0-20 20 20m20-20-20 20m20-20 20 20m0-20 20 20m20-20-20 20m20-20 20 20m0-20 20 20m0-20 20 20m0-20 20 20m20-20-20 20m20-20 20 20m0-20 20 20m20-20-20 20m40-20-20 20m40-20-20 20m20-20 20 20m20-20-20 20m40-20-20 20m40-20-20 20m40-20-20 20m40-20-20 20m20-20 20 20m0-20 20 20m0-20 20 20m20-20-20 20m40-20-20 20m20-20 20 20m0-20 20 20m20-20-20 20m40-20-20 20m20-20 20 20m0-20 20 20m20-20-20 20m40-20-20 20m20-20 20 20m20-20-20 20m20-20 20 20m0-20 20 20m20-20-20 20m20-20 20 20m0-20 20 20m0-20 20 20m20-20-20 20m20-20 20 20m0-20 20 20m20-20-20 20m20-20 20 20m0-20 20 20m0-20 20 20m20-20-20 20m20-20 20 20m20-20-20 20m20-20 20 20m20-20-20 20"/><path opacity=".74" d="m0 580 20 20m20-20-20 20m20-20 20 20m0-20 20 20m20-20-20 20m20-20 20 20m0-20 20 20m0-20 20 20m0-20 20 20m0-20 20 20m0-20 20 20m20-20-20 20m20-20 20 20m0-20 20 20m20-20-20 20m40-20-20 20m20-20 20 20m20-20-20 20m20-20 20 20m0-20 20 20m0-20 20 20m0-20 20 20m20-20-20 20m20-20 20 20m0-20 20 20m0-20 20 20m20-20-20 20m20-20 20 20m0-20 20 20m0-20 20 20m0-20 20 20m20-20-20 20m20-20 20 20m20-20-20 20m20-20 20 20m0-20 20 20m20-20-20 20m40-20-20 20m40-20-20 20m20-20 20 20m20-20-20 20m20-20 20 20m0-20 20 20m0-20 20 20m0-20 20 20m0-20 20 20m0-20 20 20m0-20 20 20m20-20-20 20m40-20-20 20m20-20 20 20m0-20 20 20m0-20 20 20m20-20-20 20m20-20 20 20m0-20 20 20m0-20 20 20m0-20 20 20m20-20-20 20m20-20 20 20m20-20-20 20m20-20 20 20m0-20 20 20m0-20 20 20m20-20-20 20m40-20-20 20m20-20 20 20m0-20 20 20m0-20 20 20m0-20 20 20m0-20 20 20m20-20-20 20"/><path opacity=".76" d="m0 600 20 20m0-20 20 20m20-20-20 20m20-20 20 20m0-20 20 20m0-20 20 20m0-20 20 20m0-20 20 20m0-20 20 20m0-20 20 20m0-20 20 20m20-20-20 20m20-20 20 20m20-20-20 20m40-20-20 20m20-20 20 20m20-20-20 20m20-20 20 20m20-20-20 20m20-20 20 20m0-20 20 20m20-20-20 20m20-20 20 20m0-20 20 20m0-20 20 20m20-20-20 20m20-20 20 20m20-20-20 20m20-20 20 20m0-20 20 20m0-20 20 20m0-20 20 20m20-20-20 20m40-20-20 20m40-20-20 20m20-20 20 20m0-20 20 20m20-20-20 20m40-20-20 20m20-20 20 20m0-20 20 20m0-20 20 20m20-20-20 20m20-20 20 20m20-20-20 20m20-20 20 20m20-20-20 20m20-20 20 20m20-20-20 20m20-20 20 20m20-20-20 20m20-20 20 20m0-20 20 20m20-20-20 20m40-20-20 20m20-20 20 20m0-20 20 20m20-20-20 20m20-20 20 20m20-20-20 20m20-20 20 20m0-20 20 20m0-20 20 20m20-20-20 20m20-20 20 20m0-20 20 20m0-20 20 20m0-20 20 20m20-20-20 20m40-20-20 20m20-20 20 20m0-20 20 20"/><path opacity=".79" d="m0 620 20 20m0-20 20 20m20-20-20 20m20-20 20 20m0-20 20 20m0-20 20 20m20-20-20 20m20-20 20 20m0-20 20 20m0-20 20 20m20-20-20 20m20-20 20 20m0-20 20 20m20-20-20 20m40-20-20 20m20-20 20 20m20-20-20 20m20-20 20 20m0-20 20 20m20-20-20 20m40-20-20 20m20-20 20 20m0-20 20 20m0-20 20 20m0-20 20 20m20-20-20 20m40-20-20 20m20-20 20 20m20-20-20 20m40-20-20 20m20-20 20 20m0-20 20 20m20-20-20 20m40-20-20 20m20-20 20 20m20-20-20 20m20-20 20 20m20-20-20 20m40-20-20 20m20-20 20 20m0-20 20 20m20-20-20 20m40-20-20 20m20-20 20 20m0-20 20 20m0-20 20 20m0-20 20 20m20-20-20 20m20-20 20 20m0-20 20 20m0-20 20 20m0-20 20 20m20-20-20 20m40-20-20 20m40-20-20 20m20-20 20 20m20-20-20 20m40-20-20 20m20-20 20 20m20-20-20 20m40-20-20 20m20-20 20 20m0-20 20 20m20-20-20 20m20-20 20 20m0-20 20 20m20-20-20 20m20-20 20 20m0-20 20 20m20-20-20 20m20-20 20 20m20-20-20 20"/><path opacity=".81" d="m0 640 20 20m0-20 20 20m0-20 20 20m20-20-20 20m20-20 20 20m0-20 20 20m0-20 20 20m20-20-20 20m20-20 20 20m0-20 20 20m20-20-20 20m20-20 20 20m20-20-20 20m20-20 20 20m20-20-20 20m20-20 20 20m20-20-20 20m40-20-20 20m20-20 20 20m20-20-20 20m20-20 20 20m0-20 20 20m0-20 20 20m0-20 20 20m20-20-20 20m40-20-20 20m20-20 20 20m0-20 20 20m0-20 20 20m0-20 20 20m20-20-20 20m20-20 20 20m20-20-20 20m40-20-20 20m20-20 20 20m20-20-20 20m20-20 20 20m0-20 20 20m0-20 20 20m20-20-20 20m40-20-20 20m40-20-20 20m20-20 20 20m0-20 20 20m0-20 20 20m0-20 20 20m0-20 20 20m0-20 20 20m20-20-20 20m20-20 20 20m0-20 20 20m0-20 20 20m20-20-20 20m40-20-20 20m20-20 20 20m0-20 20 20m0-20 20 20m0-20 20 20m0-20 20 20m0-20 20 20m0-20 20 20m0-20 20 20m0-20 20 20m20-20-20 20m20-20 20 20m20-20-20 20m20-20 20 20m0-20 20 20m20-20-20 20m20-20 20 20m20-20-20 20m20-20 20 20"/><path opacity=".83" d="m0 660 20 20m20-20-20 20m20-20 20 20m0-20 20 20m0-20 20 20m20-20-20 20m20-20 20 20m0-20 20 20m0-20 20 20m20-20-20 20m20-20 20 20m0-20 20 20m0-20 20 20m0-20 20 20m0-20 20 20m20-20-20 20m20-20 20 20m0-20 20 20m0-20 20 20m20-20-20 20m40-20-20 20m20-20 20 20m20-20-20 20m20-20 20 20m0-20 20 20m0-20 20 20m0-20 20 20m0-20 20 20m0-20 20 20m20-20-20 20m20-20 20 20m20-20-20 20m20-20 20 20m0-20 20 20m0-20 20 20m0-20 20 20m0-20 20 20m0-20 20 20m0-20 20 20m20-20-20 20m20-20 20 20m20-20-20 20m40-20-20 20m20-20 20 20m0-20 20 20m0-20 20 20m0-20 20 20m0-20 20 20m20-20-20 20m40-20-20 20m20-20 20 20m0-20 20 20m20-20-20 20m20-20 20 20m20-20-20 20m20-20 20 20m0-20 20 20m0-20 20 20m20-20-20 20m20-20 20 20m20-20-20 20m20-20 20 20m0-20 20 20m20-20-20 20m20-20 20 20m20-20-20 20m20-20 20 20m20-20-20 20m40-20-20 20m40-20-20 20m20-20 20 20m0-20 20 20"/><path opacity=".86" d="M20 680 0 700m20-20 20 20m20-20-20 20m20-20 20 20m20-20-20 20m20-20 20 20m0-20 20 20m0-20 20 20m0-20 20 20m20-20-20 20m20-20 20 20m0-20 20 20m0-20 20 20m0-20 20 20m0-20 20 20m20-20-20 20m20-20 20 20m20-20-20 20m20-20 20 20m0-20 20 20m0-20 20 20m20-20-20 20m40-20-20 20m40-20-20 20m40-20-20 20m40-20-20 20m40-20-20 20m20-20 20 20m0-20 20 20m0-20 20 20m0-20 20 20m20-20-20 20m40-20-20 20m40-20-20 20m20-20 20 20m20-20-20 20m20-20 20 20m0-20 20 20m20-20-20 20m20-20 20 20m20-20-20 20m20-20 20 20m20-20-20 20m20-20 20 20m20-20-20 20m20-20 20 20m0-20 20 20m0-20 20 20m20-20-20 20m20-20 20 20m20-20-20 20m20-20 20 20m0-20 20 20m20-20-20 20m20-20 20 20m20-20-20 20m20-20 20 20m20-20-20 20m20-20 20 20m20-20-20 20m40-20-20 20m20-20 20 20m0-20 20 20m20-20-20 20m20-20 20 20m20-20-20 20m40-20-20 20m20-20 20 20m0-20 20 20m0-20 20 20m20-20-20 20m20-20 20 20"/><path opacity=".88" d="m0 700 20 20m0-20 20 20m0-20 20 20m0-20 20 20m0-20 20 20m0-20 20 20m0-20 20 20m0-20 20 20m0-20 20 20m0-20 20 20m0-20 20 20m20-20-20 20m40-20-20 20m20-20 20 20m0-20 20 20m0-20 20 20m20-20-20 20m20-20 20 20m20-20-20 20m40-20-20 20m40-20-20 20m20-20 20 20m20-20-20 20m20-20 20 20m0-20 20 20m20-20-20 20m20-20 20 20m0-20 20 20m0-20 20 20m0-20 20 20m0-20 20 20m20-20-20 20m20-20 20 20m20-20-20 20m40-20-20 20m20-20 20 20m0-20 20 20m0-20 20 20m20-20-20 20m20-20 20 20m20-20-20 20m20-20 20 20m0-20 20 20m0-20 20 20m0-20 20 20m0-20 20 20m0-20 20 20m20-20-20 20m20-20 20 20m20-20-20 20m20-20 20 20m0-20 20 20m20-20-20 20m20-20 20 20m0-20 20 20m20-20-20 20m20-20 20 20m20-20-20 20m20-20 20 20m0-20 20 20m0-20 20 20m0-20 20 20m20-20-20 20m40-20-20 20m20-20 20 20m20-20-20 20m40-20-20 20m40-20-20 20m40-20-20 20m20-20 20 20m20-20-20 20m20-20 20 20"/><path opacity=".91" d="m0 720 20 20m0-20 20 20m0-20 20 20m20-20-20 20m20-20 20 20m0-20 20 20m0-20 20 20m0-20 20 20m0-20 20 20m0-20 20 20m0-20 20 20m20-20-20 20m20-20 20 20m20-20-20 20m20-20 20 20m20-20-20 20m20-20 20 20m0-20 20 20m20-20-20 20m20-20 20 20m0-20 20 20m0-20 20 20m20-20-20 20m20-20 20 20m20-20-20 20m40-20-20 20m40-20-20 20m40-20-20 20m20-20 20 20m20-20-20 20m20-20 20 20m0-20 20 20m0-20 20 20m20-20-20 20m20-20 20 20m20-20-20 20m20-20 20 20m0-20 20 20m0-20 20 20m0-20 20 20m20-20-20 20m40-20-20 20m20-20 20 20m20-20-20 20m40-20-20 20m40-20-20 20m40-20-20 20m40-20-20 20m20-20 20 20m0-20 20 20m20-20-20 20m40-20-20 20m20-20 20 20m20-20-20 20m40-20-20 20m40-20-20 20m20-20 20 20m0-20 20 20m20-20-20 20m20-20 20 20m20-20-20 20m40-20-20 20m20-20 20 20m20-20-20 20m20-20 20 20m0-20 20 20m0-20 20 20m20-20-20 20m40-20-20 20m40-20-20 20m40-20-20 20m20-20 20 20"/><path opacity=".93" d="m0 740 20 20m20-20-20 20m40-20-20 20m40-20-20 20m20-20 20 20m0-20 20 20m0-20 20 20m20-20-20 20m40-20-20 20m40-20-20 20m20-20 20 20m20-20-20 20m20-20 20 20m20-20-20 20m20-20 20 20m0-20 20 20m0-20 20 20m20-20-20 20m40-20-20 20m20-20 20 20m20-20-20 20m40-20-20 20m40-20-20 20m20-20 20 20m0-20 20 20m0-20 20 20m20-20-20 20m20-20 20 20m20-20-20 20m20-20 20 20m0-20 20 20m20-20-20 20m40-20-20 20m40-20-20 20m20-20 20 20m0-20 20 20m0-20 20 20m20-20-20 20m40-20-20 20m20-20 20 20m0-20 20 20m0-20 20 20m20-20-20 20m20-20 20 20m20-20-20 20m20-20 20 20m0-20 20 20m0-20 20 20m0-20 20 20m0-20 20 20m0-20 20 20m20-20-20 20m40-20-20 20m20-20 20 20m0-20 20 20m0-20 20 20m20-20-20 20m20-20 20 20m0-20 20 20m20-20-20 20m20-20 20 20m20-20-20 20m40-20-20 20m20-20 20 20m20-20-20 20m40-20-20 20m40-20-20 20m20-20 20 20m0-20 20 20m0-20 20 20m20-20-20 20m40-20-20 20"/><path opacity=".95" d="M20 760 0 780m20-20 20 20m20-20-20 20m20-20 20 20m20-20-20 20m20-20 20 20m0-20 20 20m20-20-20 20m20-20 20 20m0-20 20 20m20-20-20 20m20-20 20 20m20-20-20 20m20-20 20 20m20-20-20 20m20-20 20 20m0-20 20 20m0-20 20 20m0-20 20 20m20-20-20 20m40-20-20 20m40-20-20 20m20-20 20 20m0-20 20 20m0-20 20 20m0-20 20 20m20-20-20 20m40-20-20 20m20-20 20 20m20-20-20 20m20-20 20 20m0-20 20 20m20-20-20 20m20-20 20 20m20-20-20 20m20-20 20 20m20-20-20 20m20-20 20 20m20-20-20 20m40-20-20 20m40-20-20 20m20-20 20 20m20-20-20 20m40-20-20 20m20-20 20 20m20-20-20 20m20-20 20 20m0-20 20 20m0-20 20 20m0-20 20 20m0-20 20 20m20-20-20 20m40-20-20 20m20-20 20 20m20-20-20 20m40-20-20 20m20-20 20 20m20-20-20 20m20-20 20 20m20-20-20 20m20-20 20 20m0-20 20 20m0-20 20 20m0-20 20 20m20-20-20 20m20-20 20 20m0-20 20 20m0-20 20 20m0-20 20 20m0-20 20 20m0-20 20 20m0-20 20 20"/><path opacity=".98" d="m0 780 20 20m0-20 20 20m0-20 20 20m20-20-20 20m40-20-20 20m20-20 20 20m0-20 20 20m0-20 20 20m20-20-20 20m40-20-20 20m20-20 20 20m20-20-20 20m20-20 20 20m20-20-20 20m20-20 20 20m0-20 20 20m0-20 20 20m0-20 20 20m0-20 20 20m0-20 20 20m0-20 20 20m0-20 20 20m20-20-20 20m20-20 20 20m20-20-20 20m20-20 20 20m0-20 20 20m20-20-20 20m40-20-20 20m20-20 20 20m0-20 20 20m0-20 20 20m0-20 20 20m20-20-20 20m20-20 20 20m20-20-20 20m20-20 20 20m0-20 20 20m0-20 20 20m0-20 20 20m0-20 20 20m0-20 20 20m20-20-20 20m20-20 20 20m0-20 20 20m0-20 20 20m0-20 20 20m0-20 20 20m0-20 20 20m0-20 20 20m0-20 20 20m0-20 20 20m20-20-20 20m40-20-20 20m40-20-20 20m40-20-20 20m40-20-20 20m40-20-20 20m40-20-20 20m20-20 20 20m20-20-20 20m40-20-20 20m20-20 20 20m0-20 20 20m20-20-20 20m20-20 20 20m20-20-20 20m20-20 20 20m20-20-20 20m40-20-20 20m20-20 20 20m0-20 20 20"/><path d="M20 800 0 820m20-20 20 20m0-20 20 20m20-20-20 20m40-20-20 20m40-20-20 20m20-20 20 20m0-20 20 20m20-20-20 20m40-20-20 20m40-20-20 20m20-20 20 20m0-20 20 20m0-20 20 20m20-20-20 20m20-20 20 20m0-20 20 20m0-20 20 20m20-20-20 20m40-20-20 20m40-20-20 20m20-20 20 20m0-20 20 20m0-20 20 20m20-20-20 20m20-20 20 20m0-20 20 20m0-20 20 20m0-20 20 20m0-20 20 20m20-20-20 20m40-20-20 20m40-20-20 20m20-20 20 20m0-20 20 20m0-20 20 20m0-20 20 20m0-20 20 20m20-20-20 20m20-20 20 20m0-20 20 20m20-20-20 20m20-20 20 20m20-20-20 20m20-20 20 20m20-20-20 20m20-20 20 20m20-20-20 20m20-20 20 20m0-20 20 20m0-20 20 20m20-20-20 20m20-20 20 20m20-20-20 20m20-20 20 20m0-20 20 20m20-20-20 20m20-20 20 20m0-20 20 20m0-20 20 20m20-20-20 20m40-20-20 20m40-20-20 20m40-20-20 20m20-20 20 20m0-20 20 20m0-20 20 20m0-20 20 20m20-20-20 20m20-20 20 20m20-20-20 20m20-20 20 20"/></g></svg>