<svg xmlns="http://www.w3.org/2000/svg" opacity=".05" viewBox="0 0 800 800"><defs><linearGradient x1="50%" y1="0%" x2="50%" y2="100%" id="a"><stop stop-color="hsl(184, 74%, 44%)" offset="0%"/><stop stop-color="hsl(332, 87%, 70%)" offset="100%"/></linearGradient></defs><g stroke="url(#a)" fill="none"><path d="M988.297 569.066a84.68 84.68 0 0 1-28.966 79.57L547.73 994.011a84.67 84.67 0 0 1-83.39 14.705l-504.903-183.77a84.69 84.69 0 0 1-54.432-64.868l-93.302-529.144a84.68 84.68 0 0 1 28.966-79.57L252.27-194.011a84.67 84.67 0 0 1 83.39-14.705l504.903 183.77a84.69 84.69 0 0 1 54.432 64.868z"/><path d="M983.042 545.733a83.14 83.14 0 0 1-25.696 79.068L565.31 977.793a83.13 83.13 0 0 1-81.32 17.287L-17.727 832.06a83.15 83.15 0 0 1-55.633-61.784l-109.68-516.01a83.14 83.14 0 0 1 25.695-79.068L234.69-177.794a83.13 83.13 0 0 1 81.32-17.286L817.727-32.062a83.15 83.15 0 0 1 55.633 61.785z" opacity=".98"/><path d="M976.888 522.976a81.6 81.6 0 0 1-22.496 78.437L581.941 961.086a81.6 81.6 0 0 1-79.173 19.74L5.057 838.112a81.6 81.6 0 0 1-56.685-58.698l-125.26-502.39a81.6 81.6 0 0 1 22.496-78.436l372.451-359.673a81.6 81.6 0 0 1 79.173-19.74L794.943-38.112a81.6 81.6 0 0 1 56.685 58.698z" opacity=".96"/><path d="M969.87 500.83a80.06 80.06 0 0 1-19.373 77.68L597.611 943.933a80.05 80.05 0 0 1-76.956 22.068L27.745 843.106a80.07 80.07 0 0 1-57.59-55.614L-169.87 299.17a80.06 80.06 0 0 1 19.372-77.68l352.886-365.425a80.05 80.05 0 0 1 76.956-22.068l492.91 122.896a80.07 80.07 0 0 1 57.59 55.614z" opacity=".95"/><path d="M962.02 479.324a78.52 78.52 0 0 1-16.328 76.803L612.31 926.385a78.52 78.52 0 0 1-74.675 24.264L50.294 847.061a78.53 78.53 0 0 1-58.353-52.54l-153.962-473.845a78.52 78.52 0 0 1 16.33-76.803l333.38-370.258a78.52 78.52 0 0 1 74.675-24.264L749.706-47.061a78.53 78.53 0 0 1 58.353 52.54z" opacity=".93"/><path d="M953.38 458.492a76.98 76.98 0 0 1-13.372 75.81L626.031 908.485a76.97 76.97 0 0 1-72.335 26.329l-481.04-84.82a76.99 76.99 0 0 1-58.972-49.482l-167.063-459.004a76.98 76.98 0 0 1 13.371-75.81l313.977-374.183a76.97 76.97 0 0 1 72.335-26.33l481.04 84.821A76.99 76.99 0 0 1 786.316-.512z" opacity=".91"/><path d="M943.982 438.36a75.44 75.44 0 0 1-10.503 74.706L638.767 890.281a75.44 75.44 0 0 1-69.945 28.26l-474.033-66.62a75.45 75.45 0 0 1-59.45-46.446l-179.32-443.836a75.44 75.44 0 0 1 10.502-74.705L161.233-90.281a75.44 75.44 0 0 1 69.945-28.26l474.033 66.62a75.45 75.45 0 0 1 59.45 46.446z" opacity=".89"/><path d="M933.867 418.958a73.9 73.9 0 0 1-7.728 73.495L650.513 871.82a73.9 73.9 0 0 1-67.51 30.058L116.65 852.863a73.91 73.91 0 0 1-59.79-43.438l-190.727-428.383a73.9 73.9 0 0 1 7.728-73.495L149.487-71.82a73.9 73.9 0 0 1 67.51-30.058L683.35-52.863a73.91 73.91 0 0 1 59.79 43.438z" opacity=".88"/><path d="M923.074 400.308a72.36 72.36 0 0 1-5.051 72.185L661.268 853.148a72.36 72.36 0 0 1-65.036 31.722l-458.035-32.03a72.37 72.37 0 0 1-59.992-40.463l-201.28-412.685a72.36 72.36 0 0 1 5.052-72.185L138.732-53.148a72.36 72.36 0 0 1 65.036-31.722l458.035 32.03a72.37 72.37 0 0 1 59.992 40.463z" opacity=".86"/><path d="M911.644 382.435a70.82 70.82 0 0 1-2.476 70.778l-238.137 381.1a70.82 70.82 0 0 1-62.53 33.248l-449.11-15.683a70.83 70.83 0 0 1-60.062-37.53l-210.973-396.783a70.82 70.82 0 0 1 2.476-70.778l238.137-381.1a70.82 70.82 0 0 1 62.53-33.248l449.11 15.683a70.83 70.83 0 0 1 60.062 37.53z" opacity=".84"/><path d="M899.616 365.359a69.29 69.29 0 0 1-.003 69.282L679.806 815.359A69.28 69.28 0 0 1 619.807 850H180.193a69.29 69.29 0 0 1-60.002-34.641L-99.616 434.641a69.29 69.29 0 0 1 .003-69.282L120.195-15.359A69.28 69.28 0 0 1 180.193-50h439.614a69.29 69.29 0 0 1 60.002 34.64z" opacity=".82"/><path d="M887.034 349.1a67.75 67.75 0 0 1 2.36 67.702l-201.8 379.531a67.74 67.74 0 0 1-57.446 35.898l-429.584 15.002a67.75 67.75 0 0 1-59.815-31.803L-87.034 450.9a67.75 67.75 0 0 1-2.36-67.702l201.8-379.531a67.74 67.74 0 0 1 57.446-35.898l429.584-15.002a67.75 67.75 0 0 1 59.815 31.803z" opacity=".81"/><path d="M873.94 333.677a66.2 66.2 0 0 1 4.614 66.041l-184.15 377.563a66.2 66.2 0 0 1-54.882 37.02l-419.053 29.303a66.21 66.21 0 0 1-59.504-29.021L-73.94 466.323a66.2 66.2 0 0 1-4.615-66.041l184.15-377.563a66.2 66.2 0 0 1 54.882-37.02L579.53-43.604a66.21 66.21 0 0 1 59.504 29.021z" opacity=".79"/><path d="M860.375 319.103a64.67 64.67 0 0 1 6.755 64.31L700.244 758.246a64.66 64.66 0 0 1-52.312 38.008l-408.06 42.889a64.67 64.67 0 0 1-59.074-26.301L-60.374 480.897a64.67 64.67 0 0 1-6.756-64.31L99.756 41.754a64.66 64.66 0 0 1 52.312-38.008l408.06-42.889a64.67 64.67 0 0 1 59.074 26.301z" opacity=".77"/><path d="M846.383 305.393a63.13 63.13 0 0 1 8.782 62.51L705.121 739.275a63.12 63.12 0 0 1-49.74 38.863l-396.64 55.744a63.13 63.13 0 0 1-58.529-23.646L-46.383 494.607a63.13 63.13 0 0 1-8.782-62.51L94.879 60.725a63.12 63.12 0 0 1 49.74-38.863l396.64-55.744a63.13 63.13 0 0 1 58.529 23.646z" opacity=".75"/><path d="M832.01 292.558a61.59 61.59 0 0 1 10.69 60.649L709.05 720.41a61.58 61.58 0 0 1-47.175 39.585l-384.832 67.856a61.59 61.59 0 0 1-57.871-21.062L-32.01 507.442a61.59 61.59 0 0 1-10.69-60.649L90.95 79.59a61.58 61.58 0 0 1 47.175-39.585l384.832-67.856A61.59 61.59 0 0 1 580.828-6.79z" opacity=".74"/><path d="M817.297 280.608a60.05 60.05 0 0 1 12.48 58.733L712.044 701.693a60.04 60.04 0 0 1-44.62 40.177L294.75 821.085a60.05 60.05 0 0 1-57.107-18.555l-254.94-283.138a60.05 60.05 0 0 1-12.48-58.733L87.956 98.307a60.04 60.04 0 0 1 44.62-40.178L505.25-21.085A60.05 60.05 0 0 1 562.358-2.53z" opacity=".72"/><path d="M802.29 269.55a58.51 58.51 0 0 1 14.15 56.768l-102.325 356.85a58.5 58.5 0 0 1-42.083 40.64l-360.203 89.809a58.51 58.51 0 0 1-56.24-16.126L-2.289 530.45a58.51 58.51 0 0 1-14.151-56.768l102.325-356.85a58.5 58.5 0 0 1 42.083-40.64l360.203-89.809a58.51 58.51 0 0 1 56.24 16.126z" opacity=".7"/><path d="M787.031 259.39a56.97 56.97 0 0 1 15.7 54.76l-87.446 350.724a56.96 56.96 0 0 1-39.57 40.977l-347.458 99.632a56.97 56.97 0 0 1-55.275-13.78L12.97 540.61a56.97 56.97 0 0 1-15.7-54.76l87.446-350.724a56.96 56.96 0 0 1 39.57-40.977L471.743-5.483a56.97 56.97 0 0 1 55.275 13.78z" opacity=".68"/><path d="M771.567 250.132a55.43 55.43 0 0 1 17.125 52.713l-73.12 344.007a55.42 55.42 0 0 1-37.087 41.189L344.007 796.72a55.43 55.43 0 0 1-54.216-11.523L28.433 549.868a55.43 55.43 0 0 1-17.125-52.713l73.12-344.007a55.42 55.42 0 0 1 37.087-41.189L455.993 3.28a55.43 55.43 0 0 1 54.216 11.523z" opacity=".67"/><path d="M755.94 241.776a53.89 53.89 0 0 1 18.428 50.637l-59.374 336.729a53.88 53.88 0 0 1-34.636 41.278L359.056 787.365a53.89 53.89 0 0 1-53.069-9.357L44.06 558.224a53.89 53.89 0 0 1-18.427-50.637l59.374-336.729a53.88 53.88 0 0 1 34.636-41.278L440.944 12.635a53.89 53.89 0 0 1 53.069 9.357z" opacity=".65"/><path d="M740.196 234.323a52.35 52.35 0 0 1 19.607 48.536L713.576 611.78a52.34 52.34 0 0 1-32.226 41.25L373.383 777.455a52.35 52.35 0 0 1-51.838-7.285L59.804 565.677a52.35 52.35 0 0 1-19.607-48.536L86.424 188.22a52.34 52.34 0 0 1 32.226-41.25L426.617 22.545a52.35 52.35 0 0 1 51.838 7.285z" opacity=".63"/><path d="M724.377 227.77a50.81 50.81 0 0 1 20.663 46.416l-33.698 320.618a50.8 50.8 0 0 1-29.863 41.103L386.967 767.033a50.81 50.81 0 0 1-50.53-5.31L75.623 572.228a50.81 50.81 0 0 1-20.663-46.415l33.698-320.618a50.8 50.8 0 0 1 29.863-41.103L413.033 32.967a50.81 50.81 0 0 1 50.53 5.31z" opacity=".61"/><path d="M708.527 222.114a49.27 49.27 0 0 1 21.595 44.282L708.316 578.25a49.26 49.26 0 0 1-27.549 40.843L399.791 756.135a49.27 49.27 0 0 1-49.149-3.436L91.472 577.886a49.27 49.27 0 0 1-21.594-44.282L91.684 221.75a49.26 49.26 0 0 1 27.549-40.843L400.209 43.865a49.27 49.27 0 0 1 49.149 3.436z" opacity=".6"/><path d="M692.69 217.347a47.73 47.73 0 0 1 22.404 42.142L704.525 562.15a47.73 47.73 0 0 1-25.29 40.475L411.838 744.802a47.73 47.73 0 0 1-47.7-1.665L107.31 582.653a47.73 47.73 0 0 1-22.404-42.142L95.475 237.85a47.73 47.73 0 0 1 25.29-40.475L388.162 55.198a47.73 47.73 0 0 1 47.7 1.665z" opacity=".58"/><path d="M676.907 213.461a46.19 46.19 0 0 1 23.092 40.001V546.54a46.19 46.19 0 0 1-23.093 40L423.094 733.077a46.19 46.19 0 0 1-46.189 0L123.093 586.54a46.19 46.19 0 0 1-23.092-40.001V253.46a46.19 46.19 0 0 1 23.093-40L376.906 66.923a46.19 46.19 0 0 1 46.189 0z" opacity=".56"/><path d="M661.22 210.447a44.65 44.65 0 0 1 23.658 37.865l9.888 283.135a44.65 44.65 0 0 1-20.96 39.422l-240.258 150.13a44.65 44.65 0 0 1-44.623 1.559L138.78 589.553a44.65 44.65 0 0 1-23.658-37.865l-9.888-283.135a44.65 44.65 0 0 1 20.96-39.422l240.258-150.13a44.65 44.65 0 0 1 44.623-1.559z" opacity=".54"/><path d="M645.672 208.293a43.11 43.11 0 0 1 24.104 35.74l19.081 272.872a43.1 43.1 0 0 1-18.896 38.745L443.187 708.61a43.11 43.11 0 0 1-43.004 3.008L154.328 591.707a43.11 43.11 0 0 1-24.104-35.74l-19.081-272.872a43.1 43.1 0 0 1 18.896-38.745L356.813 91.39a43.11 43.11 0 0 1 43.004-3.009z" opacity=".53"/><path d="M630.302 206.985a41.57 41.57 0 0 1 24.432 33.631l27.572 262.324a41.57 41.57 0 0 1-16.907 37.975l-213.394 155.04a41.57 41.57 0 0 1-41.342 4.345L169.698 593.015a41.57 41.57 0 0 1-24.432-33.631L117.694 297.06a41.57 41.57 0 0 1 16.907-37.975l213.394-155.04a41.57 41.57 0 0 1 41.342-4.345z" opacity=".51"/><path d="M615.15 206.507a40.03 40.03 0 0 1 24.644 31.545l35.35 251.528a40.03 40.03 0 0 1-14.995 37.114L459.995 683.072a40.03 40.03 0 0 1-39.641 5.571l-235.505-95.15a40.03 40.03 0 0 1-24.643-31.545l-35.35-251.528a40.03 40.03 0 0 1 14.995-37.114l200.154-156.378a40.03 40.03 0 0 1 39.641-5.571z" opacity=".49"/><path d="M600.256 206.842a38.49 38.49 0 0 1 24.74 29.487l42.41 240.52a38.49 38.49 0 0 1-13.163 36.168L467.15 670.005a38.49 38.49 0 0 1-37.906 6.685l-229.501-83.532a38.49 38.49 0 0 1-24.74-29.487l-42.41-240.52a38.49 38.49 0 0 1 13.163-36.168L332.85 129.995a38.49 38.49 0 0 1 37.906-6.685z" opacity=".47"/><path d="M585.658 207.972a36.95 36.95 0 0 1 24.723 27.461l48.747 229.338a36.95 36.95 0 0 1-11.417 35.141L473.472 656.797a36.95 36.95 0 0 1-36.144 7.683l-222.986-72.452a36.95 36.95 0 0 1-24.723-27.461l-48.747-229.338a36.95 36.95 0 0 1 11.417-35.141l174.239-156.885a36.95 36.95 0 0 1 36.144-7.683z" opacity=".45"/><path d="M571.391 209.876a35.41 35.41 0 0 1 24.597 25.474l54.358 218.018a35.41 35.41 0 0 1-9.76 34.038L478.956 643.49a35.41 35.41 0 0 1-34.359 8.567l-215.988-61.933a35.41 35.41 0 0 1-24.597-25.474l-54.358-218.018a35.41 35.41 0 0 1 9.76-34.038l161.63-156.084a35.41 35.41 0 0 1 34.359-8.567z" opacity=".44"/><path d="M557.493 212.532a33.87 33.87 0 0 1 24.363 23.53l59.241 206.597a33.87 33.87 0 0 1-8.193 32.865L483.606 630.126a33.87 33.87 0 0 1-32.56 9.337l-208.539-51.995a33.87 33.87 0 0 1-24.363-23.53l-59.241-206.597a33.87 33.87 0 0 1 8.193-32.865l149.298-154.602a33.87 33.87 0 0 1 32.56-9.337z" opacity=".42"/><path d="M543.997 215.916a32.33 32.33 0 0 1 24.026 21.635l63.396 195.113a32.33 32.33 0 0 1-6.721 31.624L487.423 616.747a32.33 32.33 0 0 1-30.75 9.991l-200.67-42.654a32.33 32.33 0 0 1-24.026-21.635L168.58 367.336a32.33 32.33 0 0 1 6.721-31.624l137.275-152.459a32.33 32.33 0 0 1 30.75-9.991z" opacity=".4"/><path d="M530.938 220.002a30.79 30.79 0 0 1 23.587 19.794l66.826 183.601a30.79 30.79 0 0 1-5.347 30.324l-125.59 149.673a30.8 30.8 0 0 1-28.936 10.532l-192.416-33.928a30.79 30.79 0 0 1-23.587-19.794l-66.826-183.601a30.79 30.79 0 0 1 5.347-30.324l125.59-149.673a30.8 30.8 0 0 1 28.936-10.532z" opacity=".38"/><path d="M518.348 224.765a29.25 29.25 0 0 1 23.05 18.01l69.533 172.1a29.25 29.25 0 0 1-4.07 28.967L492.583 590.11a29.26 29.26 0 0 1-27.123 10.959l-183.809-25.833a29.25 29.25 0 0 1-23.05-18.01l-69.533-172.1a29.25 29.25 0 0 1 4.07-28.967L307.417 209.89a29.26 29.26 0 0 1 27.123-10.959z" opacity=".37"/><path d="M506.257 230.176a27.71 27.71 0 0 1 22.42 16.29l71.522 160.644a27.71 27.71 0 0 1-2.896 27.56l-103.36 142.263a27.72 27.72 0 0 1-25.317 11.272l-174.883-18.381a27.71 27.71 0 0 1-22.42-16.29L199.802 392.89a27.71 27.71 0 0 1 2.896-27.56l103.36-142.262a27.72 27.72 0 0 1 25.317-11.273z" opacity=".35"/><path d="M494.695 236.206a26.17 26.17 0 0 1 21.698 14.637l72.803 149.269a26.17 26.17 0 0 1-1.825 26.109l-92.869 137.684a26.18 26.18 0 0 1-23.525 11.474l-165.672-11.585a26.17 26.17 0 0 1-21.698-14.637l-72.803-149.269a26.17 26.17 0 0 1 1.825-26.109l92.869-137.684a26.18 26.18 0 0 1 23.525-11.474z" opacity=".33"/><path d="M483.69 242.825a24.64 24.64 0 0 1 20.89 13.055l73.382 138.01a24.63 24.63 0 0 1-.86 24.619l-82.83 132.556a24.64 24.64 0 0 1-21.75 11.565l-156.212-5.455a24.64 24.64 0 0 1-20.89-13.055l-73.382-138.01a24.63 24.63 0 0 1 .86-24.619l82.83-132.556a24.64 24.64 0 0 1 21.75-11.565z" opacity=".31"/><path d="M473.27 250c8.25 0 15.874 4.402 19.999 11.548l73.27 126.906a23.09 23.09 0 0 1 0 23.093l-73.27 126.906a23.1 23.1 0 0 1-20 11.547H326.731a23.1 23.1 0 0 1-20-11.548l-73.27-126.906a23.09 23.09 0 0 1 0-23.093l73.27-126.906a23.1 23.1 0 0 1 20-11.547z" opacity=".3"/><path d="M463.457 257.698a21.56 21.56 0 0 1 19.031 10.12l72.477 115.987a21.55 21.55 0 0 1 .752 21.541l-64.209 120.76a21.56 21.56 0 0 1-18.28 11.422l-136.685 4.774a21.56 21.56 0 0 1-19.031-10.12l-72.477-115.987a21.55 21.55 0 0 1-.752-21.541l64.209-120.76a21.56 21.56 0 0 1 18.28-11.423z" opacity=".28"/><path d="M454.277 265.887a20.02 20.02 0 0 1 17.989 8.775l71.017 105.287a20.01 20.01 0 0 1 1.397 19.966l-55.673 114.147a20.02 20.02 0 0 1-16.594 11.192l-126.69 8.86a20.02 20.02 0 0 1-17.989-8.776l-71.017-105.287a20.01 20.01 0 0 1-1.397-19.966l55.673-114.147a20.02 20.02 0 0 1 16.594-11.192z" opacity=".26"/><path d="M445.751 274.53a18.48 18.48 0 0 1 16.878 7.516l68.906 94.841a18.47 18.47 0 0 1 1.931 18.374l-47.682 107.095a18.48 18.48 0 0 1-14.946 10.86L354.249 525.47a18.48 18.48 0 0 1-16.878-7.516l-68.906-94.841a18.47 18.47 0 0 1-1.931-18.374l47.682-107.095a18.48 18.48 0 0 1 14.946-10.86z" opacity=".24"/><path d="M437.899 283.592a16.94 16.94 0 0 1 15.702 6.345l66.16 84.681a16.93 16.93 0 0 1 2.357 16.77l-40.256 99.637a16.94 16.94 0 0 1-13.345 10.427L362.1 516.408a16.94 16.94 0 0 1-15.702-6.345l-66.16-84.681a16.93 16.93 0 0 1-2.357-16.77l40.256-99.637a16.94 16.94 0 0 1 13.345-10.427z" opacity=".23"/><path d="M430.74 293.037a15.4 15.4 0 0 1 14.467 5.266l62.795 74.837a15.4 15.4 0 0 1 2.674 15.162l-33.413 91.8A15.4 15.4 0 0 1 465.469 490l-96.208 16.964a15.4 15.4 0 0 1-14.468-5.266l-62.795-74.837a15.4 15.4 0 0 1-2.674-15.162l33.413-91.8A15.4 15.4 0 0 1 334.531 310z" opacity=".21"/><path d="M424.289 302.826a13.86 13.86 0 0 1 13.178 4.283l58.832 65.34a13.86 13.86 0 0 1 2.88 13.553l-27.169 83.62a13.86 13.86 0 0 1-10.297 9.271l-86.002 18.28a13.86 13.86 0 0 1-13.178-4.282l-58.832-65.34a13.86 13.86 0 0 1-2.88-13.553l27.169-83.62a13.86 13.86 0 0 1 10.297-9.271z" opacity=".19"/><path d="M418.562 312.923c4.27-1.065 8.783.23 11.84 3.395l54.29 56.22a12.32 12.32 0 0 1 2.98 11.95l-21.542 75.126a12.32 12.32 0 0 1-8.86 8.556l-75.832 18.907a12.32 12.32 0 0 1-11.84-3.395l-54.29-56.22a12.32 12.32 0 0 1-2.98-11.95l21.542-75.126a12.32 12.32 0 0 1 8.86-8.556z" opacity=".17"/><path d="M413.573 323.287a10.78 10.78 0 0 1 10.457 2.608l49.192 47.504a10.78 10.78 0 0 1 2.97 10.359L459.65 450.11a10.78 10.78 0 0 1-7.487 7.753l-65.735 18.85a10.78 10.78 0 0 1-10.457-2.609L326.779 426.6a10.78 10.78 0 0 1-2.97-10.359l16.543-66.353a10.78 10.78 0 0 1 7.487-7.753z" opacity=".16"/><path d="M409.332 333.88a9.24 9.24 0 0 1 9.036 1.921l43.56 39.221a9.24 9.24 0 0 1 2.854 8.785l-12.187 57.335a9.24 9.24 0 0 1-6.18 6.865l-55.747 18.113a9.24 9.24 0 0 1-9.036-1.921l-43.56-39.221a9.24 9.24 0 0 1-2.854-8.786l12.187-57.334a9.24 9.24 0 0 1 6.18-6.865z" opacity=".14"/><path d="M405.85 344.662a7.7 7.7 0 0 1 7.58 1.337l37.419 31.398a7.7 7.7 0 0 1 2.632 7.233L445 432.734a7.7 7.7 0 0 1-4.948 5.898l-45.9 16.706A7.7 7.7 0 0 1 386.57 454l-37.419-31.398a7.7 7.7 0 0 1-2.632-7.233L355 367.266a7.7 7.7 0 0 1 4.948-5.898z" opacity=".12"/><path d="M403.131 355.593a6.16 6.16 0 0 1 6.099.858l30.793 24.058a6.16 6.16 0 0 1 2.307 5.71l-5.438 38.696a6.16 6.16 0 0 1-3.792 4.853l-36.231 14.639a6.16 6.16 0 0 1-6.099-.858l-30.793-24.058a6.16 6.16 0 0 1-2.307-5.71l5.438-38.696a6.16 6.16 0 0 1 3.792-4.853z" opacity=".1"/><path d="M401.185 366.633a4.62 4.62 0 0 1 4.593.483l23.71 17.227a4.62 4.62 0 0 1 1.88 4.22l-3.064 29.146a4.62 4.62 0 0 1-2.715 3.737l-26.774 11.92a4.62 4.62 0 0 1-4.593-.482l-23.71-17.227a4.62 4.62 0 0 1-1.88-4.22l3.064-29.146a4.62 4.62 0 0 1 2.715-3.737z" opacity=".09"/><path d="M400.013 377.742a3.08 3.08 0 0 1 3.072.214l16.198 10.926a3.08 3.08 0 0 1 1.35 2.768l-1.363 19.49a3.08 3.08 0 0 1-1.722 2.553l-17.561 8.565a3.08 3.08 0 0 1-3.072-.214l-16.198-10.926a3.08 3.08 0 0 1-1.35-2.768l1.363-19.49a3.08 3.08 0 0 1 1.722-2.553z" opacity=".07"/><path d="M399.618 388.877a1.54 1.54 0 0 1 1.539.054l8.285 5.177c.466.291.742.81.722 1.36l-.34 9.763a1.54 1.54 0 0 1-.816 1.305l-8.626 4.587a1.54 1.54 0 0 1-1.539-.054l-8.285-5.177a1.54 1.54 0 0 1-.722-1.36l.34-9.763c.02-.55.33-1.047.816-1.305z" opacity=".05"/></g></svg>