<svg xmlns="http://www.w3.org/2000/svg" width="500" height="300" opacity=".03" preserveAspectRatio="none" viewBox="0 0 500 300">
  <g mask="url(&quot;#a&quot;)" fill="none">
    <g mask="url(&quot;#b&quot;)">
      <path d="M235 55h170l20-20" stroke-width="1.67" stroke="rgba(0, 0, 0, 1)"/>
      <path d="M232.5 55a2.5 2.5 0 1 0 5 0 2.5 2.5 0 1 0-5 0m190-20a2.5 2.5 0 1 0 5 0 2.5 2.5 0 1 0-5 0" fill="rgba(0, 0, 0, 1)"/>
      <path d="m345 5-30 30v10" stroke-width="1.67" stroke="rgba(0, 0, 0, 1)"/>
      <path d="M342.5 5a2.5 2.5 0 1 0 5 0 2.5 2.5 0 1 0-5 0m-30 40a2.5 2.5 0 1 0 5 0 2.5 2.5 0 1 0-5 0" fill="rgba(0, 0, 0, 1)"/>
      <path d="M315 65v40l80 80h70" stroke-width="1.67" stroke="rgba(0, 0, 0, 1)"/>
      <path d="M312.5 65a2.5 2.5 0 1 0 5 0 2.5 2.5 0 1 0-5 0m150 120a2.5 2.5 0 1 0 5 0 2.5 2.5 0 1 0-5 0" fill="rgba(0, 0, 0, 1)"/>
      <path d="M25 115V75L5 55V5" stroke-width="1.67" stroke="rgba(0, 0, 0, 1)"/>
      <path d="M22.5 115a2.5 2.5 0 1 0 5 0 2.5 2.5 0 1 0-5 0M2.5 5a2.5 2.5 0 1 0 5 0 2.5 2.5 0 1 0-5 0" fill="rgba(0, 0, 0, 1)"/>
      <path d="m275 205 10-10V85l10-10V65" stroke-width="1.67" stroke="rgba(0, 0, 0, 1)"/>
      <path d="M272.5 205a2.5 2.5 0 1 0 5 0 2.5 2.5 0 1 0-5 0m20-140a2.5 2.5 0 1 0 5 0 2.5 2.5 0 1 0-5 0" fill="rgba(0, 0, 0, 1)"/>
      <path d="m85 255-20 20H5" stroke-width="1.67" stroke="rgba(0, 0, 0, 1)"/>
      <path d="M82.5 255a2.5 2.5 0 1 0 5 0 2.5 2.5 0 1 0-5 0m-80 20a2.5 2.5 0 1 0 5 0 2.5 2.5 0 1 0-5 0" fill="rgba(0, 0, 0, 1)"/>
      <path d="M95 95v100l90 90" stroke-width="1.67" stroke="rgba(0, 0, 0, 1)"/>
      <path d="M92.5 95a2.5 2.5 0 1 0 5 0 2.5 2.5 0 1 0-5 0m90 190a2.5 2.5 0 1 0 5 0 2.5 2.5 0 1 0-5 0" fill="rgba(0, 0, 0, 1)"/>
      <path d="M115 265 5 155V75" stroke-width="1.67" stroke="rgba(0, 0, 0, 1)"/>
      <path d="M112.5 265a2.5 2.5 0 1 0 5 0 2.5 2.5 0 1 0-5 0M2.5 75a2.5 2.5 0 1 0 5 0 2.5 2.5 0 1 0-5 0" fill="rgba(0, 0, 0, 1)"/>
      <path d="m375 285-40-40H185" stroke-width="1.67" stroke="rgba(0, 0, 0, 1)"/>
      <path d="M372.5 285a2.5 2.5 0 1 0 5 0 2.5 2.5 0 1 0-5 0m-190-40a2.5 2.5 0 1 0 5 0 2.5 2.5 0 1 0-5 0" fill="rgba(0, 0, 0, 1)"/>
      <path d="m275 15 10-10h50" stroke-width="1.67" stroke="rgba(0, 0, 0, 1)"/>
      <path d="M272.5 15a2.5 2.5 0 1 0 5 0 2.5 2.5 0 1 0-5 0m60-10a2.5 2.5 0 1 0 5 0 2.5 2.5 0 1 0-5 0" fill="rgba(0, 0, 0, 1)"/>
      <path d="M45 255v-50l-20-20H5" stroke-width="1.67" stroke="rgba(0, 0, 0, 1)"/>
      <path d="M42.5 255a2.5 2.5 0 1 0 5 0 2.5 2.5 0 1 0-5 0m-40-70a2.5 2.5 0 1 0 5 0 2.5 2.5 0 1 0-5 0" fill="rgba(0, 0, 0, 1)"/>
      <path d="M415 295V195" stroke-width="1.67" stroke="rgba(0, 0, 0, 1)"/>
      <path d="M412.5 295a2.5 2.5 0 1 0 5 0 2.5 2.5 0 1 0-5 0m0-100a2.5 2.5 0 1 0 5 0 2.5 2.5 0 1 0-5 0" fill="rgba(0, 0, 0, 1)"/>
      <path d="m265 175 10 10v10l-40 40h-90l-20-20v-20" stroke-width="1.67" stroke="rgba(0, 0, 0, 1)"/>
      <path d="M262.5 175a2.5 2.5 0 1 0 5 0 2.5 2.5 0 1 0-5 0m-140 20a2.5 2.5 0 1 0 5 0 2.5 2.5 0 1 0-5 0" fill="rgba(0, 0, 0, 1)"/>
      <path d="M425 145h-60l-40-40V65" stroke-width="1.67" stroke="rgba(0, 0, 0, 1)"/>
      <path d="M422.5 145a2.5 2.5 0 1 0 5 0 2.5 2.5 0 1 0-5 0m-100-80a2.5 2.5 0 1 0 5 0 2.5 2.5 0 1 0-5 0" fill="rgba(0, 0, 0, 1)"/>
      <path d="M445 265h10l40-40V85" stroke-width="1.67" stroke="rgba(0, 0, 0, 1)"/>
      <path d="M442.5 265a2.5 2.5 0 1 0 5 0 2.5 2.5 0 1 0-5 0m50-180a2.5 2.5 0 1 0 5 0 2.5 2.5 0 1 0-5 0" fill="rgba(0, 0, 0, 1)"/>
      <path d="m295 285-30-30H165l-10-10" stroke-width="1.67" stroke="rgba(0, 0, 0, 1)"/>
      <path d="M292.5 285a2.5 2.5 0 1 0 5 0 2.5 2.5 0 1 0-5 0m-140-40a2.5 2.5 0 1 0 5 0 2.5 2.5 0 1 0-5 0" fill="rgba(0, 0, 0, 1)"/>
      <path d="m285 45 10-10V15" stroke-width="1.67" stroke="rgba(0, 0, 0, 1)"/>
      <path d="M282.5 45a2.5 2.5 0 1 0 5 0 2.5 2.5 0 1 0-5 0m10-30a2.5 2.5 0 1 0 5 0 2.5 2.5 0 1 0-5 0" fill="rgba(0, 0, 0, 1)"/>
      <path d="m145 35-10-10V5" stroke-width="1.67" stroke="rgba(0, 0, 0, 1)"/>
      <path d="M142.5 35a2.5 2.5 0 1 0 5 0 2.5 2.5 0 1 0-5 0m-10-30a2.5 2.5 0 1 0 5 0 2.5 2.5 0 1 0-5 0" fill="rgba(0, 0, 0, 1)"/>
      <path d="M255 45 215 5h-70" stroke-width="1.67" stroke="rgba(0, 0, 0, 1)"/>
      <path d="M252.5 45a2.5 2.5 0 1 0 5 0 2.5 2.5 0 1 0-5 0m-110-40a2.5 2.5 0 1 0 5 0 2.5 2.5 0 1 0-5 0" fill="rgba(0, 0, 0, 1)"/>
      <path d="M65 295h80l20-20" stroke-width="1.67" stroke="rgba(0, 0, 0, 1)"/>
      <path d="M62.5 295a2.5 2.5 0 1 0 5 0 2.5 2.5 0 1 0-5 0m100-20a2.5 2.5 0 1 0 5 0 2.5 2.5 0 1 0-5 0" fill="rgba(0, 0, 0, 1)"/>
      <path d="M215 225h-70l-10-10v-30l-30-30v-50" stroke-width="1.67" stroke="rgba(0, 0, 0, 1)"/>
      <path d="M212.5 225a2.5 2.5 0 1 0 5 0 2.5 2.5 0 1 0-5 0m-110-120a2.5 2.5 0 1 0 5 0 2.5 2.5 0 1 0-5 0" fill="rgba(0, 0, 0, 1)"/>
      <path d="m385 275 20-20v-40L295 105V85" stroke-width="1.67" stroke="rgba(0, 0, 0, 1)"/>
      <path d="M382.5 275a2.5 2.5 0 1 0 5 0 2.5 2.5 0 1 0-5 0m-90-190a2.5 2.5 0 1 0 5 0 2.5 2.5 0 1 0-5 0" fill="rgba(0, 0, 0, 1)"/>
      <path d="M295 195v-80" stroke-width="1.67" stroke="rgba(0, 0, 0, 1)"/>
      <path d="M292.5 195a2.5 2.5 0 1 0 5 0 2.5 2.5 0 1 0-5 0m0-80a2.5 2.5 0 1 0 5 0 2.5 2.5 0 1 0-5 0" fill="rgba(0, 0, 0, 1)"/>
      <path d="M95 65h190" stroke-width="1.67" stroke="rgba(0, 0, 0, 1)"/>
      <path d="M92.5 65a2.5 2.5 0 1 0 5 0 2.5 2.5 0 1 0-5 0m190 0a2.5 2.5 0 1 0 5 0 2.5 2.5 0 1 0-5 0" fill="rgba(0, 0, 0, 1)"/>
      <path d="M85 205v20l20 20h30l20 20v10l-10 10H65" stroke-width="1.67" stroke="rgba(0, 0, 0, 1)"/>
      <path d="M82.5 205a2.5 2.5 0 1 0 5 0 2.5 2.5 0 1 0-5 0m-20 80a2.5 2.5 0 1 0 5 0 2.5 2.5 0 1 0-5 0" fill="rgba(0, 0, 0, 1)"/>
      <path d="M245 105 145 205v10" stroke-width="1.67" stroke="rgba(0, 0, 0, 1)"/>
      <path d="M242.5 105a2.5 2.5 0 1 0 5 0 2.5 2.5 0 1 0-5 0m-100 110a2.5 2.5 0 1 0 5 0 2.5 2.5 0 1 0-5 0" fill="rgba(0, 0, 0, 1)"/>
      <path d="M445 295h-20" stroke-width="1.67" stroke="rgba(0, 0, 0, 1)"/>
      <path d="M442.5 295a2.5 2.5 0 1 0 5 0 2.5 2.5 0 1 0-5 0m-20 0a2.5 2.5 0 1 0 5 0 2.5 2.5 0 1 0-5 0" fill="rgba(0, 0, 0, 1)"/>
      <path d="M455 45h-30l-70 70v10l10 10h20l10-10h40" stroke-width="1.67" stroke="rgba(0, 0, 0, 1)"/>
      <path d="M452.5 45a2.5 2.5 0 1 0 5 0 2.5 2.5 0 1 0-5 0m-20 80a2.5 2.5 0 1 0 5 0 2.5 2.5 0 1 0-5 0" fill="rgba(0, 0, 0, 1)"/>
      <path d="M435 235v-40" stroke-width="1.67" stroke="rgba(0, 0, 0, 1)"/>
      <path d="M432.5 235a2.5 2.5 0 1 0 5 0 2.5 2.5 0 1 0-5 0m0-40a2.5 2.5 0 1 0 5 0 2.5 2.5 0 1 0-5 0" fill="rgba(0, 0, 0, 1)"/>
      <path d="m175 265 30 30h160" stroke-width="1.67" stroke="rgba(0, 0, 0, 1)"/>
      <path d="M172.5 265a2.5 2.5 0 1 0 5 0 2.5 2.5 0 1 0-5 0m190 30a2.5 2.5 0 1 0 5 0 2.5 2.5 0 1 0-5 0" fill="rgba(0, 0, 0, 1)"/>
      <path d="M265 45V5" stroke-width="1.67" stroke="rgba(0, 0, 0, 1)"/>
      <path d="M262.5 45a2.5 2.5 0 1 0 5 0 2.5 2.5 0 1 0-5 0m0-40a2.5 2.5 0 1 0 5 0 2.5 2.5 0 1 0-5 0" fill="rgba(0, 0, 0, 1)"/>
      <path d="M425 115h40l20 20v40l-40 40v40l-10 10" stroke-width="1.67" stroke="rgba(0, 0, 0, 1)"/>
      <path d="M422.5 115a2.5 2.5 0 1 0 5 0 2.5 2.5 0 1 0-5 0m10 150a2.5 2.5 0 1 0 5 0 2.5 2.5 0 1 0-5 0" fill="rgba(0, 0, 0, 1)"/>
      <path d="M215 25v30" stroke-width="1.67" stroke="rgba(0, 0, 0, 1)"/>
      <path d="M212.5 25a2.5 2.5 0 1 0 5 0 2.5 2.5 0 1 0-5 0m0 30a2.5 2.5 0 1 0 5 0 2.5 2.5 0 1 0-5 0" fill="rgba(0, 0, 0, 1)"/>
      <path d="m245 155-20-20" stroke-width="1.67" stroke="rgba(0, 0, 0, 1)"/>
      <path d="M242.5 155a2.5 2.5 0 1 0 5 0 2.5 2.5 0 1 0-5 0m-20-20a2.5 2.5 0 1 0 5 0 2.5 2.5 0 1 0-5 0" fill="rgba(0, 0, 0, 1)"/>
      <path d="M305 155v20l80 80v10l-10 10" stroke-width="1.67" stroke="rgba(0, 0, 0, 1)"/>
      <path d="M302.5 155a2.5 2.5 0 1 0 5 0 2.5 2.5 0 1 0-5 0m70 120a2.5 2.5 0 1 0 5 0 2.5 2.5 0 1 0-5 0" fill="rgba(0, 0, 0, 1)"/>
      <path d="m365 185 30 30v40" stroke-width="1.67" stroke="rgba(0, 0, 0, 1)"/>
      <path d="M362.5 185a2.5 2.5 0 1 0 5 0 2.5 2.5 0 1 0-5 0m30 70a2.5 2.5 0 1 0 5 0 2.5 2.5 0 1 0-5 0" fill="rgba(0, 0, 0, 1)"/>
      <path d="M65 5 15 55" stroke-width="1.67" stroke="rgba(0, 0, 0, 1)"/>
      <path d="M62.5 5a2.5 2.5 0 1 0 5 0 2.5 2.5 0 1 0-5 0m-50 50a2.5 2.5 0 1 0 5 0 2.5 2.5 0 1 0-5 0" fill="rgba(0, 0, 0, 1)"/>
      <path d="M175 165h-50l-10-10V75" stroke-width="1.67" stroke="rgba(0, 0, 0, 1)"/>
      <path d="M172.5 165a2.5 2.5 0 1 0 5 0 2.5 2.5 0 1 0-5 0m-60-90a2.5 2.5 0 1 0 5 0 2.5 2.5 0 1 0-5 0" fill="rgba(0, 0, 0, 1)"/>
      <path d="M445 105h-70l-10 10v10" stroke-width="1.67" stroke="rgba(0, 0, 0, 1)"/>
      <path d="M442.5 105a2.5 2.5 0 1 0 5 0 2.5 2.5 0 1 0-5 0m-80 20a2.5 2.5 0 1 0 5 0 2.5 2.5 0 1 0-5 0" fill="rgba(0, 0, 0, 1)"/>
      <path d="M75 105H35" stroke-width="1.67" stroke="rgba(0, 0, 0, 1)"/>
      <path d="M72.5 105a2.5 2.5 0 1 0 5 0 2.5 2.5 0 1 0-5 0m-40 0a2.5 2.5 0 1 0 5 0 2.5 2.5 0 1 0-5 0" fill="rgba(0, 0, 0, 1)"/>
      <path d="m55 145 30 30v20l-10 10v10" stroke-width="1.67" stroke="rgba(0, 0, 0, 1)"/>
      <path d="M52.5 145a2.5 2.5 0 1 0 5 0 2.5 2.5 0 1 0-5 0m20 70a2.5 2.5 0 1 0 5 0 2.5 2.5 0 1 0-5 0" fill="rgba(0, 0, 0, 1)"/>
      <path d="m285 265 20 20h60" stroke-width="1.67" stroke="rgba(0, 0, 0, 1)"/>
      <path d="M282.5 265a2.5 2.5 0 1 0 5 0 2.5 2.5 0 1 0-5 0m80 20a2.5 2.5 0 1 0 5 0 2.5 2.5 0 1 0-5 0" fill="rgba(0, 0, 0, 1)"/>
      <path d="m245 85 10-10h30" stroke-width="1.67" stroke="rgba(0, 0, 0, 1)"/>
      <path d="M242.5 85a2.5 2.5 0 1 0 5 0 2.5 2.5 0 1 0-5 0m40-10a2.5 2.5 0 1 0 5 0 2.5 2.5 0 1 0-5 0" fill="rgba(0, 0, 0, 1)"/>
      <path d="m435 95 60-60V5" stroke-width="1.67" stroke="rgba(0, 0, 0, 1)"/>
      <path d="M432.5 95a2.5 2.5 0 1 0 5 0 2.5 2.5 0 1 0-5 0m60-90a2.5 2.5 0 1 0 5 0 2.5 2.5 0 1 0-5 0" fill="rgba(0, 0, 0, 1)"/>
      <path d="M385 155h90" stroke-width="1.67" stroke="rgba(0, 0, 0, 1)"/>
      <path d="M382.5 155a2.5 2.5 0 1 0 5 0 2.5 2.5 0 1 0-5 0m90 0a2.5 2.5 0 1 0 5 0 2.5 2.5 0 1 0-5 0" fill="rgba(0, 0, 0, 1)"/>
      <path d="m405 175 10-10h60" stroke-width="1.67" stroke="rgba(0, 0, 0, 1)"/>
      <path d="M402.5 175a2.5 2.5 0 1 0 5 0 2.5 2.5 0 1 0-5 0m70-10a2.5 2.5 0 1 0 5 0 2.5 2.5 0 1 0-5 0" fill="rgba(0, 0, 0, 1)"/>
      <path d="m305 225-10 10h-10l-20-20" stroke-width="1.67" stroke="rgba(0, 0, 0, 1)"/>
      <path d="M302.5 225a2.5 2.5 0 1 0 5 0 2.5 2.5 0 1 0-5 0m-40-10a2.5 2.5 0 1 0 5 0 2.5 2.5 0 1 0-5 0" fill="rgba(0, 0, 0, 1)"/>
      <path d="M195 35v20" stroke-width="1.67" stroke="rgba(0, 0, 0, 1)"/>
      <path d="M192.5 35a2.5 2.5 0 1 0 5 0 2.5 2.5 0 1 0-5 0m0 20a2.5 2.5 0 1 0 5 0 2.5 2.5 0 1 0-5 0" fill="rgba(0, 0, 0, 1)"/>
      <path d="M15 95V75" stroke-width="1.67" stroke="rgba(0, 0, 0, 1)"/>
      <path d="M12.5 95a2.5 2.5 0 1 0 5 0 2.5 2.5 0 1 0-5 0m0-20a2.5 2.5 0 1 0 5 0 2.5 2.5 0 1 0-5 0" fill="rgba(0, 0, 0, 1)"/>
      <path d="M155 75h90" stroke-width="1.67" stroke="rgba(0, 0, 0, 1)"/>
      <path d="M152.5 75a2.5 2.5 0 1 0 5 0 2.5 2.5 0 1 0-5 0m90 0a2.5 2.5 0 1 0 5 0 2.5 2.5 0 1 0-5 0" fill="rgba(0, 0, 0, 1)"/>
      <path d="M325 235h10l10-10" stroke-width="1.67" stroke="rgba(0, 0, 0, 1)"/>
      <path d="M322.5 235a2.5 2.5 0 1 0 5 0 2.5 2.5 0 1 0-5 0m20-10a2.5 2.5 0 1 0 5 0 2.5 2.5 0 1 0-5 0" fill="rgba(0, 0, 0, 1)"/>
      <path d="M105 195h10l10-10" stroke-width="1.67" stroke="rgba(0, 0, 0, 1)"/>
      <path d="M102.5 195a2.5 2.5 0 1 0 5 0 2.5 2.5 0 1 0-5 0m20-10a2.5 2.5 0 1 0 5 0 2.5 2.5 0 1 0-5 0" fill="rgba(0, 0, 0, 1)"/>
      <path d="M195 265h30l20 20h40" stroke-width="1.67" stroke="rgba(0, 0, 0, 1)"/>
      <path d="M192.5 265a2.5 2.5 0 1 0 5 0 2.5 2.5 0 1 0-5 0m90 20a2.5 2.5 0 1 0 5 0 2.5 2.5 0 1 0-5 0" fill="rgba(0, 0, 0, 1)"/>
      <path d="m85 45 10 10h90" stroke-width="1.67" stroke="rgba(0, 0, 0, 1)"/>
      <path d="M82.5 45a2.5 2.5 0 1 0 5 0 2.5 2.5 0 1 0-5 0m100 10a2.5 2.5 0 1 0 5 0 2.5 2.5 0 1 0-5 0" fill="rgba(0, 0, 0, 1)"/>
      <path d="m435 245-10-10v-30" stroke-width="1.67" stroke="rgba(0, 0, 0, 1)"/>
      <path d="M432.5 245a2.5 2.5 0 1 0 5 0 2.5 2.5 0 1 0-5 0m-10-40a2.5 2.5 0 1 0 5 0 2.5 2.5 0 1 0-5 0" fill="rgba(0, 0, 0, 1)"/>
      <path d="M185 15h30" stroke-width="1.67" stroke="rgba(0, 0, 0, 1)"/>
      <path d="M182.5 15a2.5 2.5 0 1 0 5 0 2.5 2.5 0 1 0-5 0m30 0a2.5 2.5 0 1 0 5 0 2.5 2.5 0 1 0-5 0" fill="rgba(0, 0, 0, 1)"/>
      <path d="M195 115h-70" stroke-width="1.67" stroke="rgba(0, 0, 0, 1)"/>
      <path d="M192.5 115a2.5 2.5 0 1 0 5 0 2.5 2.5 0 1 0-5 0m-70 0a2.5 2.5 0 1 0 5 0 2.5 2.5 0 1 0-5 0" fill="rgba(0, 0, 0, 1)"/>
      <path d="M75 145v10l10 10" stroke-width="1.67" stroke="rgba(0, 0, 0, 1)"/>
      <path d="M72.5 145a2.5 2.5 0 1 0 5 0 2.5 2.5 0 1 0-5 0m10 20a2.5 2.5 0 1 0 5 0 2.5 2.5 0 1 0-5 0" fill="rgba(0, 0, 0, 1)"/>
      <path d="M225 105h10l20-20h20" stroke-width="1.67" stroke="rgba(0, 0, 0, 1)"/>
      <path d="M222.5 105a2.5 2.5 0 1 0 5 0 2.5 2.5 0 1 0-5 0m50-20a2.5 2.5 0 1 0 5 0 2.5 2.5 0 1 0-5 0" fill="rgba(0, 0, 0, 1)"/>
      <path d="M175 295h-20" stroke-width="1.67" stroke="rgba(0, 0, 0, 1)"/>
      <path d="M172.5 295a2.5 2.5 0 1 0 5 0 2.5 2.5 0 1 0-5 0m-20 0a2.5 2.5 0 1 0 5 0 2.5 2.5 0 1 0-5 0" fill="rgba(0, 0, 0, 1)"/>
      <path d="M405 95h-20" stroke-width="1.67" stroke="rgba(0, 0, 0, 1)"/>
      <path d="M402.5 95a2.5 2.5 0 1 0 5 0 2.5 2.5 0 1 0-5 0m-20 0a2.5 2.5 0 1 0 5 0 2.5 2.5 0 1 0-5 0" fill="rgba(0, 0, 0, 1)"/>
      <path d="m245 195-40-40" stroke-width="1.67" stroke="rgba(0, 0, 0, 1)"/>
      <path d="M242.5 195a2.5 2.5 0 1 0 5 0 2.5 2.5 0 1 0-5 0m-40-40a2.5 2.5 0 1 0 5 0 2.5 2.5 0 1 0-5 0" fill="rgba(0, 0, 0, 1)"/>
      <path d="m385 285 20-20" stroke-width="1.67" stroke="rgba(0, 0, 0, 1)"/>
      <path d="M382.5 285a2.5 2.5 0 1 0 5 0 2.5 2.5 0 1 0-5 0m20-20a2.5 2.5 0 1 0 5 0 2.5 2.5 0 1 0-5 0" fill="rgba(0, 0, 0, 1)"/>
      <path d="M275 105v70" stroke-width="1.67" stroke="rgba(0, 0, 0, 1)"/>
      <path d="M272.5 105a2.5 2.5 0 1 0 5 0 2.5 2.5 0 1 0-5 0m0 70a2.5 2.5 0 1 0 5 0 2.5 2.5 0 1 0-5 0" fill="rgba(0, 0, 0, 1)"/>
      <path d="M325 155v20l60 60v10" stroke-width="1.67" stroke="rgba(0, 0, 0, 1)"/>
      <path d="M322.5 155a2.5 2.5 0 1 0 5 0 2.5 2.5 0 1 0-5 0m60 90a2.5 2.5 0 1 0 5 0 2.5 2.5 0 1 0-5 0" fill="rgba(0, 0, 0, 1)"/>
      <path d="M445 65h10l10-10V25l20-20" stroke-width="1.67" stroke="rgba(0, 0, 0, 1)"/>
      <path d="M442.5 65a2.5 2.5 0 1 0 5 0 2.5 2.5 0 1 0-5 0m40-60a2.5 2.5 0 1 0 5 0 2.5 2.5 0 1 0-5 0" fill="rgba(0, 0, 0, 1)"/>
      <path d="M405 285h-10l-10 10h-10" stroke-width="1.67" stroke="rgba(0, 0, 0, 1)"/>
      <path d="M402.5 285a2.5 2.5 0 1 0 5 0 2.5 2.5 0 1 0-5 0m-30 10a2.5 2.5 0 1 0 5 0 2.5 2.5 0 1 0-5 0" fill="rgba(0, 0, 0, 1)"/>
      <path d="M15 15v30" stroke-width="1.67" stroke="rgba(0, 0, 0, 1)"/>
      <path d="M12.5 15a2.5 2.5 0 1 0 5 0 2.5 2.5 0 1 0-5 0m0 30a2.5 2.5 0 1 0 5 0 2.5 2.5 0 1 0-5 0" fill="rgba(0, 0, 0, 1)"/>
      <path d="m465 85 30-30V45" stroke-width="1.67" stroke="rgba(0, 0, 0, 1)"/>
      <path d="M462.5 85a2.5 2.5 0 1 0 5 0 2.5 2.5 0 1 0-5 0m30-40a2.5 2.5 0 1 0 5 0 2.5 2.5 0 1 0-5 0" fill="rgba(0, 0, 0, 1)"/>
      <path d="m5 215 20-20" stroke-width="1.67" stroke="rgba(0, 0, 0, 1)"/>
      <path d="M2.5 215a2.5 2.5 0 1 0 5 0 2.5 2.5 0 1 0-5 0m20-20a2.5 2.5 0 1 0 5 0 2.5 2.5 0 1 0-5 0" fill="rgba(0, 0, 0, 1)"/>
      <path d="m45 145-20 20" stroke-width="1.67" stroke="rgba(0, 0, 0, 1)"/>
      <path d="M42.5 145a2.5 2.5 0 1 0 5 0 2.5 2.5 0 1 0-5 0m-20 20a2.5 2.5 0 1 0 5 0 2.5 2.5 0 1 0-5 0" fill="rgba(0, 0, 0, 1)"/>
      <path d="M25 225H5" stroke-width="1.67" stroke="rgba(0, 0, 0, 1)"/>
      <path d="M22.5 225a2.5 2.5 0 1 0 5 0 2.5 2.5 0 1 0-5 0m-20 0a2.5 2.5 0 1 0 5 0 2.5 2.5 0 1 0-5 0" fill="rgba(0, 0, 0, 1)"/>
      <path d="M85 25v10l10 10h20l10-10V5" stroke-width="1.67" stroke="rgba(0, 0, 0, 1)"/>
      <path d="M82.5 25a2.5 2.5 0 1 0 5 0 2.5 2.5 0 1 0-5 0m40-20a2.5 2.5 0 1 0 5 0 2.5 2.5 0 1 0-5 0" fill="rgba(0, 0, 0, 1)"/>
      <path d="m205 165 40 40v10l-10 10h-10l-40-40v-10l10-10" stroke-width="1.67" stroke="rgba(0, 0, 0, 1)"/>
      <path d="M202.5 165a2.5 2.5 0 1 0 5 0 2.5 2.5 0 1 0-5 0m-10 0a2.5 2.5 0 1 0 5 0 2.5 2.5 0 1 0-5 0" fill="rgba(0, 0, 0, 1)"/>
      <path d="m425 5-30 30h-70" stroke-width="1.67" stroke="rgba(0, 0, 0, 1)"/>
      <path d="M422.5 5a2.5 2.5 0 1 0 5 0 2.5 2.5 0 1 0-5 0m-100 30a2.5 2.5 0 1 0 5 0 2.5 2.5 0 1 0-5 0" fill="rgba(0, 0, 0, 1)"/>
      <path d="M45 45 85 5h30" stroke-width="1.67" stroke="rgba(0, 0, 0, 1)"/>
      <path d="M42.5 45a2.5 2.5 0 1 0 5 0 2.5 2.5 0 1 0-5 0m70-40a2.5 2.5 0 1 0 5 0 2.5 2.5 0 1 0-5 0" fill="rgba(0, 0, 0, 1)"/>
      <path d="m185 205-10 10h-20" stroke-width="1.67" stroke="rgba(0, 0, 0, 1)"/>
      <path d="M182.5 205a2.5 2.5 0 1 0 5 0 2.5 2.5 0 1 0-5 0m-30 10a2.5 2.5 0 1 0 5 0 2.5 2.5 0 1 0-5 0" fill="rgba(0, 0, 0, 1)"/>
      <path d="m155 25 20 20h10" stroke-width="1.67" stroke="rgba(0, 0, 0, 1)"/>
      <path d="M152.5 25a2.5 2.5 0 1 0 5 0 2.5 2.5 0 1 0-5 0m30 20a2.5 2.5 0 1 0 5 0 2.5 2.5 0 1 0-5 0" fill="rgba(0, 0, 0, 1)"/>
      <path d="m325 265-10 10h-10l-20-20h-10" stroke-width="1.67" stroke="rgba(0, 0, 0, 1)"/>
      <path d="M322.5 265a2.5 2.5 0 1 0 5 0 2.5 2.5 0 1 0-5 0m-50-10a2.5 2.5 0 1 0 5 0 2.5 2.5 0 1 0-5 0" fill="rgba(0, 0, 0, 1)"/>
      <path d="M255 25h-10l-10-10V5" stroke-width="1.67" stroke="rgba(0, 0, 0, 1)"/>
      <path d="M252.5 25a2.5 2.5 0 1 0 5 0 2.5 2.5 0 1 0-5 0m-20-20a2.5 2.5 0 1 0 5 0 2.5 2.5 0 1 0-5 0" fill="rgba(0, 0, 0, 1)"/>
      <path d="M145 105V75" stroke-width="1.67" stroke="rgba(0, 0, 0, 1)"/>
      <path d="M142.5 105a2.5 2.5 0 1 0 5 0 2.5 2.5 0 1 0-5 0m0-30a2.5 2.5 0 1 0 5 0 2.5 2.5 0 1 0-5 0" fill="rgba(0, 0, 0, 1)"/>
      <path d="m455 275 40-40" stroke-width="1.67" stroke="rgba(0, 0, 0, 1)"/>
      <path d="M452.5 275a2.5 2.5 0 1 0 5 0 2.5 2.5 0 1 0-5 0m40-40a2.5 2.5 0 1 0 5 0 2.5 2.5 0 1 0-5 0" fill="rgba(0, 0, 0, 1)"/>
      <path d="m345 165 10 10v20l30 30" stroke-width="1.67" stroke="rgba(0, 0, 0, 1)"/>
      <path d="M342.5 165a2.5 2.5 0 1 0 5 0 2.5 2.5 0 1 0-5 0m40 60a2.5 2.5 0 1 0 5 0 2.5 2.5 0 1 0-5 0" fill="rgba(0, 0, 0, 1)"/>
      <path d="M135 275v-20" stroke-width="1.67" stroke="rgba(0, 0, 0, 1)"/>
      <path d="M132.5 275a2.5 2.5 0 1 0 5 0 2.5 2.5 0 1 0-5 0m0-20a2.5 2.5 0 1 0 5 0 2.5 2.5 0 1 0-5 0" fill="rgba(0, 0, 0, 1)"/>
      <path d="m75 235-20 20v10" stroke-width="1.67" stroke="rgba(0, 0, 0, 1)"/>
      <path d="M72.5 235a2.5 2.5 0 1 0 5 0 2.5 2.5 0 1 0-5 0m-20 30a2.5 2.5 0 1 0 5 0 2.5 2.5 0 1 0-5 0" fill="rgba(0, 0, 0, 1)"/>
      <path d="m305 205-20 20" stroke-width="1.67" stroke="rgba(0, 0, 0, 1)"/>
      <path d="M302.5 205a2.5 2.5 0 1 0 5 0 2.5 2.5 0 1 0-5 0m-20 20a2.5 2.5 0 1 0 5 0 2.5 2.5 0 1 0-5 0" fill="rgba(0, 0, 0, 1)"/>
      <path d="M265 125v40l-20 20" stroke-width="1.67" stroke="rgba(0, 0, 0, 1)"/>
      <path d="M262.5 125a2.5 2.5 0 1 0 5 0 2.5 2.5 0 1 0-5 0m-20 60a2.5 2.5 0 1 0 5 0 2.5 2.5 0 1 0-5 0" fill="rgba(0, 0, 0, 1)"/>
      <path d="M35 225 5 255" stroke-width="1.67" stroke="rgba(0, 0, 0, 1)"/>
      <path d="M32.5 225a2.5 2.5 0 1 0 5 0 2.5 2.5 0 1 0-5 0m-30 30a2.5 2.5 0 1 0 5 0 2.5 2.5 0 1 0-5 0" fill="rgba(0, 0, 0, 1)"/>
      <path d="M225 165h10l10 10" stroke-width="1.67" stroke="rgba(0, 0, 0, 1)"/>
      <path d="M222.5 165a2.5 2.5 0 1 0 5 0 2.5 2.5 0 1 0-5 0m20 10a2.5 2.5 0 1 0 5 0 2.5 2.5 0 1 0-5 0" fill="rgba(0, 0, 0, 1)"/>
      <path d="m405 75 20 20" stroke-width="1.67" stroke="rgba(0, 0, 0, 1)"/>
      <path d="M402.5 75a2.5 2.5 0 1 0 5 0 2.5 2.5 0 1 0-5 0m20 20a2.5 2.5 0 1 0 5 0 2.5 2.5 0 1 0-5 0" fill="rgba(0, 0, 0, 1)"/>
      <path d="m125 265-10 10h-10l-10-10v-10" stroke-width="1.67" stroke="rgba(0, 0, 0, 1)"/>
      <path d="M122.5 265a2.5 2.5 0 1 0 5 0 2.5 2.5 0 1 0-5 0m-30-10a2.5 2.5 0 1 0 5 0 2.5 2.5 0 1 0-5 0" fill="rgba(0, 0, 0, 1)"/>
      <path d="M75 185v-10l-20-20H45l-10 10v10l30 30" stroke-width="1.67" stroke="rgba(0, 0, 0, 1)"/>
      <path d="M72.5 185a2.5 2.5 0 1 0 5 0 2.5 2.5 0 1 0-5 0m-10 20a2.5 2.5 0 1 0 5 0 2.5 2.5 0 1 0-5 0" fill="rgba(0, 0, 0, 1)"/>
      <path d="M435 145h40" stroke-width="1.67" stroke="rgba(0, 0, 0, 1)"/>
      <path d="M432.5 145a2.5 2.5 0 1 0 5 0 2.5 2.5 0 1 0-5 0m40 0a2.5 2.5 0 1 0 5 0 2.5 2.5 0 1 0-5 0" fill="rgba(0, 0, 0, 1)"/>
      <path d="M5 295h50" stroke-width="1.67" stroke="rgba(0, 0, 0, 1)"/>
      <path d="M2.5 295a2.5 2.5 0 1 0 5 0 2.5 2.5 0 1 0-5 0m50 0a2.5 2.5 0 1 0 5 0 2.5 2.5 0 1 0-5 0" fill="rgba(0, 0, 0, 1)"/>
      <path d="M85 135v20" stroke-width="1.67" stroke="rgba(0, 0, 0, 1)"/>
      <path d="M82.5 135a2.5 2.5 0 1 0 5 0 2.5 2.5 0 1 0-5 0m0 20a2.5 2.5 0 1 0 5 0 2.5 2.5 0 1 0-5 0" fill="rgba(0, 0, 0, 1)"/>
      <path d="M325 145h-20" stroke-width="1.67" stroke="rgba(0, 0, 0, 1)"/>
      <path d="M322.5 145a2.5 2.5 0 1 0 5 0 2.5 2.5 0 1 0-5 0m-20 0a2.5 2.5 0 1 0 5 0 2.5 2.5 0 1 0-5 0" fill="rgba(0, 0, 0, 1)"/>
      <path d="M205 85h30" stroke-width="1.67" stroke="rgba(0, 0, 0, 1)"/>
      <path d="M202.5 85a2.5 2.5 0 1 0 5 0 2.5 2.5 0 1 0-5 0m30 0a2.5 2.5 0 1 0 5 0 2.5 2.5 0 1 0-5 0" fill="rgba(0, 0, 0, 1)"/>
      <path d="M55 65 35 85v10" stroke-width="1.67" stroke="rgba(0, 0, 0, 1)"/>
      <path d="M52.5 65a2.5 2.5 0 1 0 5 0 2.5 2.5 0 1 0-5 0m-20 30a2.5 2.5 0 1 0 5 0 2.5 2.5 0 1 0-5 0" fill="rgba(0, 0, 0, 1)"/>
      <path d="m145 195 20-20" stroke-width="1.67" stroke="rgba(0, 0, 0, 1)"/>
      <path d="M142.5 195a2.5 2.5 0 1 0 5 0 2.5 2.5 0 1 0-5 0m20-20a2.5 2.5 0 1 0 5 0 2.5 2.5 0 1 0-5 0" fill="rgba(0, 0, 0, 1)"/>
      <path d="m65 255 10-10h10" stroke-width="1.67" stroke="rgba(0, 0, 0, 1)"/>
      <path d="M62.5 255a2.5 2.5 0 1 0 5 0 2.5 2.5 0 1 0-5 0m20-10a2.5 2.5 0 1 0 5 0 2.5 2.5 0 1 0-5 0" fill="rgba(0, 0, 0, 1)"/>
      <path d="M105 95V75" stroke-width="1.67" stroke="rgba(0, 0, 0, 1)"/>
      <path d="M102.5 95a2.5 2.5 0 1 0 5 0 2.5 2.5 0 1 0-5 0m0-20a2.5 2.5 0 1 0 5 0 2.5 2.5 0 1 0-5 0" fill="rgba(0, 0, 0, 1)"/>
      <path d="m345 105 40-40h10" stroke-width="1.67" stroke="rgba(0, 0, 0, 1)"/>
      <path d="M342.5 105a2.5 2.5 0 1 0 5 0 2.5 2.5 0 1 0-5 0m50-40a2.5 2.5 0 1 0 5 0 2.5 2.5 0 1 0-5 0" fill="rgba(0, 0, 0, 1)"/>
      <path d="m225 25 10 10v10l-10 10" stroke-width="1.67" stroke="rgba(0, 0, 0, 1)"/>
      <path d="M222.5 25a2.5 2.5 0 1 0 5 0 2.5 2.5 0 1 0-5 0m0 30a2.5 2.5 0 1 0 5 0 2.5 2.5 0 1 0-5 0" fill="rgba(0, 0, 0, 1)"/>
      <path d="M55 55h20l20 20v10L85 95H45" stroke-width="1.67" stroke="rgba(0, 0, 0, 1)"/>
      <path d="M52.5 55a2.5 2.5 0 1 0 5 0 2.5 2.5 0 1 0-5 0m-10 40a2.5 2.5 0 1 0 5 0 2.5 2.5 0 1 0-5 0" fill="rgba(0, 0, 0, 1)"/>
      <path d="M385 45h-60" stroke-width="1.67" stroke="rgba(0, 0, 0, 1)"/>
      <path d="M382.5 45a2.5 2.5 0 1 0 5 0 2.5 2.5 0 1 0-5 0m-60 0a2.5 2.5 0 1 0 5 0 2.5 2.5 0 1 0-5 0" fill="rgba(0, 0, 0, 1)"/>
      <path d="M35 285H5" stroke-width="1.67" stroke="rgba(0, 0, 0, 1)"/>
      <path d="M32.5 285a2.5 2.5 0 1 0 5 0 2.5 2.5 0 1 0-5 0m-30 0a2.5 2.5 0 1 0 5 0 2.5 2.5 0 1 0-5 0" fill="rgba(0, 0, 0, 1)"/>
      <path d="m415 25-20 20" stroke-width="1.67" stroke="rgba(0, 0, 0, 1)"/>
      <path d="M412.5 25a2.5 2.5 0 1 0 5 0 2.5 2.5 0 1 0-5 0m-20 20a2.5 2.5 0 1 0 5 0 2.5 2.5 0 1 0-5 0" fill="rgba(0, 0, 0, 1)"/>
      <path d="m65 125-10-10H45l-30 30v10" stroke-width="1.67" stroke="rgba(0, 0, 0, 1)"/>
      <path d="M62.5 125a2.5 2.5 0 1 0 5 0 2.5 2.5 0 1 0-5 0m-50 30a2.5 2.5 0 1 0 5 0 2.5 2.5 0 1 0-5 0" fill="rgba(0, 0, 0, 1)"/>
      <path d="M75 25 55 45" stroke-width="1.67" stroke="rgba(0, 0, 0, 1)"/>
      <path d="M72.5 25a2.5 2.5 0 1 0 5 0 2.5 2.5 0 1 0-5 0m-20 20a2.5 2.5 0 1 0 5 0 2.5 2.5 0 1 0-5 0" fill="rgba(0, 0, 0, 1)"/>
      <path d="M455 285h-30" stroke-width="1.67" stroke="rgba(0, 0, 0, 1)"/>
      <path d="M452.5 285a2.5 2.5 0 1 0 5 0 2.5 2.5 0 1 0-5 0m-30 0a2.5 2.5 0 1 0 5 0 2.5 2.5 0 1 0-5 0" fill="rgba(0, 0, 0, 1)"/>
      <path d="M25 145h10l20-20" stroke-width="1.67" stroke="rgba(0, 0, 0, 1)"/>
      <path d="M22.5 145a2.5 2.5 0 1 0 5 0 2.5 2.5 0 1 0-5 0m30-20a2.5 2.5 0 1 0 5 0 2.5 2.5 0 1 0-5 0" fill="rgba(0, 0, 0, 1)"/>
      <path d="M485 115V75l10-10" stroke-width="1.67" stroke="rgba(0, 0, 0, 1)"/>
      <path d="M482.5 115a2.5 2.5 0 1 0 5 0 2.5 2.5 0 1 0-5 0m10-50a2.5 2.5 0 1 0 5 0 2.5 2.5 0 1 0-5 0" fill="rgba(0, 0, 0, 1)"/>
      <path d="m305 185 30 30v10" stroke-width="1.67" stroke="rgba(0, 0, 0, 1)"/>
      <path d="M302.5 185a2.5 2.5 0 1 0 5 0 2.5 2.5 0 1 0-5 0m30 40a2.5 2.5 0 1 0 5 0 2.5 2.5 0 1 0-5 0" fill="rgba(0, 0, 0, 1)"/>
      <path d="m465 105 10-10V85" stroke-width="1.67" stroke="rgba(0, 0, 0, 1)"/>
      <path d="M462.5 105a2.5 2.5 0 1 0 5 0 2.5 2.5 0 1 0-5 0m10-20a2.5 2.5 0 1 0 5 0 2.5 2.5 0 1 0-5 0" fill="rgba(0, 0, 0, 1)"/>
      <path d="m15 255 10 10h20" stroke-width="1.67" stroke="rgba(0, 0, 0, 1)"/>
      <path d="M12.5 255a2.5 2.5 0 1 0 5 0 2.5 2.5 0 1 0-5 0m30 10a2.5 2.5 0 1 0 5 0 2.5 2.5 0 1 0-5 0" fill="rgba(0, 0, 0, 1)"/>
      <path d="M105 165v20" stroke-width="1.67" stroke="rgba(0, 0, 0, 1)"/>
      <path d="M102.5 165a2.5 2.5 0 1 0 5 0 2.5 2.5 0 1 0-5 0m0 20a2.5 2.5 0 1 0 5 0 2.5 2.5 0 1 0-5 0" fill="rgba(0, 0, 0, 1)"/>
      <path d="M365 75h-30" stroke-width="1.67" stroke="rgba(0, 0, 0, 1)"/>
      <path d="M362.5 75a2.5 2.5 0 1 0 5 0 2.5 2.5 0 1 0-5 0m-30 0a2.5 2.5 0 1 0 5 0 2.5 2.5 0 1 0-5 0" fill="rgba(0, 0, 0, 1)"/>
      <path d="m405 5-10 10h-10" stroke-width="1.67" stroke="rgba(0, 0, 0, 1)"/>
      <path d="M402.5 5a2.5 2.5 0 1 0 5 0 2.5 2.5 0 1 0-5 0m-20 10a2.5 2.5 0 1 0 5 0 2.5 2.5 0 1 0-5 0" fill="rgba(0, 0, 0, 1)"/>
      <path d="M215 195v-10l-10-10h-10" stroke-width="1.67" stroke="rgba(0, 0, 0, 1)"/>
      <path d="M212.5 195a2.5 2.5 0 1 0 5 0 2.5 2.5 0 1 0-5 0m-20-20a2.5 2.5 0 1 0 5 0 2.5 2.5 0 1 0-5 0" fill="rgba(0, 0, 0, 1)"/>
      <path d="M495 245v20" stroke-width="1.67" stroke="rgba(0, 0, 0, 1)"/>
      <path d="M492.5 245a2.5 2.5 0 1 0 5 0 2.5 2.5 0 1 0-5 0m0 20a2.5 2.5 0 1 0 5 0 2.5 2.5 0 1 0-5 0" fill="rgba(0, 0, 0, 1)"/>
      <path d="m245 235 10-10h10" stroke-width="1.67" stroke="rgba(0, 0, 0, 1)"/>
      <path d="M242.5 235a2.5 2.5 0 1 0 5 0 2.5 2.5 0 1 0-5 0m20-10a2.5 2.5 0 1 0 5 0 2.5 2.5 0 1 0-5 0" fill="rgba(0, 0, 0, 1)"/>
      <path d="M15 125v-20" stroke-width="1.67" stroke="rgba(0, 0, 0, 1)"/>
      <path d="M12.5 125a2.5 2.5 0 1 0 5 0 2.5 2.5 0 1 0-5 0m0-20a2.5 2.5 0 1 0 5 0 2.5 2.5 0 1 0-5 0" fill="rgba(0, 0, 0, 1)"/>
      <path d="M305 105V65" stroke-width="1.67" stroke="rgba(0, 0, 0, 1)"/>
      <path d="M302.5 105a2.5 2.5 0 1 0 5 0 2.5 2.5 0 1 0-5 0m0-40a2.5 2.5 0 1 0 5 0 2.5 2.5 0 1 0-5 0" fill="rgba(0, 0, 0, 1)"/>
      <path d="m465 295 10-10v-20" stroke-width="1.67" stroke="rgba(0, 0, 0, 1)"/>
      <path d="M462.5 295a2.5 2.5 0 1 0 5 0 2.5 2.5 0 1 0-5 0m10-30a2.5 2.5 0 1 0 5 0 2.5 2.5 0 1 0-5 0" fill="rgba(0, 0, 0, 1)"/>
      <path d="M105 235h20" stroke-width="1.67" stroke="rgba(0, 0, 0, 1)"/>
      <path d="M102.5 235a2.5 2.5 0 1 0 5 0 2.5 2.5 0 1 0-5 0m20 0a2.5 2.5 0 1 0 5 0 2.5 2.5 0 1 0-5 0" fill="rgba(0, 0, 0, 1)"/>
      <path d="M375 115h40" stroke-width="1.67" stroke="rgba(0, 0, 0, 1)"/>
      <path d="M372.5 115a2.5 2.5 0 1 0 5 0 2.5 2.5 0 1 0-5 0m40 0a2.5 2.5 0 1 0 5 0 2.5 2.5 0 1 0-5 0" fill="rgba(0, 0, 0, 1)"/>
      <path d="M445 35h-10l-10-10V15l10-10" stroke-width="1.67" stroke="rgba(0, 0, 0, 1)"/>
      <path d="M442.5 35a2.5 2.5 0 1 0 5 0 2.5 2.5 0 1 0-5 0m-10-30a2.5 2.5 0 1 0 5 0 2.5 2.5 0 1 0-5 0" fill="rgba(0, 0, 0, 1)"/>
      <path d="M425 175h40" stroke-width="1.67" stroke="rgba(0, 0, 0, 1)"/>
      <path d="M422.5 175a2.5 2.5 0 1 0 5 0 2.5 2.5 0 1 0-5 0m40 0a2.5 2.5 0 1 0 5 0 2.5 2.5 0 1 0-5 0" fill="rgba(0, 0, 0, 1)"/>
      <path d="M125 105V85" stroke-width="1.67" stroke="rgba(0, 0, 0, 1)"/>
      <path d="M122.5 105a2.5 2.5 0 1 0 5 0 2.5 2.5 0 1 0-5 0m0-20a2.5 2.5 0 1 0 5 0 2.5 2.5 0 1 0-5 0" fill="rgba(0, 0, 0, 1)"/>
      <path d="m175 105-20-20" stroke-width="1.67" stroke="rgba(0, 0, 0, 1)"/>
      <path d="M172.5 105a2.5 2.5 0 1 0 5 0 2.5 2.5 0 1 0-5 0m-20-20a2.5 2.5 0 1 0 5 0 2.5 2.5 0 1 0-5 0" fill="rgba(0, 0, 0, 1)"/>
      <path d="M25 65V55l10-10" stroke-width="1.67" stroke="rgba(0, 0, 0, 1)"/>
      <path d="M22.5 65a2.5 2.5 0 1 0 5 0 2.5 2.5 0 1 0-5 0m10-20a2.5 2.5 0 1 0 5 0 2.5 2.5 0 1 0-5 0" fill="rgba(0, 0, 0, 1)"/>
      <path d="m245 145 10-10V95" stroke-width="1.67" stroke="rgba(0, 0, 0, 1)"/>
      <path d="M242.5 145a2.5 2.5 0 1 0 5 0 2.5 2.5 0 1 0-5 0m10-50a2.5 2.5 0 1 0 5 0 2.5 2.5 0 1 0-5 0" fill="rgba(0, 0, 0, 1)"/>
      <path d="M135 175h20" stroke-width="1.67" stroke="rgba(0, 0, 0, 1)"/>
      <path d="M132.5 175a2.5 2.5 0 1 0 5 0 2.5 2.5 0 1 0-5 0m20 0a2.5 2.5 0 1 0 5 0 2.5 2.5 0 1 0-5 0" fill="rgba(0, 0, 0, 1)"/>
      <path d="m455 215 10-10h20" stroke-width="1.67" stroke="rgba(0, 0, 0, 1)"/>
      <path d="M452.5 215a2.5 2.5 0 1 0 5 0 2.5 2.5 0 1 0-5 0m30-10a2.5 2.5 0 1 0 5 0 2.5 2.5 0 1 0-5 0" fill="rgba(0, 0, 0, 1)"/>
      <path d="m345 85-10 10v10" stroke-width="1.67" stroke="rgba(0, 0, 0, 1)"/>
      <path d="M342.5 85a2.5 2.5 0 1 0 5 0 2.5 2.5 0 1 0-5 0m-10 20a2.5 2.5 0 1 0 5 0 2.5 2.5 0 1 0-5 0" fill="rgba(0, 0, 0, 1)"/>
      <path d="M95 205v20" stroke-width="1.67" stroke="rgba(0, 0, 0, 1)"/>
      <path d="M92.5 205a2.5 2.5 0 1 0 5 0 2.5 2.5 0 1 0-5 0m0 20a2.5 2.5 0 1 0 5 0 2.5 2.5 0 1 0-5 0" fill="rgba(0, 0, 0, 1)"/>
      <path d="m25 5 10 10h10L55 5" stroke-width="1.67" stroke="rgba(0, 0, 0, 1)"/>
      <path d="M22.5 5a2.5 2.5 0 1 0 5 0 2.5 2.5 0 1 0-5 0m30 0a2.5 2.5 0 1 0 5 0 2.5 2.5 0 1 0-5 0" fill="rgba(0, 0, 0, 1)"/>
      <path d="M485 15v20l-10 10" stroke-width="1.67" stroke="rgba(0, 0, 0, 1)"/>
      <path d="M482.5 15a2.5 2.5 0 1 0 5 0 2.5 2.5 0 1 0-5 0m-10 30a2.5 2.5 0 1 0 5 0 2.5 2.5 0 1 0-5 0" fill="rgba(0, 0, 0, 1)"/>
      <path d="m195 95 20 20" stroke-width="1.67" stroke="rgba(0, 0, 0, 1)"/>
      <path d="M192.5 95a2.5 2.5 0 1 0 5 0 2.5 2.5 0 1 0-5 0m20 20a2.5 2.5 0 1 0 5 0 2.5 2.5 0 1 0-5 0" fill="rgba(0, 0, 0, 1)"/>
      <path d="M145 15h30" stroke-width="1.67" stroke="rgba(0, 0, 0, 1)"/>
      <path d="M142.5 15a2.5 2.5 0 1 0 5 0 2.5 2.5 0 1 0-5 0m30 0a2.5 2.5 0 1 0 5 0 2.5 2.5 0 1 0-5 0" fill="rgba(0, 0, 0, 1)"/>
      <path d="M35 55v20" stroke-width="1.67" stroke="rgba(0, 0, 0, 1)"/>
      <path d="M32.5 55a2.5 2.5 0 1 0 5 0 2.5 2.5 0 1 0-5 0m0 20a2.5 2.5 0 1 0 5 0 2.5 2.5 0 1 0-5 0" fill="rgba(0, 0, 0, 1)"/>
      <path d="M405 135h50" stroke-width="1.67" stroke="rgba(0, 0, 0, 1)"/>
      <path d="M402.5 135a2.5 2.5 0 1 0 5 0 2.5 2.5 0 1 0-5 0m50 0a2.5 2.5 0 1 0 5 0 2.5 2.5 0 1 0-5 0" fill="rgba(0, 0, 0, 1)"/>
      <path d="M355 5v20" stroke-width="1.67" stroke="rgba(0, 0, 0, 1)"/>
      <path d="M352.5 5a2.5 2.5 0 1 0 5 0 2.5 2.5 0 1 0-5 0m0 20a2.5 2.5 0 1 0 5 0 2.5 2.5 0 1 0-5 0" fill="rgba(0, 0, 0, 1)"/>
      <path d="m195 85-10 10h-10l-10-10" stroke-width="1.67" stroke="rgba(0, 0, 0, 1)"/>
      <path d="M192.5 85a2.5 2.5 0 1 0 5 0 2.5 2.5 0 1 0-5 0m-30 0a2.5 2.5 0 1 0 5 0 2.5 2.5 0 1 0-5 0" fill="rgba(0, 0, 0, 1)"/>
      <path d="M155 125h20" stroke-width="1.67" stroke="rgba(0, 0, 0, 1)"/>
      <path d="M152.5 125a2.5 2.5 0 1 0 5 0 2.5 2.5 0 1 0-5 0m20 0a2.5 2.5 0 1 0 5 0 2.5 2.5 0 1 0-5 0" fill="rgba(0, 0, 0, 1)"/>
      <path d="M195 135v-10l10-10" stroke-width="1.67" stroke="rgba(0, 0, 0, 1)"/>
      <path d="M192.5 135a2.5 2.5 0 1 0 5 0 2.5 2.5 0 1 0-5 0m10-20a2.5 2.5 0 1 0 5 0 2.5 2.5 0 1 0-5 0" fill="rgba(0, 0, 0, 1)"/>
      <path d="M255 145v20" stroke-width="1.67" stroke="rgba(0, 0, 0, 1)"/>
      <path d="M252.5 145a2.5 2.5 0 1 0 5 0 2.5 2.5 0 1 0-5 0m0 20a2.5 2.5 0 1 0 5 0 2.5 2.5 0 1 0-5 0" fill="rgba(0, 0, 0, 1)"/>
      <path d="m455 15 10-10h10" stroke-width="1.67" stroke="rgba(0, 0, 0, 1)"/>
      <path d="M452.5 15a2.5 2.5 0 1 0 5 0 2.5 2.5 0 1 0-5 0m20-10a2.5 2.5 0 1 0 5 0 2.5 2.5 0 1 0-5 0" fill="rgba(0, 0, 0, 1)"/>
      <path d="m145 145-10 10h-10" stroke-width="1.67" stroke="rgba(0, 0, 0, 1)"/>
      <path d="M142.5 145a2.5 2.5 0 1 0 5 0 2.5 2.5 0 1 0-5 0m-20 10a2.5 2.5 0 1 0 5 0 2.5 2.5 0 1 0-5 0" fill="rgba(0, 0, 0, 1)"/>
      <path d="M125 45h40" stroke-width="1.67" stroke="rgba(0, 0, 0, 1)"/>
      <path d="M122.5 45a2.5 2.5 0 1 0 5 0 2.5 2.5 0 1 0-5 0m40 0a2.5 2.5 0 1 0 5 0 2.5 2.5 0 1 0-5 0" fill="rgba(0, 0, 0, 1)"/>
      <path d="m295 255 10 10h10" stroke-width="1.67" stroke="rgba(0, 0, 0, 1)"/>
      <path d="M292.5 255a2.5 2.5 0 1 0 5 0 2.5 2.5 0 1 0-5 0m20 10a2.5 2.5 0 1 0 5 0 2.5 2.5 0 1 0-5 0" fill="rgba(0, 0, 0, 1)"/>
      <path d="M195 145h-40l-10 10" stroke-width="1.67" stroke="rgba(0, 0, 0, 1)"/>
      <path d="M192.5 145a2.5 2.5 0 1 0 5 0 2.5 2.5 0 1 0-5 0m-50 10a2.5 2.5 0 1 0 5 0 2.5 2.5 0 1 0-5 0" fill="rgba(0, 0, 0, 1)"/>
      <path d="M75 65v20" stroke-width="1.67" stroke="rgba(0, 0, 0, 1)"/>
      <path d="M72.5 65a2.5 2.5 0 1 0 5 0 2.5 2.5 0 1 0-5 0m0 20a2.5 2.5 0 1 0 5 0 2.5 2.5 0 1 0-5 0" fill="rgba(0, 0, 0, 1)"/>
      <path d="M265 115V95" stroke-width="1.67" stroke="rgba(0, 0, 0, 1)"/>
      <path d="M262.5 115a2.5 2.5 0 1 0 5 0 2.5 2.5 0 1 0-5 0m0-20a2.5 2.5 0 1 0 5 0 2.5 2.5 0 1 0-5 0" fill="rgba(0, 0, 0, 1)"/>
      <path d="M475 215v20" stroke-width="1.67" stroke="rgba(0, 0, 0, 1)"/>
      <path d="M472.5 215a2.5 2.5 0 1 0 5 0 2.5 2.5 0 1 0-5 0m0 20a2.5 2.5 0 1 0 5 0 2.5 2.5 0 1 0-5 0" fill="rgba(0, 0, 0, 1)"/>
      <path d="M335 275h20" stroke-width="1.67" stroke="rgba(0, 0, 0, 1)"/>
      <path d="M332.5 275a2.5 2.5 0 1 0 5 0 2.5 2.5 0 1 0-5 0m20 0a2.5 2.5 0 1 0 5 0 2.5 2.5 0 1 0-5 0" fill="rgba(0, 0, 0, 1)"/>
    </g>
  </g>
  <defs>
    <mask id="a">
      <path fill="#fff" d="M0 0h500v300H0z"/>
    </mask>
    <mask id="b">
      <path fill="#fff" d="M0 0h500v300H0z"/>
      <path d="M233.75 55a1.25 1.25 0 1 0 2.5 0 1.25 1.25 0 1 0-2.5 0m190-20a1.25 1.25 0 1 0 2.5 0 1.25 1.25 0 1 0-2.5 0m-80-30a1.25 1.25 0 1 0 2.5 0 1.25 1.25 0 1 0-2.5 0m-30 40a1.25 1.25 0 1 0 2.5 0 1.25 1.25 0 1 0-2.5 0m0 20a1.25 1.25 0 1 0 2.5 0 1.25 1.25 0 1 0-2.5 0m150 120a1.25 1.25 0 1 0 2.5 0 1.25 1.25 0 1 0-2.5 0m-440-70a1.25 1.25 0 1 0 2.5 0 1.25 1.25 0 1 0-2.5 0M3.75 5a1.25 1.25 0 1 0 2.5 0 1.25 1.25 0 1 0-2.5 0m270 200a1.25 1.25 0 1 0 2.5 0 1.25 1.25 0 1 0-2.5 0m20-140a1.25 1.25 0 1 0 2.5 0 1.25 1.25 0 1 0-2.5 0m-210 190a1.25 1.25 0 1 0 2.5 0 1.25 1.25 0 1 0-2.5 0m-80 20a1.25 1.25 0 1 0 2.5 0 1.25 1.25 0 1 0-2.5 0m90-180a1.25 1.25 0 1 0 2.5 0 1.25 1.25 0 1 0-2.5 0m90 190a1.25 1.25 0 1 0 2.5 0 1.25 1.25 0 1 0-2.5 0m-70-20a1.25 1.25 0 1 0 2.5 0 1.25 1.25 0 1 0-2.5 0M3.75 75a1.25 1.25 0 1 0 2.5 0 1.25 1.25 0 1 0-2.5 0m370 210a1.25 1.25 0 1 0 2.5 0 1.25 1.25 0 1 0-2.5 0m-190-40a1.25 1.25 0 1 0 2.5 0 1.25 1.25 0 1 0-2.5 0m90-230a1.25 1.25 0 1 0 2.5 0 1.25 1.25 0 1 0-2.5 0m60-10a1.25 1.25 0 1 0 2.5 0 1.25 1.25 0 1 0-2.5 0m-290 250a1.25 1.25 0 1 0 2.5 0 1.25 1.25 0 1 0-2.5 0m-40-70a1.25 1.25 0 1 0 2.5 0 1.25 1.25 0 1 0-2.5 0m410 110a1.25 1.25 0 1 0 2.5 0 1.25 1.25 0 1 0-2.5 0m0-100a1.25 1.25 0 1 0 2.5 0 1.25 1.25 0 1 0-2.5 0m-150-20a1.25 1.25 0 1 0 2.5 0 1.25 1.25 0 1 0-2.5 0m-140 20a1.25 1.25 0 1 0 2.5 0 1.25 1.25 0 1 0-2.5 0m300-50a1.25 1.25 0 1 0 2.5 0 1.25 1.25 0 1 0-2.5 0m-100-80a1.25 1.25 0 1 0 2.5 0 1.25 1.25 0 1 0-2.5 0m120 200a1.25 1.25 0 1 0 2.5 0 1.25 1.25 0 1 0-2.5 0m50-180a1.25 1.25 0 1 0 2.5 0 1.25 1.25 0 1 0-2.5 0m-200 200a1.25 1.25 0 1 0 2.5 0 1.25 1.25 0 1 0-2.5 0m-140-40a1.25 1.25 0 1 0 2.5 0 1.25 1.25 0 1 0-2.5 0m130-200a1.25 1.25 0 1 0 2.5 0 1.25 1.25 0 1 0-2.5 0m10-30a1.25 1.25 0 1 0 2.5 0 1.25 1.25 0 1 0-2.5 0m-150 20a1.25 1.25 0 1 0 2.5 0 1.25 1.25 0 1 0-2.5 0m-10-30a1.25 1.25 0 1 0 2.5 0 1.25 1.25 0 1 0-2.5 0m120 40a1.25 1.25 0 1 0 2.5 0 1.25 1.25 0 1 0-2.5 0m-110-40a1.25 1.25 0 1 0 2.5 0 1.25 1.25 0 1 0-2.5 0m-80 290a1.25 1.25 0 1 0 2.5 0 1.25 1.25 0 1 0-2.5 0m100-20a1.25 1.25 0 1 0 2.5 0 1.25 1.25 0 1 0-2.5 0m50-50a1.25 1.25 0 1 0 2.5 0 1.25 1.25 0 1 0-2.5 0m-110-120a1.25 1.25 0 1 0 2.5 0 1.25 1.25 0 1 0-2.5 0m280 170a1.25 1.25 0 1 0 2.5 0 1.25 1.25 0 1 0-2.5 0m-90-190a1.25 1.25 0 1 0 2.5 0 1.25 1.25 0 1 0-2.5 0m0 110a1.25 1.25 0 1 0 2.5 0 1.25 1.25 0 1 0-2.5 0m0-80a1.25 1.25 0 1 0 2.5 0 1.25 1.25 0 1 0-2.5 0m-200-50a1.25 1.25 0 1 0 2.5 0 1.25 1.25 0 1 0-2.5 0m190 0a1.25 1.25 0 1 0 2.5 0 1.25 1.25 0 1 0-2.5 0m-200 140a1.25 1.25 0 1 0 2.5 0 1.25 1.25 0 1 0-2.5 0m-20 80a1.25 1.25 0 1 0 2.5 0 1.25 1.25 0 1 0-2.5 0m180-180a1.25 1.25 0 1 0 2.5 0 1.25 1.25 0 1 0-2.5 0m-100 110a1.25 1.25 0 1 0 2.5 0 1.25 1.25 0 1 0-2.5 0m300 80a1.25 1.25 0 1 0 2.5 0 1.25 1.25 0 1 0-2.5 0m-20 0a1.25 1.25 0 1 0 2.5 0 1.25 1.25 0 1 0-2.5 0m30-250a1.25 1.25 0 1 0 2.5 0 1.25 1.25 0 1 0-2.5 0m-20 80a1.25 1.25 0 1 0 2.5 0 1.25 1.25 0 1 0-2.5 0m0 110a1.25 1.25 0 1 0 2.5 0 1.25 1.25 0 1 0-2.5 0m0-40a1.25 1.25 0 1 0 2.5 0 1.25 1.25 0 1 0-2.5 0m-260 70a1.25 1.25 0 1 0 2.5 0 1.25 1.25 0 1 0-2.5 0m190 30a1.25 1.25 0 1 0 2.5 0 1.25 1.25 0 1 0-2.5 0m-100-250a1.25 1.25 0 1 0 2.5 0 1.25 1.25 0 1 0-2.5 0m0-40a1.25 1.25 0 1 0 2.5 0 1.25 1.25 0 1 0-2.5 0m160 110a1.25 1.25 0 1 0 2.5 0 1.25 1.25 0 1 0-2.5 0m10 150a1.25 1.25 0 1 0 2.5 0 1.25 1.25 0 1 0-2.5 0m-220-240a1.25 1.25 0 1 0 2.5 0 1.25 1.25 0 1 0-2.5 0m0 30a1.25 1.25 0 1 0 2.5 0 1.25 1.25 0 1 0-2.5 0m30 100a1.25 1.25 0 1 0 2.5 0 1.25 1.25 0 1 0-2.5 0m-20-20a1.25 1.25 0 1 0 2.5 0 1.25 1.25 0 1 0-2.5 0m80 20a1.25 1.25 0 1 0 2.5 0 1.25 1.25 0 1 0-2.5 0m70 120a1.25 1.25 0 1 0 2.5 0 1.25 1.25 0 1 0-2.5 0m-10-90a1.25 1.25 0 1 0 2.5 0 1.25 1.25 0 1 0-2.5 0m30 70a1.25 1.25 0 1 0 2.5 0 1.25 1.25 0 1 0-2.5 0M63.75 5a1.25 1.25 0 1 0 2.5 0 1.25 1.25 0 1 0-2.5 0m-50 50a1.25 1.25 0 1 0 2.5 0 1.25 1.25 0 1 0-2.5 0m160 110a1.25 1.25 0 1 0 2.5 0 1.25 1.25 0 1 0-2.5 0m-60-90a1.25 1.25 0 1 0 2.5 0 1.25 1.25 0 1 0-2.5 0m330 30a1.25 1.25 0 1 0 2.5 0 1.25 1.25 0 1 0-2.5 0m-80 20a1.25 1.25 0 1 0 2.5 0 1.25 1.25 0 1 0-2.5 0m-290-20a1.25 1.25 0 1 0 2.5 0 1.25 1.25 0 1 0-2.5 0m-40 0a1.25 1.25 0 1 0 2.5 0 1.25 1.25 0 1 0-2.5 0m20 40a1.25 1.25 0 1 0 2.5 0 1.25 1.25 0 1 0-2.5 0m20 70a1.25 1.25 0 1 0 2.5 0 1.25 1.25 0 1 0-2.5 0m210 50a1.25 1.25 0 1 0 2.5 0 1.25 1.25 0 1 0-2.5 0m80 20a1.25 1.25 0 1 0 2.5 0 1.25 1.25 0 1 0-2.5 0m-120-200a1.25 1.25 0 1 0 2.5 0 1.25 1.25 0 1 0-2.5 0m40-10a1.25 1.25 0 1 0 2.5 0 1.25 1.25 0 1 0-2.5 0m150 20a1.25 1.25 0 1 0 2.5 0 1.25 1.25 0 1 0-2.5 0m60-90a1.25 1.25 0 1 0 2.5 0 1.25 1.25 0 1 0-2.5 0m-110 150a1.25 1.25 0 1 0 2.5 0 1.25 1.25 0 1 0-2.5 0m90 0a1.25 1.25 0 1 0 2.5 0 1.25 1.25 0 1 0-2.5 0m-70 20a1.25 1.25 0 1 0 2.5 0 1.25 1.25 0 1 0-2.5 0m70-10a1.25 1.25 0 1 0 2.5 0 1.25 1.25 0 1 0-2.5 0m-170 60a1.25 1.25 0 1 0 2.5 0 1.25 1.25 0 1 0-2.5 0m-40-10a1.25 1.25 0 1 0 2.5 0 1.25 1.25 0 1 0-2.5 0m-70-180a1.25 1.25 0 1 0 2.5 0 1.25 1.25 0 1 0-2.5 0m0 20a1.25 1.25 0 1 0 2.5 0 1.25 1.25 0 1 0-2.5 0m-180 40a1.25 1.25 0 1 0 2.5 0 1.25 1.25 0 1 0-2.5 0m0-20a1.25 1.25 0 1 0 2.5 0 1.25 1.25 0 1 0-2.5 0m140 0a1.25 1.25 0 1 0 2.5 0 1.25 1.25 0 1 0-2.5 0m90 0a1.25 1.25 0 1 0 2.5 0 1.25 1.25 0 1 0-2.5 0m80 160a1.25 1.25 0 1 0 2.5 0 1.25 1.25 0 1 0-2.5 0m20-10a1.25 1.25 0 1 0 2.5 0 1.25 1.25 0 1 0-2.5 0m-240-30a1.25 1.25 0 1 0 2.5 0 1.25 1.25 0 1 0-2.5 0m20-10a1.25 1.25 0 1 0 2.5 0 1.25 1.25 0 1 0-2.5 0m70 80a1.25 1.25 0 1 0 2.5 0 1.25 1.25 0 1 0-2.5 0m90 20a1.25 1.25 0 1 0 2.5 0 1.25 1.25 0 1 0-2.5 0m-200-240a1.25 1.25 0 1 0 2.5 0 1.25 1.25 0 1 0-2.5 0m100 10a1.25 1.25 0 1 0 2.5 0 1.25 1.25 0 1 0-2.5 0m250 190a1.25 1.25 0 1 0 2.5 0 1.25 1.25 0 1 0-2.5 0m-10-40a1.25 1.25 0 1 0 2.5 0 1.25 1.25 0 1 0-2.5 0m-240-190a1.25 1.25 0 1 0 2.5 0 1.25 1.25 0 1 0-2.5 0m30 0a1.25 1.25 0 1 0 2.5 0 1.25 1.25 0 1 0-2.5 0m-20 100a1.25 1.25 0 1 0 2.5 0 1.25 1.25 0 1 0-2.5 0m-70 0a1.25 1.25 0 1 0 2.5 0 1.25 1.25 0 1 0-2.5 0m-50 30a1.25 1.25 0 1 0 2.5 0 1.25 1.25 0 1 0-2.5 0m10 20a1.25 1.25 0 1 0 2.5 0 1.25 1.25 0 1 0-2.5 0m140-60a1.25 1.25 0 1 0 2.5 0 1.25 1.25 0 1 0-2.5 0m50-20a1.25 1.25 0 1 0 2.5 0 1.25 1.25 0 1 0-2.5 0m-100 210a1.25 1.25 0 1 0 2.5 0 1.25 1.25 0 1 0-2.5 0m-20 0a1.25 1.25 0 1 0 2.5 0 1.25 1.25 0 1 0-2.5 0m250-200a1.25 1.25 0 1 0 2.5 0 1.25 1.25 0 1 0-2.5 0m-20 0a1.25 1.25 0 1 0 2.5 0 1.25 1.25 0 1 0-2.5 0m-140 100a1.25 1.25 0 1 0 2.5 0 1.25 1.25 0 1 0-2.5 0m-40-40a1.25 1.25 0 1 0 2.5 0 1.25 1.25 0 1 0-2.5 0m180 130a1.25 1.25 0 1 0 2.5 0 1.25 1.25 0 1 0-2.5 0m20-20a1.25 1.25 0 1 0 2.5 0 1.25 1.25 0 1 0-2.5 0m-130-160a1.25 1.25 0 1 0 2.5 0 1.25 1.25 0 1 0-2.5 0m0 70a1.25 1.25 0 1 0 2.5 0 1.25 1.25 0 1 0-2.5 0m50-20a1.25 1.25 0 1 0 2.5 0 1.25 1.25 0 1 0-2.5 0m60 90a1.25 1.25 0 1 0 2.5 0 1.25 1.25 0 1 0-2.5 0m60-180a1.25 1.25 0 1 0 2.5 0 1.25 1.25 0 1 0-2.5 0m40-60a1.25 1.25 0 1 0 2.5 0 1.25 1.25 0 1 0-2.5 0m-80 280a1.25 1.25 0 1 0 2.5 0 1.25 1.25 0 1 0-2.5 0m-30 10a1.25 1.25 0 1 0 2.5 0 1.25 1.25 0 1 0-2.5 0m-360-280a1.25 1.25 0 1 0 2.5 0 1.25 1.25 0 1 0-2.5 0m0 30a1.25 1.25 0 1 0 2.5 0 1.25 1.25 0 1 0-2.5 0m450 40a1.25 1.25 0 1 0 2.5 0 1.25 1.25 0 1 0-2.5 0m30-40a1.25 1.25 0 1 0 2.5 0 1.25 1.25 0 1 0-2.5 0m-490 170a1.25 1.25 0 1 0 2.5 0 1.25 1.25 0 1 0-2.5 0m20-20a1.25 1.25 0 1 0 2.5 0 1.25 1.25 0 1 0-2.5 0m20-50a1.25 1.25 0 1 0 2.5 0 1.25 1.25 0 1 0-2.5 0m-20 20a1.25 1.25 0 1 0 2.5 0 1.25 1.25 0 1 0-2.5 0m0 60a1.25 1.25 0 1 0 2.5 0 1.25 1.25 0 1 0-2.5 0m-20 0a1.25 1.25 0 1 0 2.5 0 1.25 1.25 0 1 0-2.5 0m80-200a1.25 1.25 0 1 0 2.5 0 1.25 1.25 0 1 0-2.5 0m40-20a1.25 1.25 0 1 0 2.5 0 1.25 1.25 0 1 0-2.5 0m80 160a1.25 1.25 0 1 0 2.5 0 1.25 1.25 0 1 0-2.5 0m-10 0a1.25 1.25 0 1 0 2.5 0 1.25 1.25 0 1 0-2.5 0m230-160a1.25 1.25 0 1 0 2.5 0 1.25 1.25 0 1 0-2.5 0m-100 30a1.25 1.25 0 1 0 2.5 0 1.25 1.25 0 1 0-2.5 0m-280 10a1.25 1.25 0 1 0 2.5 0 1.25 1.25 0 1 0-2.5 0m70-40a1.25 1.25 0 1 0 2.5 0 1.25 1.25 0 1 0-2.5 0m70 200a1.25 1.25 0 1 0 2.5 0 1.25 1.25 0 1 0-2.5 0m-30 10a1.25 1.25 0 1 0 2.5 0 1.25 1.25 0 1 0-2.5 0m0-190a1.25 1.25 0 1 0 2.5 0 1.25 1.25 0 1 0-2.5 0m30 20a1.25 1.25 0 1 0 2.5 0 1.25 1.25 0 1 0-2.5 0m140 220a1.25 1.25 0 1 0 2.5 0 1.25 1.25 0 1 0-2.5 0m-50-10a1.25 1.25 0 1 0 2.5 0 1.25 1.25 0 1 0-2.5 0m-20-230a1.25 1.25 0 1 0 2.5 0 1.25 1.25 0 1 0-2.5 0m-20-20a1.25 1.25 0 1 0 2.5 0 1.25 1.25 0 1 0-2.5 0m-90 100a1.25 1.25 0 1 0 2.5 0 1.25 1.25 0 1 0-2.5 0m0-30a1.25 1.25 0 1 0 2.5 0 1.25 1.25 0 1 0-2.5 0m310 200a1.25 1.25 0 1 0 2.5 0 1.25 1.25 0 1 0-2.5 0m40-40a1.25 1.25 0 1 0 2.5 0 1.25 1.25 0 1 0-2.5 0m-150-70a1.25 1.25 0 1 0 2.5 0 1.25 1.25 0 1 0-2.5 0m40 60a1.25 1.25 0 1 0 2.5 0 1.25 1.25 0 1 0-2.5 0m-250 50a1.25 1.25 0 1 0 2.5 0 1.25 1.25 0 1 0-2.5 0m0-20a1.25 1.25 0 1 0 2.5 0 1.25 1.25 0 1 0-2.5 0m-60-20a1.25 1.25 0 1 0 2.5 0 1.25 1.25 0 1 0-2.5 0m-20 30a1.25 1.25 0 1 0 2.5 0 1.25 1.25 0 1 0-2.5 0m250-60a1.25 1.25 0 1 0 2.5 0 1.25 1.25 0 1 0-2.5 0m-20 20a1.25 1.25 0 1 0 2.5 0 1.25 1.25 0 1 0-2.5 0m-20-100a1.25 1.25 0 1 0 2.5 0 1.25 1.25 0 1 0-2.5 0m-20 60a1.25 1.25 0 1 0 2.5 0 1.25 1.25 0 1 0-2.5 0m-210 40a1.25 1.25 0 1 0 2.5 0 1.25 1.25 0 1 0-2.5 0m-30 30a1.25 1.25 0 1 0 2.5 0 1.25 1.25 0 1 0-2.5 0m220-90a1.25 1.25 0 1 0 2.5 0 1.25 1.25 0 1 0-2.5 0m20 10a1.25 1.25 0 1 0 2.5 0 1.25 1.25 0 1 0-2.5 0m160-100a1.25 1.25 0 1 0 2.5 0 1.25 1.25 0 1 0-2.5 0m20 20a1.25 1.25 0 1 0 2.5 0 1.25 1.25 0 1 0-2.5 0m-300 170a1.25 1.25 0 1 0 2.5 0 1.25 1.25 0 1 0-2.5 0m-30-10a1.25 1.25 0 1 0 2.5 0 1.25 1.25 0 1 0-2.5 0m-20-70a1.25 1.25 0 1 0 2.5 0 1.25 1.25 0 1 0-2.5 0m-10 20a1.25 1.25 0 1 0 2.5 0 1.25 1.25 0 1 0-2.5 0m370-60a1.25 1.25 0 1 0 2.5 0 1.25 1.25 0 1 0-2.5 0m40 0a1.25 1.25 0 1 0 2.5 0 1.25 1.25 0 1 0-2.5 0m-470 150a1.25 1.25 0 1 0 2.5 0 1.25 1.25 0 1 0-2.5 0m50 0a1.25 1.25 0 1 0 2.5 0 1.25 1.25 0 1 0-2.5 0m30-160a1.25 1.25 0 1 0 2.5 0 1.25 1.25 0 1 0-2.5 0m0 20a1.25 1.25 0 1 0 2.5 0 1.25 1.25 0 1 0-2.5 0m240-10a1.25 1.25 0 1 0 2.5 0 1.25 1.25 0 1 0-2.5 0m-20 0a1.25 1.25 0 1 0 2.5 0 1.25 1.25 0 1 0-2.5 0m-100-60a1.25 1.25 0 1 0 2.5 0 1.25 1.25 0 1 0-2.5 0m30 0a1.25 1.25 0 1 0 2.5 0 1.25 1.25 0 1 0-2.5 0m-180-20a1.25 1.25 0 1 0 2.5 0 1.25 1.25 0 1 0-2.5 0m-20 30a1.25 1.25 0 1 0 2.5 0 1.25 1.25 0 1 0-2.5 0m110 100a1.25 1.25 0 1 0 2.5 0 1.25 1.25 0 1 0-2.5 0m20-20a1.25 1.25 0 1 0 2.5 0 1.25 1.25 0 1 0-2.5 0m-100 80a1.25 1.25 0 1 0 2.5 0 1.25 1.25 0 1 0-2.5 0m20-10a1.25 1.25 0 1 0 2.5 0 1.25 1.25 0 1 0-2.5 0m20-150a1.25 1.25 0 1 0 2.5 0 1.25 1.25 0 1 0-2.5 0m0-20a1.25 1.25 0 1 0 2.5 0 1.25 1.25 0 1 0-2.5 0m240 30a1.25 1.25 0 1 0 2.5 0 1.25 1.25 0 1 0-2.5 0m50-40a1.25 1.25 0 1 0 2.5 0 1.25 1.25 0 1 0-2.5 0m-170-40a1.25 1.25 0 1 0 2.5 0 1.25 1.25 0 1 0-2.5 0m0 30a1.25 1.25 0 1 0 2.5 0 1.25 1.25 0 1 0-2.5 0m-170 0a1.25 1.25 0 1 0 2.5 0 1.25 1.25 0 1 0-2.5 0m-10 40a1.25 1.25 0 1 0 2.5 0 1.25 1.25 0 1 0-2.5 0m340-50a1.25 1.25 0 1 0 2.5 0 1.25 1.25 0 1 0-2.5 0m-60 0a1.25 1.25 0 1 0 2.5 0 1.25 1.25 0 1 0-2.5 0m-290 240a1.25 1.25 0 1 0 2.5 0 1.25 1.25 0 1 0-2.5 0m-30 0a1.25 1.25 0 1 0 2.5 0 1.25 1.25 0 1 0-2.5 0m410-260a1.25 1.25 0 1 0 2.5 0 1.25 1.25 0 1 0-2.5 0m-20 20a1.25 1.25 0 1 0 2.5 0 1.25 1.25 0 1 0-2.5 0m-330 80a1.25 1.25 0 1 0 2.5 0 1.25 1.25 0 1 0-2.5 0m-50 30a1.25 1.25 0 1 0 2.5 0 1.25 1.25 0 1 0-2.5 0m60-130a1.25 1.25 0 1 0 2.5 0 1.25 1.25 0 1 0-2.5 0m-20 20a1.25 1.25 0 1 0 2.5 0 1.25 1.25 0 1 0-2.5 0m400 240a1.25 1.25 0 1 0 2.5 0 1.25 1.25 0 1 0-2.5 0m-30 0a1.25 1.25 0 1 0 2.5 0 1.25 1.25 0 1 0-2.5 0m-400-140a1.25 1.25 0 1 0 2.5 0 1.25 1.25 0 1 0-2.5 0m30-20a1.25 1.25 0 1 0 2.5 0 1.25 1.25 0 1 0-2.5 0m430-10a1.25 1.25 0 1 0 2.5 0 1.25 1.25 0 1 0-2.5 0m10-50a1.25 1.25 0 1 0 2.5 0 1.25 1.25 0 1 0-2.5 0m-190 120a1.25 1.25 0 1 0 2.5 0 1.25 1.25 0 1 0-2.5 0m30 40a1.25 1.25 0 1 0 2.5 0 1.25 1.25 0 1 0-2.5 0m130-120a1.25 1.25 0 1 0 2.5 0 1.25 1.25 0 1 0-2.5 0m10-20a1.25 1.25 0 1 0 2.5 0 1.25 1.25 0 1 0-2.5 0m-460 170a1.25 1.25 0 1 0 2.5 0 1.25 1.25 0 1 0-2.5 0m30 10a1.25 1.25 0 1 0 2.5 0 1.25 1.25 0 1 0-2.5 0m60-100a1.25 1.25 0 1 0 2.5 0 1.25 1.25 0 1 0-2.5 0m0 20a1.25 1.25 0 1 0 2.5 0 1.25 1.25 0 1 0-2.5 0m260-110a1.25 1.25 0 1 0 2.5 0 1.25 1.25 0 1 0-2.5 0m-30 0a1.25 1.25 0 1 0 2.5 0 1.25 1.25 0 1 0-2.5 0m70-70a1.25 1.25 0 1 0 2.5 0 1.25 1.25 0 1 0-2.5 0m-20 10a1.25 1.25 0 1 0 2.5 0 1.25 1.25 0 1 0-2.5 0m-170 180a1.25 1.25 0 1 0 2.5 0 1.25 1.25 0 1 0-2.5 0m-20-20a1.25 1.25 0 1 0 2.5 0 1.25 1.25 0 1 0-2.5 0m300 70a1.25 1.25 0 1 0 2.5 0 1.25 1.25 0 1 0-2.5 0m0 20a1.25 1.25 0 1 0 2.5 0 1.25 1.25 0 1 0-2.5 0m-250-30a1.25 1.25 0 1 0 2.5 0 1.25 1.25 0 1 0-2.5 0m20-10a1.25 1.25 0 1 0 2.5 0 1.25 1.25 0 1 0-2.5 0m-250-100a1.25 1.25 0 1 0 2.5 0 1.25 1.25 0 1 0-2.5 0m0-20a1.25 1.25 0 1 0 2.5 0 1.25 1.25 0 1 0-2.5 0m290 0a1.25 1.25 0 1 0 2.5 0 1.25 1.25 0 1 0-2.5 0m0-40a1.25 1.25 0 1 0 2.5 0 1.25 1.25 0 1 0-2.5 0m160 230a1.25 1.25 0 1 0 2.5 0 1.25 1.25 0 1 0-2.5 0m10-30a1.25 1.25 0 1 0 2.5 0 1.25 1.25 0 1 0-2.5 0m-370-30a1.25 1.25 0 1 0 2.5 0 1.25 1.25 0 1 0-2.5 0m20 0a1.25 1.25 0 1 0 2.5 0 1.25 1.25 0 1 0-2.5 0m250-120a1.25 1.25 0 1 0 2.5 0 1.25 1.25 0 1 0-2.5 0m40 0a1.25 1.25 0 1 0 2.5 0 1.25 1.25 0 1 0-2.5 0m30-80a1.25 1.25 0 1 0 2.5 0 1.25 1.25 0 1 0-2.5 0m-10-30a1.25 1.25 0 1 0 2.5 0 1.25 1.25 0 1 0-2.5 0m-10 170a1.25 1.25 0 1 0 2.5 0 1.25 1.25 0 1 0-2.5 0m40 0a1.25 1.25 0 1 0 2.5 0 1.25 1.25 0 1 0-2.5 0m-340-70a1.25 1.25 0 1 0 2.5 0 1.25 1.25 0 1 0-2.5 0m0-20a1.25 1.25 0 1 0 2.5 0 1.25 1.25 0 1 0-2.5 0m50 20a1.25 1.25 0 1 0 2.5 0 1.25 1.25 0 1 0-2.5 0m-20-20a1.25 1.25 0 1 0 2.5 0 1.25 1.25 0 1 0-2.5 0m-130-20a1.25 1.25 0 1 0 2.5 0 1.25 1.25 0 1 0-2.5 0m10-20a1.25 1.25 0 1 0 2.5 0 1.25 1.25 0 1 0-2.5 0m210 100a1.25 1.25 0 1 0 2.5 0 1.25 1.25 0 1 0-2.5 0m10-50a1.25 1.25 0 1 0 2.5 0 1.25 1.25 0 1 0-2.5 0m-120 80a1.25 1.25 0 1 0 2.5 0 1.25 1.25 0 1 0-2.5 0m20 0a1.25 1.25 0 1 0 2.5 0 1.25 1.25 0 1 0-2.5 0m300 40a1.25 1.25 0 1 0 2.5 0 1.25 1.25 0 1 0-2.5 0m30-10a1.25 1.25 0 1 0 2.5 0 1.25 1.25 0 1 0-2.5 0m-140-120a1.25 1.25 0 1 0 2.5 0 1.25 1.25 0 1 0-2.5 0m-10 20a1.25 1.25 0 1 0 2.5 0 1.25 1.25 0 1 0-2.5 0m-240 100a1.25 1.25 0 1 0 2.5 0 1.25 1.25 0 1 0-2.5 0m0 20a1.25 1.25 0 1 0 2.5 0 1.25 1.25 0 1 0-2.5 0m-70-220a1.25 1.25 0 1 0 2.5 0 1.25 1.25 0 1 0-2.5 0m30 0a1.25 1.25 0 1 0 2.5 0 1.25 1.25 0 1 0-2.5 0m430 10a1.25 1.25 0 1 0 2.5 0 1.25 1.25 0 1 0-2.5 0m-10 30a1.25 1.25 0 1 0 2.5 0 1.25 1.25 0 1 0-2.5 0m-280 50a1.25 1.25 0 1 0 2.5 0 1.25 1.25 0 1 0-2.5 0m20 20a1.25 1.25 0 1 0 2.5 0 1.25 1.25 0 1 0-2.5 0m-70-100a1.25 1.25 0 1 0 2.5 0 1.25 1.25 0 1 0-2.5 0m30 0a1.25 1.25 0 1 0 2.5 0 1.25 1.25 0 1 0-2.5 0m-140 40a1.25 1.25 0 1 0 2.5 0 1.25 1.25 0 1 0-2.5 0m0 20a1.25 1.25 0 1 0 2.5 0 1.25 1.25 0 1 0-2.5 0m370 60a1.25 1.25 0 1 0 2.5 0 1.25 1.25 0 1 0-2.5 0m50 0a1.25 1.25 0 1 0 2.5 0 1.25 1.25 0 1 0-2.5 0m-100-130a1.25 1.25 0 1 0 2.5 0 1.25 1.25 0 1 0-2.5 0m0 20a1.25 1.25 0 1 0 2.5 0 1.25 1.25 0 1 0-2.5 0m-160 60a1.25 1.25 0 1 0 2.5 0 1.25 1.25 0 1 0-2.5 0m-30 0a1.25 1.25 0 1 0 2.5 0 1.25 1.25 0 1 0-2.5 0m-10 40a1.25 1.25 0 1 0 2.5 0 1.25 1.25 0 1 0-2.5 0m20 0a1.25 1.25 0 1 0 2.5 0 1.25 1.25 0 1 0-2.5 0m20 10a1.25 1.25 0 1 0 2.5 0 1.25 1.25 0 1 0-2.5 0m10-20a1.25 1.25 0 1 0 2.5 0 1.25 1.25 0 1 0-2.5 0m50 30a1.25 1.25 0 1 0 2.5 0 1.25 1.25 0 1 0-2.5 0m0 20a1.25 1.25 0 1 0 2.5 0 1.25 1.25 0 1 0-2.5 0m200-150a1.25 1.25 0 1 0 2.5 0 1.25 1.25 0 1 0-2.5 0m20-10a1.25 1.25 0 1 0 2.5 0 1.25 1.25 0 1 0-2.5 0m-330 140a1.25 1.25 0 1 0 2.5 0 1.25 1.25 0 1 0-2.5 0m-20 10a1.25 1.25 0 1 0 2.5 0 1.25 1.25 0 1 0-2.5 0m0-110a1.25 1.25 0 1 0 2.5 0 1.25 1.25 0 1 0-2.5 0m40 0a1.25 1.25 0 1 0 2.5 0 1.25 1.25 0 1 0-2.5 0m130 210a1.25 1.25 0 1 0 2.5 0 1.25 1.25 0 1 0-2.5 0m20 10a1.25 1.25 0 1 0 2.5 0 1.25 1.25 0 1 0-2.5 0m-120-120a1.25 1.25 0 1 0 2.5 0 1.25 1.25 0 1 0-2.5 0m-50 10a1.25 1.25 0 1 0 2.5 0 1.25 1.25 0 1 0-2.5 0m-70-90a1.25 1.25 0 1 0 2.5 0 1.25 1.25 0 1 0-2.5 0m0 20a1.25 1.25 0 1 0 2.5 0 1.25 1.25 0 1 0-2.5 0m190 30a1.25 1.25 0 1 0 2.5 0 1.25 1.25 0 1 0-2.5 0m0-20a1.25 1.25 0 1 0 2.5 0 1.25 1.25 0 1 0-2.5 0m210 120a1.25 1.25 0 1 0 2.5 0 1.25 1.25 0 1 0-2.5 0m0 20a1.25 1.25 0 1 0 2.5 0 1.25 1.25 0 1 0-2.5 0m-140 40a1.25 1.25 0 1 0 2.5 0 1.25 1.25 0 1 0-2.5 0m20 0a1.25 1.25 0 1 0 2.5 0 1.25 1.25 0 1 0-2.5 0"/>
    </mask>
  </defs>
</svg>
